<?xml version="1.0" encoding="UTF-8" standalone="no"?>
<svg width="10px" height="12px" viewBox="0 0 10 12" version="1.1" xmlns="http://www.w3.org/2000/svg" xmlns:xlink="http://www.w3.org/1999/xlink" xmlns:sketch="http://www.bohemiancoding.com/sketch/ns">
    <!-- Generator: Sketch 3.4.4 (17249) - http://www.bohemiancoding.com/sketch -->
    <title>Applications</title>
    <desc>Created with Sketch.</desc>
    <defs>
        <path id="path-1" d="M0,0.134794521 L8.77676712,0.134794521 L8.77676712,12 L0,12 L0,0.134794521 Z"></path>
        <path id="path-3" d="M0,0.134794521 L8.77676712,0.134794521 L8.77676712,12 L0,12 L0,0.134794521 Z"></path>
    </defs>
    <g id="Interim-Designs" stroke="none" stroke-width="1" fill="none" fill-rule="evenodd" sketch:type="MSPage">
        <g id="Search-Copy-2" sketch:type="MSArtboardGroup" transform="translate(-48.000000, -299.000000)">
            <g id="Applications" sketch:type="MSLayerGroup" transform="translate(48.778821, 299.000000)">
                <g id="Group-3">
                    <mask id="mask-2" sketch:name="Clip 2" fill="white">
                        <use xlink:href="#path-1"></use>
                    </mask>
                    <g id="Clip-2"></g>
                    <path d="M7.83614795,10.9668164 L0.940750685,10.9668164 L0.940750685,1.9641863 L1.47680548,1.9641863 L1.47680548,2.28029589 C1.47680548,2.53393973 1.6826137,2.74007671 1.9365863,2.74007671 C2.19039452,2.74007671 2.39636712,2.53393973 2.39636712,2.28029589 L2.39636712,1.9641863 L3.91921644,1.9641863 L3.91921644,2.28029589 C3.91921644,2.53393973 4.12502466,2.74007671 4.37899726,2.74007671 C4.63296986,2.74007671 4.83877808,2.53393973 4.83877808,2.28029589 L4.83877808,1.9641863 L6.37083288,1.9641863 L6.37083288,2.28029589 C6.37083288,2.53393973 6.5766411,2.74007671 6.8306137,2.74007671 C7.08442192,2.74007671 7.29023014,2.53393973 7.29023014,2.28029589 L7.29023014,1.9641863 L7.83614795,1.9641863 L7.83614795,10.9668164 Z M7.82381918,0.939419178 L7.29023014,0.939419178 L7.29023014,0.594542466 C7.29023014,0.340569863 7.08442192,0.134761644 6.8306137,0.134761644 C6.5766411,0.134761644 6.37083288,0.340569863 6.37083288,0.594542466 L6.37083288,0.939419178 L4.83877808,0.939419178 L4.83877808,0.594542466 C4.83877808,0.340569863 4.63296986,0.134761644 4.37899726,0.134761644 C4.12502466,0.134761644 3.91921644,0.340569863 3.91921644,0.594542466 L3.91921644,0.939419178 L2.39636712,0.939419178 L2.39636712,0.594542466 C2.39636712,0.340569863 2.19039452,0.134761644 1.9365863,0.134761644 C1.6826137,0.134761644 1.47680548,0.340569863 1.47680548,0.594542466 L1.47680548,0.939419178 L0.953243836,0.939419178 C0.426723288,0.939419178 -1.64383562e-05,1.36632329 -1.64383562e-05,1.89267945 L-1.64383562e-05,11.0468712 C-1.64383562e-05,11.5732274 0.426723288,11.9999671 0.953243836,11.9999671 L7.82381918,11.9999671 C8.35017534,11.9999671 8.77691507,11.5732274 8.77691507,11.0468712 L8.77691507,1.89267945 C8.77691507,1.36632329 8.35017534,0.939419178 7.82381918,0.939419178 L7.82381918,0.939419178 Z" id="Fill-1" fill="#000000" sketch:type="MSShapeGroup" mask="url(#mask-2)"></path>
                </g>
                <mask id="mask-4" sketch:name="Clip 5" fill="white">
                    <use xlink:href="#path-3"></use>
                </mask>
                <g id="Clip-5"></g>
                <path d="M1.92739726,4.57068493 L6.8429589,4.57068493 L6.8429589,3.9259726 L1.92739726,3.9259726 L1.92739726,4.57068493 Z" id="Fill-4" fill="#000000" sketch:type="MSShapeGroup" mask="url(#mask-4)"></path>
                <path d="M1.92739726,6.25627397 L6.8429589,6.25627397 L6.8429589,5.61156164 L1.92739726,5.61156164 L1.92739726,6.25627397 Z" id="Fill-6" fill="#000000" sketch:type="MSShapeGroup" mask="url(#mask-4)"></path>
                <path d="M1.92739726,7.94186301 L6.8429589,7.94186301 L6.8429589,7.29715068 L1.92739726,7.29715068 L1.92739726,7.94186301 Z" id="Fill-7" fill="#000000" sketch:type="MSShapeGroup" mask="url(#mask-4)"></path>
                <path d="M1.92739726,9.62728767 L6.8429589,9.62728767 L6.8429589,8.98257534 L1.92739726,8.98257534 L1.92739726,9.62728767 Z" id="Fill-8" fill="#000000" sketch:type="MSShapeGroup" mask="url(#mask-4)"></path>
            </g>
        </g>
    </g>
</svg>