<svg width="150" height="150" viewBox="0 0 150 150" fill="none" xmlns="http://www.w3.org/2000/svg">
<g clip-path="url(#clip0_1656_34065)">
<g clip-path="url(#clip1_1656_34065)">
<path d="M150 0H-1.52588e-05V150H150V0Z" fill="#DE7176"/>
</g>
</g>
<path d="M45.0918 49.1035L54.6211 52.125C53.1602 57.4375 50.7253 61.3887 47.3164 63.9785C43.9297 66.5462 39.6243 67.8301 34.4004 67.8301C27.9368 67.8301 22.6243 65.6276 18.4629 61.2227C14.3014 56.7956 12.2207 50.7526 12.2207 43.0938C12.2207 34.9922 14.3125 28.7057 18.4961 24.2344C22.6797 19.7409 28.1803 17.4941 34.998 17.4941C40.9525 17.4941 45.7891 19.2539 49.5078 22.7734C51.7214 24.8542 53.3815 27.8424 54.4883 31.7383L44.7598 34.0625C44.1842 31.5391 42.9779 29.5469 41.1406 28.0859C39.3255 26.625 37.112 25.8945 34.5 25.8945C30.8919 25.8945 27.959 27.1895 25.7012 29.7793C23.4655 32.3691 22.3477 36.5638 22.3477 42.3633C22.3477 48.5169 23.4544 52.8997 25.668 55.5117C27.8815 58.1237 30.7591 59.4297 34.3008 59.4297C36.9128 59.4297 39.1595 58.5996 41.041 56.9395C42.9225 55.2793 44.2728 52.6673 45.0918 49.1035ZM62.7891 67V18.3242H72.6172V67H62.7891Z" fill="white"/>
<path d="M45.0918 114.104L54.6211 117.125C53.1602 122.438 50.7253 126.389 47.3164 128.979C43.9297 131.546 39.6243 132.83 34.4004 132.83C27.9368 132.83 22.6243 130.628 18.4629 126.223C14.3014 121.796 12.2207 115.753 12.2207 108.094C12.2207 99.9922 14.3125 93.7057 18.4961 89.2344C22.6797 84.7409 28.1803 82.4941 34.998 82.4941C40.9525 82.4941 45.7891 84.2539 49.5078 87.7734C51.7214 89.8542 53.3815 92.8424 54.4883 96.7383L44.7598 99.0625C44.1842 96.5391 42.9779 94.5469 41.1406 93.0859C39.3255 91.625 37.112 90.8945 34.5 90.8945C30.8919 90.8945 27.959 92.1895 25.7012 94.7793C23.4655 97.3691 22.3477 101.564 22.3477 107.363C22.3477 113.517 23.4544 117.9 25.668 120.512C27.8815 123.124 30.7591 124.43 34.3008 124.43C36.9128 124.43 39.1595 123.6 41.041 121.939C42.9225 120.279 44.2728 117.667 45.0918 114.104ZM63.0547 83.3242H81.0176C85.0684 83.3242 88.1562 83.6341 90.2812 84.2539C93.1367 85.0951 95.5827 86.5892 97.6191 88.7363C99.6556 90.8835 101.205 93.5176 102.268 96.6387C103.33 99.7376 103.861 103.567 103.861 108.127C103.861 112.133 103.363 115.587 102.367 118.486C101.15 122.028 99.4121 124.895 97.1543 127.086C95.4499 128.746 93.1478 130.041 90.248 130.971C88.0788 131.657 85.179 132 81.5488 132H63.0547V83.3242ZM72.8828 91.5586V123.799H80.2207C82.9655 123.799 84.9466 123.644 86.1641 123.334C87.7578 122.936 89.0749 122.26 90.1152 121.309C91.1777 120.357 92.041 118.796 92.7051 116.627C93.3691 114.436 93.7012 111.458 93.7012 107.695C93.7012 103.932 93.3691 101.044 92.7051 99.0293C92.041 97.015 91.1113 95.4434 89.916 94.3145C88.7207 93.1855 87.2044 92.4219 85.3672 92.0234C83.9948 91.7135 81.3053 91.5586 77.2988 91.5586H72.8828Z" fill="white"/>
<path d="M88.9004 67.8301L100.953 17.4941H107.959L95.7734 67.8301H88.9004Z" fill="white"/>
<defs>
<clipPath id="clip0_1656_34065">
<rect width="150" height="150" fill="white"/>
</clipPath>
<clipPath id="clip1_1656_34065">
<rect width="150.485" height="150" fill="white"/>
</clipPath>
</defs>
</svg>
