<?xml version="1.0" encoding="UTF-8"?>
<svg width="187px" height="180px" viewBox="0 0 187 180" version="1.1" xmlns="http://www.w3.org/2000/svg" xmlns:xlink="http://www.w3.org/1999/xlink">
    <!-- Generator: Sketch 41 (35326) - http://www.bohemiancoding.com/sketch -->
    <title>cp-illo-published</title>
    <desc>Created with Sketch.</desc>
    <defs></defs>
    <g id="Page-1" stroke="none" stroke-width="1" fill="none" fill-rule="evenodd">
        <g id="Published" transform="translate(-210.000000, -82.000000)">
            <g id="cp-illo-published" transform="translate(209.957447, 81.000882)">
                <path d="M180.042553,90.9991176 C180.042553,140.705529 139.748964,180.999118 90.0425532,180.999118 C40.3361419,180.999118 0.0425531915,140.705529 0.0425531915,90.9991176 C0.0425531915,41.2927064 40.3361419,0.999117647 90.0425532,0.999117647 C139.748964,0.999117647 180.042553,41.2927064 180.042553,90.9991176" id="Fill-1" fill="#C9E8D4"></path>
                <path d="M82.5441773,137.875175 L35.168633,90.5285987 C33.6671933,89.0280771 33.6671933,86.5967299 35.168633,85.0981394 L48.6178229,71.655242 C50.1173302,70.1566515 52.550165,70.1566515 54.0516047,71.655242 L82.5441773,100.130392 C84.0436846,101.630914 86.4765194,101.630914 87.9779591,100.130392 L166.033502,22.1245089 C167.533009,20.6239872 169.965844,20.6239872 171.467284,22.1245089 L184.916473,35.5654751 C186.417913,37.0640656 186.417913,39.4954128 184.916473,40.9959345 L87.9779591,137.875175 C86.4765194,139.373765 84.0436846,139.373765 82.5441773,137.875175" id="Fill-4" fill="#FFFFFF"></path>
                <path d="M82.5441773,137.875175 L35.168633,90.5285987 C33.6671933,89.0280771 33.6671933,86.5967299 35.168633,85.0981394 L48.6178229,71.655242 C50.1173302,70.1566515 52.550165,70.1566515 54.0516047,71.655242 L82.5441773,100.130392 C84.0436846,101.630914 86.4765194,101.630914 87.9779591,100.130392 L166.033502,22.1245089 C167.533009,20.6239872 169.965844,20.6239872 171.467284,22.1245089 L184.916473,35.5654751 C186.417913,37.0640656 186.417913,39.4954128 184.916473,40.9959345 L87.9779591,137.875175 C86.4765194,139.373765 84.0436846,139.373765 82.5441773,137.875175 Z" id="Stroke-6" stroke="#C9E8D4" stroke-width="2"></path>
            </g>
        </g>
    </g>
</svg>