<svg width="423" height="133" viewBox="0 0 423 133" xmlns="http://www.w3.org/2000/svg"><g fill="none" fill-rule="evenodd"><path d="M98 101h-7l3.5-5 3.5 5zm-3.5-3.215l-1.518 2.168h3.036L94.5 97.785zM107 101h-7l3.5-5 3.5 5zm-3.5-3.215l-1.518 2.168h3.036l-1.518-2.168z" fill="#D0E4FB" fill-rule="nonzero"/><path d="M113 101h-7l3.5-5 3.5 5zm-3.5-3.215l-1.518 2.168h3.036l-1.518-2.168zM92 95h-7l3.5-5 3.5 5zm-3.5-3.215l-1.518 2.168h3.036L88.5 91.785z" fill="#D0E4FB" fill-rule="nonzero"/><path d="M98 95h-7l3.5-5 3.5 5zm-3.5-3.215l-1.518 2.168h3.036L94.5 91.785z" fill="#D0E4FB" fill-rule="nonzero"/><path d="M103 95h-7l3.5-5 3.5 5zm-3.5-3.215l-1.518 2.168h3.036L99.5 91.785z" fill="#D0E4FB" fill-rule="nonzero"/><path d="M70 133l24.36-12.726c1.2-.627 2.67-.14 3.282 1.087l5.09 10.19c.232.47.308.97.248 1.45H70zm2.208 0h29.754c.07-.32.033-.667-.124-.982l-5.09-10.19c-.36-.722-1.226-1.01-1.932-.64L72.208 133z" fill="#FFF" fill-rule="nonzero" opacity=".8"/><path d="M87.77 133H77l18.248-9.888c.472-.256 1.05-.058 1.292.443l1.355 2.814c.24.5.054 1.11-.42 1.37L87.77 133zm-8.616 0h6.46l11.4-6.177-1.338-2.776L79.154 133z" fill="#FFF" opacity=".8"/><path d="M101.31 120.506l6.876 8.92c.487.632 1.393.748 2.023.258l27.22-21.158c.63-.49.74-1.4.26-2.032l-6.88-8.92c-.49-.632-1.4-.748-2.03-.258l-27.23 21.158c-.63.49-.75 1.4-.26 2.032zm26.864-23.99c1.07-.833 2.61-.636 3.438.44l6.875 8.92c.83 1.073.633 2.62-.438 3.45l-27.23 21.16c-1.07.83-2.61.634-3.44-.44l-6.88-8.92c-.83-1.075-.64-2.62.44-3.452l27.22-21.16z" fill="#FFF" fill-rule="nonzero" opacity=".8"/><path d="M105.83 121.99l25.167-19.606-1.826-2.375-25.16 19.6 1.83 2.37zm22.748-22.785c.426-.33 1.038-.253 1.367.176l1.85 2.41c.33.43.253 1.05-.173 1.38l-25.2 19.63c-.426.33-1.038.26-1.367-.17l-1.85-2.4c-.33-.43-.253-1.04.173-1.37l25.2-19.63z" fill="#FFF" fill-rule="nonzero" opacity=".8"/><path d="M110 114l2 3m-5 0l2 3m5-9l2 3m2-6l2 3" stroke="#FFF" opacity=".8"/><path d="M121 105l2 3m2-5l2 3" stroke="#FFF" stroke-width=".5" opacity=".8"/><path d="M115.357 125c1.76.452 2.89 2.197 2.597 4.018-.293 1.82-1.908 3.112-3.72 2.972-1.812-.14-3.216-1.665-3.234-3.51" stroke="#FFF" opacity=".8"/><path d="M120.357 121c1.76.452 2.89 2.197 2.597 4.018-.293 1.82-1.908 3.112-3.72 2.972-1.812-.14-3.216-1.665-3.234-3.51" stroke="#FFF" opacity=".8"/><circle stroke="#FFF" opacity=".8" transform="rotate(-37.74 119.5 124.5)" cx="119.48" cy="124.48" r="1"/><path d="M130.357 114c1.76.452 2.89 2.197 2.597 4.018-.293 1.82-1.908 3.112-3.72 2.972-1.812-.14-3.216-1.665-3.234-3.51" stroke="#FFF" opacity=".8"/><circle stroke="#FFF" opacity=".8" transform="rotate(-37.74 129.5 116.5)" cx="129.48" cy="116.48" r="1"/><path d="M135.357 110c1.76.452 2.89 2.197 2.597 4.018-.293 1.82-1.908 3.112-3.72 2.972-1.812-.14-3.216-1.665-3.234-3.51" stroke="#FFF" opacity=".8"/><circle stroke="#FFF" opacity=".8" transform="rotate(-37.74 134.5 112.5)" cx="134.48" cy="112.48" r="1"/><path d="M122 123l5-4" stroke="#FFF" opacity=".8"/><circle stroke="#FFF" stroke-width=".5" opacity=".8" transform="rotate(-40.07 136.5 83.5)" cx="136.48" cy="83.48" r="1"/><path d="M164 79.18c.167-.13.385-.194.605-.177.22.016.422.11.564.263l.63.68c.14.152.21.348.19.546-.02.197-.13.38-.29.508" stroke="#FFF" opacity=".8"/><path d="M168.134 77.603c-.628-.778-1.54-1.272-2.536-1.37l-1.782-.15c-6.213-.52-12.378 1.452-17.135 5.48L133.94 92.28c-1.108.944-1.25 2.6-.316 3.717l5.95 7.07c.94 1.11 2.6 1.25 3.714.317L167.7 82.826c1.55-1.327 1.746-3.655.44-5.222z" stroke="#FFF" opacity=".8"/><path d="M163 76l-8.266 6.85c-.132.11-.302.162-.474.148-.172-.015-.33-.097-.44-.228l-1.667-1.948c-.11-.13-.166-.298-.15-.467.015-.17.098-.325.23-.434l4.154-3.44M135.17 93.89l13.077-10.772c.203-.164.507-.14.678.06l1.962 2.286c.17.2.145.496-.058.664l-13.08 10.77c-.21.166-.51.14-.68-.06l-1.96-2.284c-.17-.2-.15-.498.05-.666zM139 91l3 3m0-5l3 3m1-6l3 3m-5-5.59l-7-.41m10.36 17c1.74.45 2.864 2.16 2.602 3.963-.26 1.802-1.823 3.112-3.616 3.034-1.794-.08-3.238-1.52-3.346-3.34" stroke="#FFF" opacity=".8"/><circle stroke="#FFF" opacity=".8" transform="rotate(-40.07 146.5 102.5)" cx="146.48" cy="102.48" r="1"/><path d="M152.36 96c1.74.45 2.864 2.16 2.602 3.963-.26 1.802-1.823 3.112-3.616 3.034-1.794-.08-3.238-1.52-3.346-3.34" stroke="#FFF" opacity=".8"/><circle stroke="#FFF" opacity=".8" transform="rotate(-40.07 151.5 98.5)" cx="151.48" cy="98.48" r="1"/><path d="M162.36 87c1.74.45 2.864 2.16 2.602 3.963-.26 1.802-1.823 3.112-3.616 3.034-1.794-.08-3.238-1.52-3.346-3.34" stroke="#FFF" opacity=".8"/><circle stroke="#FFF" opacity=".8" transform="rotate(-40.07 161.5 90.5)" cx="161.48" cy="90.48" r="1"/><path d="M167.36 83c1.74.45 2.864 2.16 2.602 3.963-.26 1.802-1.823 3.112-3.616 3.034-1.794-.08-3.238-1.52-3.346-3.34" stroke="#FFF" opacity=".8"/><circle stroke="#FFF" opacity=".8" transform="rotate(-40.07 166.5 86.5)" cx="166.48" cy="86.48" r="1"/><path d="M155 97l5-4" stroke="#FFF" opacity=".8"/><path fill="#D0E4FB" fill-rule="nonzero" d="M319 39.296L325.106 60l.894-.296L319.894 39m-10 21L316 39.296l-.894-.296L309 59.704"/><path d="M308 48.73c2.222 1.768 4.952 2.904 7.86 3.27l.14-.955c-2.707-.342-5.248-1.4-7.318-3.045l-.682.73zm-5-9.602c.364 2.51 1.46 4.886 3.173 6.872l.827-.6c-1.595-1.85-2.615-4.062-2.954-6.4l-1.046.128zM306.2 28c-1.938 2.273-3.058 5.057-3.2 7.957l1.02.043c.132-2.7 1.175-5.292 2.98-7.41l-.8-.59zm9.672-5c-2.51.364-4.886 1.46-6.872 3.173l.6.827c1.85-1.595 4.062-2.615 6.4-2.954L315.872 23zM327 26.173c-1.986-1.713-4.36-2.81-6.872-3.173L320 24.046c2.338.34 4.55 1.36 6.4 2.954l.6-.827zm5 9.784c-.142-2.9-1.262-5.684-3.2-7.957l-.8.59c1.805 2.118 2.848 4.71 2.98 7.41l1.02-.043zM328.827 46c1.713-1.986 2.81-4.36 3.173-6.872L330.954 39c-.34 2.338-1.36 4.55-2.954 6.4l.827.6zm-8.687 6c2.908-.366 5.638-1.502 7.86-3.27l-.682-.73c-2.07 1.646-4.61 2.703-7.318 3.045l.14.955z" fill="#FFF" fill-rule="nonzero"/><path fill="#D0E4FB" fill-rule="nonzero" d="M305 60h26v-1h-26m0-21h11v-1h-11m15 1h11v-1h-11"/><path fill="#D0E4FB" fill-rule="nonzero" d="M318 60v-7h-1v7m1-10V39h-1v11m1-14V25h-1v11"/><path fill="#FFF" fill-rule="nonzero" d="M308 28.738L316.26 37l.74-.738L308.74 28M319 38.707L326.296 46l.704-.707L319.704 38m-9.998 8L317 38.706l-.706-.706L309 45.294M319.74 37l8.26-8.26-.74-.74-8.26 8.26"/><circle stroke="#66BFFF" opacity=".8" cx="318" cy="37" r="2"/><path d="M301 37.75V37h4v.75c0 1.243-.895 2.25-2 2.25s-2-1.007-2-2.25zm4 8.25h4v.75c0 1.243-.895 2.25-2 2.25-.53 0-1.04-.237-1.414-.66-.375-.42-.586-.993-.586-1.59V46zm21 0h4v.75c0 1.243-.895 2.25-2 2.25s-2-1.007-2-2.25V46zm-21-20h4v.75c0 1.243-.895 2.25-2 2.25-.53 0-1.04-.237-1.414-.66-.375-.42-.586-.993-.586-1.59V26zm21 0h4v.75c0 1.243-.895 2.25-2 2.25s-2-1.007-2-2.25V26zm-10-4h4v.75c0 1.243-.895 2.25-2 2.25s-2-1.007-2-2.25V22zm0 28h4v.75c0 1.243-.895 2.25-2 2.25s-2-1.007-2-2.25V50zm14-13h4v.75c0 1.243-.895 2.25-2 2.25-.53 0-1.04-.237-1.414-.66-.375-.42-.586-.993-.586-1.59V37z" stroke="#66BFFF" opacity=".8"/><path d="M106 55h3v-5h-3v5zm4-6v7h-5v-7h5z" fill="#D0E4FB" fill-rule="nonzero"/><path d="M108 46c-1.105 0-2-.895-2-2s.895-2 2-2 2 .895 2 2-.895 2-2 2zm0-1c.552 0 1-.448 1-1s-.448-1-1-1-1 .448-1 1 .448 1 1 1z" fill="#66BFFF" fill-rule="nonzero"/><path d="M99 42v-3l8.5-4 8.5 4v3h-1v14h-15V42h-1zm2-1v14h13V41h1v-1.5l-7.5-3.5-7.5 3.5V41h1z" fill="#D0E4FB" fill-rule="nonzero"/><path fill="#D0E4FB" fill-rule="nonzero" d="M114 40.667L107.5 38l-6.5 2.667v.444h-1V42h2v-.89l5.5-2.22 5.5 2.22V42h2v-.89h-1"/><path d="M111 36v2m1 1v-3" stroke="#FFF" opacity=".8"/><path d="M111 35h2v-1h-2v1zm3-2v3h-4v-3h4zM88 55h12v-9H88v9zm13-10v11H87V45h14zm8 8h5v-1h-5" fill="#D0E4FB" fill-rule="nonzero"/><path fill="#D0E4FB" fill-rule="nonzero" d="M100 53h5v-1h-5m-10 3h8v-7h-8v7zm9-8v9H89v-9h10zm-11-1v-2h-1v2m0-2h13v-1H87"/><path d="M63 38h2v-3h-2v3zm3-4v5h-4v-5h4z" fill="#66BFFF" fill-rule="nonzero"/><path d="M81 36v2" stroke="#FFF" opacity=".8"/><path fill="#D0E4FB" fill-rule="nonzero" d="M84 39v-3h-1v3"/><path d="M82 36h2v-1h-2v1zm3-2v3h-4v-3h4zm-14 5v-6h-1v6m6 16h3v-5h-3v5zm4-6v7h-5v-7h5z" fill="#D0E4FB" fill-rule="nonzero"/><path d="M77.5 47c-1.38 0-2.5-1.12-2.5-2.5s1.12-2.5 2.5-2.5 2.5 1.12 2.5 2.5-1.12 2.5-2.5 2.5zm0-1c.828 0 1.5-.672 1.5-1.5s-.672-1.5-1.5-1.5-1.5.672-1.5 1.5.672 1.5 1.5 1.5z" fill="#66BFFF" fill-rule="nonzero"/><path d="M69 42.005v-2.5L77.5 35l8.5 4.504v2.5h-1V56H70.002L70 42.005h-1zm2-1L71.02 55h12.963L84 41.004h1v-1L77.5 36 70 40.005v1h1z" fill="#D0E4FB" fill-rule="nonzero"/><path fill="#D0E4FB" fill-rule="nonzero" d="M84 41.333L77.5 38 71 41.333v.556h-1V43h2v-1.11l5.5-2.78 5.53 2.85L83 43h2v-1.11h-1m-28-8.973v-2.964L64 26l8 3.953v2.964h-2v-.988h1v-1.49l-7-3.46-7 3.46v1.48h1L58.02 45h-1.017L57 32.917"/><path fill="#D0E4FB" fill-rule="nonzero" d="M70 31.5L64 29l-6 2.5v.5h-1v1h2v-1l5-2.088L69 32v1h2v-1h-1M58 55h12v-9H58v9zm13-10v11H57V45h14zm9 9h5v-1h-5m-9 1h5v-1h-5m-13-9h13v-1H58"/><path d="M60 55h8v-7h-8v7zm9-8v9H59v-9h10zm-22 8h4v-7h-4v7zm5-8v9h-6v-9h6zm-20 8h10v-9H32v9zm11-10v11H31V45h12zm2 10V29h-1v26" fill="#D0E4FB" fill-rule="nonzero"/><path fill="#D0E4FB" fill-rule="nonzero" d="M30 55V37h-1v19h26v-9h-1v8"/><path fill="#D0E4FB" fill-rule="nonzero" d="M32 48h10v-1H32m0 3h10v-1H32m0 3h10v-1H32m0 3h10v-1H32m28-3h8v-1h-8m0 3h8v-1h-8m0 3h8v-1h-8m30-3h8v-1h-8m0 3h8v-1h-8m0 3h8v-1h-8"/><path fill="#66BFFF" fill-rule="nonzero" d="M36 38v3h1v-3"/><path fill="#66BFFF" fill-rule="nonzero" d="M35 40h3v-1h-3"/><path d="M36.5 41c.828 0 1.5-.672 1.5-1.5s-.672-1.5-1.5-1.5-1.5.672-1.5 1.5.672 1.5 1.5 1.5zm0 1c-1.38 0-2.5-1.12-2.5-2.5s1.12-2.5 2.5-2.5 2.5 1.12 2.5 2.5-1.12 2.5-2.5 2.5z" fill="#66BFFF" fill-rule="nonzero"/><path d="M30 38h-3v-2.61L46 26v3.652l-16 7.305V38zm-1-1.565l16-7.305v-1.565l-17 8.348v1.044h1v-.522zM44 43.2V40l12 5.333V48h-3v-1.6l-9-3.2zm10 2.667v1.066h1v-1.066L45 41.6v1.067l9 3.2z" fill="#D0E4FB" fill-rule="nonzero"/><g fill-rule="nonzero" fill="#66BFFF" opacity=".8"><path d="M58.5 112c-3.038 0-5.5-2.462-5.5-5.5s2.462-5.5 5.5-5.5 5.5 2.462 5.5 5.5-2.462 5.5-5.5 5.5zm0-1.015c2.477 0 4.485-2.008 4.485-4.485 0-2.477-2.008-4.485-4.485-4.485-2.477 0-4.485 2.008-4.485 4.485 0 2.477 2.008 4.485 4.485 4.485z"/><path d="M58 106v10h1v-10"/><path d="M58.707 109.502l1.795-1.795-.707-.707L58 108.795"/><path d="M58.406 108.7l-2.7-2.7-.706.707 2.7 2.7"/></g><g fill-rule="nonzero" fill="#66BFFF" opacity=".8"><path d="M230.5 58c-3.038 0-5.5-2.462-5.5-5.5s2.462-5.5 5.5-5.5 5.5 2.462 5.5 5.5-2.462 5.5-5.5 5.5zm0-1.015c2.477 0 4.485-2.008 4.485-4.485 0-2.477-2.008-4.485-4.485-4.485-2.477 0-4.485 2.008-4.485 4.485 0 2.477 2.008 4.485 4.485 4.485z"/><path d="M230 52v10h1V52"/><path d="M230.707 55.502l1.795-1.795-.707-.707L230 54.795"/><path d="M230.406 54.7l-2.7-2.7-.706.707 2.7 2.7"/></g><g fill-rule="nonzero" fill="#66BFFF" opacity=".8"><path d="M200.5 40c-3.038 0-5.5-2.462-5.5-5.5s2.462-5.5 5.5-5.5 5.5 2.462 5.5 5.5-2.462 5.5-5.5 5.5zm0-1.015c2.477 0 4.485-2.008 4.485-4.485 0-2.477-2.008-4.485-4.485-4.485-2.477 0-4.485 2.008-4.485 4.485 0 2.477 2.008 4.485 4.485 4.485z"/><path d="M200 34v10h1V34"/><path d="M200.707 37.502l1.795-1.795-.707-.707L200 36.795"/><path d="M200.406 36.7l-2.7-2.7-.706.707 2.7 2.7"/></g><g fill-rule="nonzero" fill="#66BFFF" opacity=".8"><path d="M222.5 39c-3.038 0-5.5-2.462-5.5-5.5s2.462-5.5 5.5-5.5 5.5 2.462 5.5 5.5-2.462 5.5-5.5 5.5zm0-1.015c2.477 0 4.485-2.008 4.485-4.485 0-2.477-2.008-4.485-4.485-4.485-2.477 0-4.485 2.008-4.485 4.485 0 2.477 2.008 4.485 4.485 4.485z"/><path d="M222 33v10h1V33"/><path d="M222.707 36.502l1.795-1.795-.707-.707L222 35.795"/><path d="M222.406 35.7l-2.7-2.7-.706.707 2.7 2.7"/></g><g fill-rule="nonzero" fill="#66BFFF" opacity=".8"><path d="M5.5 121c-3.038 0-5.5-2.462-5.5-5.5s2.462-5.5 5.5-5.5 5.5 2.462 5.5 5.5-2.462 5.5-5.5 5.5zm0-1.015c2.477 0 4.485-2.008 4.485-4.485 0-2.477-2.008-4.485-4.485-4.485-2.477 0-4.485 2.008-4.485 4.485 0 2.477 2.008 4.485 4.485 4.485z"/><path d="M5 115v10h1v-10"/><path d="M6.285 117.657l1.808-1.794-.704-.71-1.81 1.795m.76 1.864l-2.7-2.7-.71.708 2.7 2.7"/></g><g fill-rule="nonzero" fill="#66BFFF" opacity=".8"><path d="M219.5 69c-3.038 0-5.5-2.462-5.5-5.5s2.462-5.5 5.5-5.5 5.5 2.462 5.5 5.5-2.462 5.5-5.5 5.5zm0-1.015c2.477 0 4.485-2.008 4.485-4.485 0-2.477-2.008-4.485-4.485-4.485-2.477 0-4.485 2.008-4.485 4.485 0 2.477 2.008 4.485 4.485 4.485z"/><path d="M219 63v10h1V63"/><path d="M220.285 65.657l1.808-1.794-.704-.71-1.81 1.795m.76 1.864l-2.7-2.7-.71.708 2.7 2.7"/></g><g fill-rule="nonzero" fill="#66BFFF" opacity=".8"><path d="M21.5 98c-3.038 0-5.5-2.462-5.5-5.5s2.462-5.5 5.5-5.5 5.5 2.462 5.5 5.5-2.462 5.5-5.5 5.5zm0-1.015c2.477 0 4.485-2.008 4.485-4.485 0-2.477-2.008-4.485-4.485-4.485-2.477 0-4.485 2.008-4.485 4.485 0 2.477 2.008 4.485 4.485 4.485z"/><path d="M21 92v10h1V92"/><path d="M22.628 94.163l1.795-1.795-.707-.707-1.795 1.8m-.23 1.85l-2.7-2.7-.7.71 2.7 2.7"/></g><g fill-rule="nonzero" fill="#66BFFF" opacity=".8"><path d="M230.5 77c-3.038 0-5.5-2.462-5.5-5.5s2.462-5.5 5.5-5.5 5.5 2.462 5.5 5.5-2.462 5.5-5.5 5.5zm0-1.015c2.477 0 4.485-2.008 4.485-4.485 0-2.477-2.008-4.485-4.485-4.485-2.477 0-4.485 2.008-4.485 4.485 0 2.477 2.008 4.485 4.485 4.485z"/><path d="M230 71v10h1V71"/><path d="M231.628 73.163l1.795-1.795-.707-.707-1.795 1.8m-.23 1.85l-2.7-2.7-.7.71 2.7 2.7"/></g><g fill-rule="nonzero" fill="#66BFFF" opacity=".8"><path d="M186.5 67c-3.038 0-5.5-2.462-5.5-5.5s2.462-5.5 5.5-5.5 5.5 2.462 5.5 5.5-2.462 5.5-5.5 5.5zm0-1.015c2.477 0 4.485-2.008 4.485-4.485 0-2.477-2.008-4.485-4.485-4.485-2.477 0-4.485 2.008-4.485 4.485 0 2.477 2.008 4.485 4.485 4.485z"/><path d="M186 61v10h1V61"/><path d="M187.628 63.163l1.795-1.795-.707-.707-1.795 1.8m-.23 1.85l-2.7-2.7-.7.71 2.7 2.7"/></g><g fill-rule="nonzero" fill="#66BFFF" opacity=".8"><path d="M45.5 98c-3.038 0-5.5-2.462-5.5-5.5s2.462-5.5 5.5-5.5 5.5 2.462 5.5 5.5-2.462 5.5-5.5 5.5zm0-1.015c2.477 0 4.485-2.008 4.485-4.485 0-2.477-2.008-4.485-4.485-4.485-2.477 0-4.485 2.008-4.485 4.485 0 2.477 2.008 4.485 4.485 4.485z"/><path d="M45 92v10h1V92"/><path d="M45.502 93.795L43.707 92l-.707.707 1.795 1.795m.912 1.904l2.7-2.7L47.7 93 45 95.7"/></g><g fill-rule="nonzero" fill="#66BFFF" opacity=".8"><path d="M244.5 51c-3.038 0-5.5-2.462-5.5-5.5s2.462-5.5 5.5-5.5 5.5 2.462 5.5 5.5-2.462 5.5-5.5 5.5zm0-1.015c2.477 0 4.485-2.008 4.485-4.485 0-2.477-2.008-4.485-4.485-4.485-2.477 0-4.485 2.008-4.485 4.485 0 2.477 2.008 4.485 4.485 4.485z"/><path d="M244 45v10h1V45"/><path d="M244.502 46.795L242.707 45l-.707.707 1.795 1.795m.912 1.904l2.7-2.7L246.7 46l-2.7 2.7"/></g><g fill-rule="nonzero" fill="#66BFFF" opacity=".8"><path d="M8.5 102C5.462 102 3 99.538 3 96.5S5.462 91 8.5 91s5.5 2.462 5.5 5.5-2.462 5.5-5.5 5.5zm0-1.015c2.477 0 4.485-2.008 4.485-4.485 0-2.477-2.008-4.485-4.485-4.485-2.477 0-4.485 2.008-4.485 4.485 0 2.477 2.008 4.485 4.485 4.485z"/><path d="M8 95v10h1V95m-1.057 2.264L6.15 95.47l-.708.706 1.794 1.795"/><path d="M8.89 99.834l2.698-2.7-.707-.706-2.7 2.7"/></g><g fill-rule="nonzero" fill="#66BFFF" opacity=".8"><path d="M197.5 56c-3.038 0-5.5-2.462-5.5-5.5s2.462-5.5 5.5-5.5 5.5 2.462 5.5 5.5-2.462 5.5-5.5 5.5zm0-1.015c2.477 0 4.485-2.008 4.485-4.485 0-2.477-2.008-4.485-4.485-4.485-2.477 0-4.485 2.008-4.485 4.485 0 2.477 2.008 4.485 4.485 4.485z"/><path d="M197 49v10h1V49m-1.057 2.264l-1.794-1.795-.71.7 1.79 1.79"/><path d="M197.89 53.834l2.698-2.7-.707-.706-2.7 2.7"/></g><g fill-rule="nonzero" fill="#66BFFF" opacity=".8"><path d="M33.5 103c-3.038 0-5.5-2.462-5.5-5.5s2.462-5.5 5.5-5.5 5.5 2.462 5.5 5.5-2.462 5.5-5.5 5.5zm0-1.015c2.477 0 4.485-2.008 4.485-4.485 0-2.477-2.008-4.485-4.485-4.485-2.477 0-4.485 2.008-4.485 4.485 0 2.477 2.008 4.485 4.485 4.485z"/><path d="M33 97v10h1V97"/><path d="M33.97 99.14l-1.81-1.795-.703.71 1.808 1.794m.637 1.84l2.7-2.7-.708-.71-2.7 2.7"/></g><g fill-rule="nonzero" fill="#66BFFF" opacity=".8"><path d="M256.5 60c-3.038 0-5.5-2.462-5.5-5.5s2.462-5.5 5.5-5.5 5.5 2.462 5.5 5.5-2.462 5.5-5.5 5.5zm0-1.015c2.477 0 4.485-2.008 4.485-4.485 0-2.477-2.008-4.485-4.485-4.485-2.477 0-4.485 2.008-4.485 4.485 0 2.477 2.008 4.485 4.485 4.485z"/><path d="M256 54v10h1V54"/><path d="M256.97 56.14l-1.81-1.795-.703.71 1.808 1.794m.637 1.84l2.7-2.7-.708-.71-2.7 2.7"/></g><g fill-rule="nonzero" fill="#66BFFF" opacity=".8"><path d="M211.5 48c-3.038 0-5.5-2.462-5.5-5.5s2.462-5.5 5.5-5.5 5.5 2.462 5.5 5.5-2.462 5.5-5.5 5.5zm0-1.015c2.477 0 4.485-2.008 4.485-4.485 0-2.477-2.008-4.485-4.485-4.485-2.477 0-4.485 2.008-4.485 4.485 0 2.477 2.008 4.485 4.485 4.485z"/><path d="M211 42v10h1V42"/><path d="M211.97 44.14l-1.81-1.795-.703.71 1.808 1.794m.637 1.84l2.7-2.7-.708-.71-2.7 2.7"/></g><g fill-rule="nonzero" fill="#66BFFF" opacity=".8"><path d="M42.5 119c-3.038 0-5.5-2.462-5.5-5.5s2.462-5.5 5.5-5.5 5.5 2.462 5.5 5.5-2.462 5.5-5.5 5.5zm0-1.015c2.477 0 4.485-2.008 4.485-4.485 0-2.477-2.008-4.485-4.485-4.485-2.477 0-4.485 2.008-4.485 4.485 0 2.477 2.008 4.485 4.485 4.485z"/><path d="M42 113v10h1v-10"/><path d="M42.902 115.195l-1.794-1.794-.708.71 1.795 1.8m.652 1.87l2.7-2.7-.708-.7-2.7 2.7"/></g><g fill-rule="nonzero" fill="#66BFFF" opacity=".8"><path d="M21.5 118c-3.038 0-5.5-2.462-5.5-5.5s2.462-5.5 5.5-5.5 5.5 2.462 5.5 5.5-2.462 5.5-5.5 5.5zm0-1.015c2.477 0 4.485-2.008 4.485-4.485 0-2.477-2.008-4.485-4.485-4.485-2.477 0-4.485 2.008-4.485 4.485 0 2.477 2.008 4.485 4.485 4.485z"/><path d="M21 112v10h1v-10"/><path d="M21.902 113.647l-1.794-1.794-.708.707 1.795 1.795m.652 1.863l2.7-2.7-.708-.706-2.7 2.7"/></g><g fill-rule="nonzero" fill="#66BFFF" opacity=".8"><path d="M210.5 81c-3.038 0-5.5-2.462-5.5-5.5s2.462-5.5 5.5-5.5 5.5 2.462 5.5 5.5-2.462 5.5-5.5 5.5zm0-1.015c2.477 0 4.485-2.008 4.485-4.485 0-2.477-2.008-4.485-4.485-4.485-2.477 0-4.485 2.008-4.485 4.485 0 2.477 2.008 4.485 4.485 4.485z"/><path d="M210 75v10h1V75"/><path d="M210.902 76.647l-1.794-1.794-.708.707 1.795 1.795m.652 1.863l2.7-2.7-.708-.706-2.7 2.7"/></g><g fill-rule="nonzero" fill="#66BFFF" opacity=".8"><path d="M209.5 101c-3.038 0-5.5-2.462-5.5-5.5s2.462-5.5 5.5-5.5 5.5 2.462 5.5 5.5-2.462 5.5-5.5 5.5zm0-1.015c2.477 0 4.485-2.008 4.485-4.485 0-2.477-2.008-4.485-4.485-4.485-2.477 0-4.485 2.008-4.485 4.485 0 2.477 2.008 4.485 4.485 4.485z"/><path d="M209 95v10h1V95"/><path d="M209.902 96.647l-1.794-1.794-.708.707 1.795 1.795m.652 1.863l2.7-2.7-.708-.706-2.7 2.7"/></g><g fill-rule="nonzero" fill="#66BFFF" opacity=".8"><path d="M197.5 91c-3.038 0-5.5-2.462-5.5-5.5s2.462-5.5 5.5-5.5 5.5 2.462 5.5 5.5-2.462 5.5-5.5 5.5zm0-1.015c2.477 0 4.485-2.008 4.485-4.485 0-2.477-2.008-4.485-4.485-4.485-2.477 0-4.485 2.008-4.485 4.485 0 2.477 2.008 4.485 4.485 4.485z"/><path d="M197 85v10h1V85"/><path d="M197.902 86.647l-1.794-1.794-.708.707 1.795 1.795m.652 1.863l2.7-2.7-.708-.706-2.7 2.7"/></g><path d="M114.534 133c1.123-.71 2.245-1.427 3.367-2.155l-.54-.836c-1.12.72-2.23 1.44-3.35 2.14l.54.84zm6.72-4.358c1.105-.735 2.21-1.48 3.315-2.233l-.57-.83c-1.1.75-2.21 1.49-3.31 2.22l.55.83zm6.6-4.5c1.088-.76 2.177-1.53 3.267-2.307l-.58-.81c-1.08.775-2.17 1.542-3.26 2.3l.58.817zm6.522-4.657c1.072-.782 2.145-1.573 3.22-2.374l-.597-.79c-1.08.8-2.15 1.59-3.22 2.37l.59.81zm6.41-4.773c1.056-.8 2.113-1.61 3.173-2.43l-.62-.79c-1.06.82-2.12 1.627-3.17 2.427l.6.79zm6.326-4.89c1.04-.818 2.083-1.646 3.13-2.484l-.625-.778c-1.045.836-2.086 1.663-3.124 2.48l.62.782zm6.243-4.993c1.026-.84 2.057-1.68 3.093-2.54l-.636-.77c-1.034.85-2.063 1.69-3.088 2.53l.63.77zm6.168-5.09c1.013-.85 2.032-1.71 3.06-2.58l-.647-.76c-1.025.86-2.043 1.72-3.055 2.57l.65.76zm6.097-5.16c1-.86 2.01-1.73 3.03-2.61l-.654-.76c-1.018.88-2.026 1.75-3.026 2.6l.65.76zm6.05-5.23c.99-.87 1.99-1.74 3.005-2.64l-.66-.75c-1.014.89-2.013 1.77-3.002 2.63l.658.75zm6.01-5.29c.978-.87 1.97-1.75 2.985-2.66l-.665-.74-2.987 2.65.664.74zm5.958-5.32c.96-.86 1.945-1.75 2.968-2.67l-.67-.74c-1.022.92-2.006 1.81-2.966 2.67l.668.74zm5.93-5.35c.924-.84 1.887-1.71 2.96-2.68l-.673-.74-2.96 2.68.672.73zm5.922-5.37l1.48-1.34 1.477-1.34-.672-.74-1.477 1.33-1.48 1.34.672.74zm5.908-5.36c1.048-.95 2.024-1.83 2.96-2.68l-.668-.74-2.963 2.68.67.74zm5.93-5.35c1.024-.92 2.01-1.81 2.973-2.67l-.66-.74c-.96.85-1.95 1.74-2.97 2.66l.67.74zm5.948-5.31c1.02-.91 2.015-1.79 2.99-2.64l-.66-.75c-.977.86-1.973 1.74-2.993 2.64l.663.75zm6.002-5.28c1.023-.89 2.028-1.76 3.018-2.61l-.652-.76c-.992.85-1.998 1.72-3.022 2.61l.656.75zm6.05-5.2c1.03-.88 2.047-1.73 3.052-2.57l-.64-.77c-1.007.84-2.026 1.69-3.06 2.57l.648.76zm6.107-5.1l.746-.61 2.36-1.91-.62-.78c-.78.63-1.55 1.25-2.36 1.92l-.74.61.64.77zm6.234-4.98c1.04-.81 2.09-1.61 3.16-2.41l-.6-.8c-1.08.8-2.14 1.61-3.18 2.42l.61.79zm6.38-4.77c1.07-.78 2.16-1.54 3.25-2.3l-.57-.82c-1.1.76-2.19 1.53-3.27 2.31l.58.81zm6.55-4.54c1.11-.74 2.22-1.46 3.34-2.17l-.54-.84c-1.13.71-2.25 1.44-3.36 2.18l.55.83zm6.73-4.27c1.14-.69 2.28-1.37 3.43-2.02l-.5-.87c-1.16.66-2.31 1.34-3.46 2.03l.51.85zm6.91-3.96c1.17-.64 2.35-1.25 3.52-1.85l-.45-.89c-1.19.6-2.37 1.22-3.55 1.86l.47.87zm7.1-3.6c1.21-.57 2.42-1.12 3.62-1.64l-.4-.92c-1.22.53-2.43 1.08-3.65 1.65l.42.9zm7.31-3.17c1.24-.49 2.49-.96 3.72-1.4l-.34-.94c-1.25.44-2.5.91-3.76 1.41l.36.92zm7.51-2.65c1.28-.4 2.55-.76 3.82-1.09l-.26-.97c-1.28.33-2.57.7-3.87 1.1l.29.95zm7.67-2.01c1.31-.28 2.61-.52 3.9-.73l-.15-.97c-1.31.2-2.63.45-3.96.73l.2.98zm7.83-1.24c1.33-.13 2.65-.23 3.95-.27l-.03-.99c-1.33.05-2.67.14-4.02.28l.1.99zm7.94-.29c1.33.04 2.64.12 3.95.25l.1-.99c-1.31-.11-2.66-.2-4.01-.24l-.03 1zm7.89.81c1.3.23 2.59.52 3.86.86l.26-.97c-1.3-.34-2.62-.63-3.95-.87l-.18.98zm7.64 2.03c1.24.44 2.46.94 3.66 1.48l.41-.91c-1.23-.56-2.48-1.07-3.74-1.52l-.34.94zm7.19 3.26c1.14.64 2.26 1.33 3.37 2.07l.55-.83c-1.13-.76-2.28-1.46-3.44-2.11l-.49.87zm6.57 4.39c1.02.81 2.03 1.66 3.02 2.56l.67-.74c-1.01-.92-2.03-1.78-3.08-2.6l-.62.78zm5.82 5.34c.86.96 1.67 1.99 2.43 3.08l.82-.56c-.78-1.13-1.62-2.198-2.51-3.19l-.75.663zm4.48 6.48c.61 1.15 1.15 2.346 1.64 3.576l.93-.365c-.5-1.26-1.06-2.49-1.69-3.676l-.89.465zm2.88 7.32c.35 1.26.63 2.546.84 3.84l.99-.16c-.22-1.33-.5-2.65-.86-3.944l-.96.26zm1.26 7.74c.07 1.31.08 2.624 0 3.934l1 .05c.07-1.35.07-2.7 0-4.046l-1 .056zm-.43 7.883c-.21 1.295-.5 2.576-.86 3.84l.96.27c.37-1.3.66-2.616.88-3.946l-.99-.168zm-2.18 7.617c-.5 1.21-1.07 2.39-1.7 3.546l.87.48c.65-1.19 1.24-2.4 1.75-3.64l-.93-.38zM347 60.65c-.74 1.064-1.55 2.1-2.428 3.1l.756.655c.897-1.03 1.727-2.09 2.49-3.18l-.82-.57zm-5.18 5.965c-.94.89-1.94 1.75-3 2.57l.62.79c1.08-.84 2.1-1.72 3.067-2.63l-.684-.726zm-6.24 4.89c-1.088.71-2.22 1.39-3.398 2.04l.482.873c1.2-.66 2.35-1.35 3.46-2.07l-.55-.836zm-6.97 3.83c-1.18.55-2.39 1.06-3.65 1.55l.36.93c1.273-.49 2.51-1.02 3.71-1.57l-.42-.9zm-7.407 2.88c-1.237.4-2.506.78-3.81 1.12l.26.97c1.316-.355 2.6-.73 3.853-1.14l-.3-.95zm-7.668 2.14c-1.19.32-2.435.654-3.86 1.05l.263.962c1.425-.39 2.666-.73 3.852-1.046l-.258-.97zm-7.716 2.11c-1.73.48-2.75.76-3.85 1.062l.26.96c1.1-.3 2.12-.58 3.85-1.06l-.27-.96zm-7.71 2.1c-1.356.36-2.63.69-3.86 1l.24.965c1.24-.31 2.52-.64 3.88-1l-.26-.96zm-7.74 1.935c-1.33.31-2.626.59-3.89.857l.2.974c1.28-.26 2.58-.55 3.92-.86l-.23-.97zm-7.806 1.61c-1.33.24-2.64.45-3.93.63l.14.99c1.3-.19 2.62-.4 3.96-.63l-.18-.99zm-7.89 1.12c-1.18.12-2.39.24-3.97.372l.08.99c1.59-.14 2.8-.256 3.98-.38l-.1-.996zm-7.96.72c-1.53.132-2.79.26-3.99.392l.11.99c1.19-.14 2.44-.26 3.96-.4l-.09-.99zm-7.97.93c-1.39.22-2.7.47-3.96.76l.22.97c1.24-.285 2.52-.53 3.89-.75l-.16-.986zm-7.87 1.84c-1.31.43-2.57.92-3.78 1.472l.42.9c1.18-.54 2.4-1.01 3.67-1.43l-.31-.95zm-7.36 3.386c-.81.5-1.59 1.04-2.36 1.61-.34.258-.66.51-.968.76l.64.77c.29-.25.6-.49.92-.73.74-.56 1.5-1.074 2.28-1.56l-.528-.85zm-6.22 5.25c-.91 1.09-1.67 2.24-2.27 3.42l.89.45c.562-1.11 1.28-2.2 2.14-3.23l-.77-.632zm-3.65 7.35c-.29 1.377-.37 2.76-.24 4.127l.99-.09c-.12-1.27-.04-2.558.22-3.84l-.98-.2zm.75 8.14c.52 1.26 1.22 2.45 2.1 3.55l.78-.62c-.82-1.03-1.48-2.14-1.967-3.31l-.92.38zm5.19 6.5c1.06.79 2.25 1.48 3.54 2.064l.41-.908c-1.23-.553-2.35-1.21-3.36-1.96l-.59.8zm7.22 3.365c1.29.35 2.613.62 3.98.8l.132-.99c-1.32-.18-2.606-.43-3.85-.77l-.266.96zm8.052 1.11c1.32.03 2.67-.01 4.04-.12l-.07-.99c-1.348.1-2.66.14-3.95.12l-.02 1zm8.055-.59c1.3-.2 2.62-.46 3.96-.76l-.22-.97c-1.32.3-2.615.55-3.89.75l.156.99zm7.86-1.77c1.26-.37 2.54-.77 3.833-1.21l-.32-.95c-1.276.44-2.54.84-3.784 1.2l.28.96zm7.603-2.59c1.227-.48 2.46-.98 3.716-1.52l-.4-.92c-1.24.53-2.465 1.04-3.68 1.51l.36.93zm7.4-3.17c1.19-.55 2.39-1.13 3.614-1.74l-.45-.89c-1.22.61-2.41 1.18-3.59 1.73l.42.9zm7.16-3.51c1.2-.59 2.394-1.17 3.59-1.73l-.43-.9c-1.2.57-2.4 1.15-3.6 1.74l.44.9zm7.215-3.38c1.22-.54 2.44-1.06 3.66-1.57l-.385-.92c-1.22.51-2.45 1.04-3.67 1.588l.405.91zm7.36-3.07c1.24-.483 2.48-.953 3.72-1.41l-.34-.932c-1.24.45-2.49.924-3.74 1.414l.37.93zM315 107c1.27-.43 2.53-.84 3.79-1.23l-.3-.95c-1.26.396-2.53.81-3.8 1.24l.32.944zm7.62-2.375c1.29-.37 2.57-.716 3.85-1.045l-.25-.97c-1.28.33-2.57.68-3.87 1.05l.28.96zm7.72-1.986c1.3-.3 2.6-.58 3.89-.84l-.19-.98c-1.3.26-2.61.54-3.92.84l.223.97zm7.8-1.57c1.32-.23 2.63-.43 3.93-.62l-.14-.988c-1.31.183-2.63.39-3.96.62l.17.98zm7.89-1.12c1.326-.15 2.646-.27 3.96-.38l-.08-.99c-1.324.102-2.654.23-3.99.38l.11.99zm7.94-.638c1.335-.067 2.66-.11 3.98-.13l-.015-1c-1.33.02-2.67.06-4.01.13l.05.994zm7.97-.127c1.335.02 2.66.07 3.97.14l.05-1c-1.322-.07-2.66-.113-4.004-.14l-.02 1zm7.96.42c1.33.12 2.65.26 3.955.426l.123-.99c-1.32-.17-2.65-.31-3.993-.43l-.087.99zm7.876 1c1.312.22 2.62.46 3.9.73l.2-.974c-1.3-.27-2.613-.517-3.944-.737l-.16.98zm7.77 1.61c1.293.33 2.57.68 3.83 1.05l.283-.95c-1.27-.375-2.57-.73-3.88-1.06l-.24.97zm7.62 2.27c1.26.44 2.5.91 3.715 1.4l.38-.927c-1.23-.493-2.49-.963-3.77-1.41l-.33.94zm7.38 2.98c1.214.56 2.4 1.15 3.55 1.77l.47-.88c-1.168-.62-2.37-1.22-3.6-1.79l-.42.902zm7.01 3.74c1.143.7 2.25 1.42 3.31 2.17l.574-.817c-1.08-.75-2.2-1.49-3.37-2.2l-.52.85zm6.49 4.573c1.04.86 2.03 1.73 2.96 2.62l.69-.72c-.95-.91-1.96-1.8-3.02-2.67l-.637.77zm5.69 5.49c.882 1.02 1.69 2.06 2.414 3.105l.826-.57c-.74-1.08-1.57-2.14-2.48-3.19l-.75.65z" fill="#F2E70A" fill-rule="nonzero"/><circle fill="#F2E70A" fill-rule="nonzero" opacity=".3" cx="259" cy="92" r="17"/><circle fill="#F2E70A" fill-rule="nonzero" opacity=".3" cx="259" cy="92" r="9"/><circle fill="#F2E70A" fill-rule="nonzero" cx="259" cy="92" r="4"/><circle fill="#F2E70A" cx="348.5" cy="98.5" r="2.5"/><path d="M4 61h58c.776 0 1-.224 1 0 0-.776-.224-1-1-1H4c-.776 0-1 .224-1 1 0-.224.224 0 1 0z" fill="#D0E4FB" fill-rule="nonzero"/><path d="M132 40.448c.328.452 1.73 1.047 3.955 1.746l.302-.96c-1.937-.607-3.306-1.19-3.442-1.376l-.815.59zm7.872 2.834c1.26.313 2.585.61 3.95.887l.2-.99c-1.35-.28-2.663-.57-3.907-.88l-.243.97zm7.93 1.607c1.335.21 2.676.39 4.013.55l.117-1c-1.323-.16-2.65-.34-3.97-.55l-.16.99zm8.056.93c1.37.09 2.723.15 4.05.18l.017-1.01c-1.31-.02-2.643-.08-3.997-.18l-.07 1zm8.11.12c1.396-.07 2.75-.18 4.055-.34l-.125-1c-1.28.16-2.606.27-3.976.33l.047 1zm8.1-1.04c1.385-.32 2.696-.7 3.93-1.15l-.348-.95c-1.19.43-2.46.8-3.805 1.11l.223.98zm7.672-2.88c1.236-.72 2.353-1.52 3.347-2.43l-.68-.74c-.94.86-1.997 1.62-3.17 2.3l.503.87zm6.06-5.64c.31-.49.596-.99.858-1.51-.024.04.112-.18.22-.37.18-.32.355-.68.52-1.07.105-.26.203-.51.29-.78l-.955-.32c-.08.24-.168.47-.265.7-.15.35-.308.67-.468.96-.09.16-.242.4-.243.4-.245.49-.513.96-.805 1.41l.847.54zm2.2-7.99c-.298-1.37-1.014-2.63-2.197-3.73l-.686.73c1.033.96 1.645 2.04 1.9 3.2l.983-.21zm-5.723-5.94c-1.134-.49-2.437-.92-3.917-1.27l-.232.98c1.424.33 2.67.74 3.748 1.2l.4-.93zm-7.936-1.98c-1.25-.16-2.6-.29-4.04-.37l-.05 1c1.42.08 2.74.2 3.98.35l.13-1zm-8.08-.49c-.9-.01-1.84 0-2.81.02l.02 1.01c.96-.03 1.89-.03 2.79-.03l.01-1.01z" fill="#F2E70A" fill-rule="nonzero"/><path fill="#D0E4FB" fill-rule="nonzero" d="M368 55h8v16h1V54h-10v21h7v-1h-6m11-4h9v-6h-9v6zm10-7v8h-11v-8h11z"/><path d="M373 74h21v-1h-21v1zm22-2v3h-23v-3h23z" fill="#D0E4FB" fill-rule="nonzero"/><path d="M375 72h17v-1h-17v1zm18-2v3h-19v-3h19z" fill="#D0E4FB" fill-rule="nonzero"/><path fill="#D0E4FB" fill-rule="nonzero" d="M376 70h-9v1h9m23-1h-9v1h9m-16-7v7h1v-7m-3 3v1h1v-1m3 0v1h1v-1m-19-15v2h1v-2"/><path d="M400 74l-1 1v-1h1zm-9-3h-1V54h10v21h-7v-1h6V55h-8v16z" fill="#D0E4FB" fill-rule="nonzero"/><path d="M393 60h4v-2h-4v2zm5-3v4h-6v-4h6z" fill="#D0E4FB" fill-rule="nonzero"/><path fill="#D0E4FB" fill-rule="nonzero" d="M395 61v-3h-1v3m-1 6h4v-2h-4v2zm5-3v4h-6v-4h6z"/><path fill="#D0E4FB" fill-rule="nonzero" d="M395 67v-3h-1v3m-24-7h4v-2h-4v2zm5-3v4h-6v-4h6z"/><path fill="#D0E4FB" fill-rule="nonzero" d="M372 61v-3h-1v3m-1 6h4v-2h-4v2zm5-3v4h-6v-4h6z"/><path fill="#D0E4FB" fill-rule="nonzero" d="M372 67v-3h-1v3m13-12v-3h-1v3"/><path d="M379 54h9v-2h-9v2zm10-3v4h-11v-4h11zm-5 10v-3h-1v3" fill="#D0E4FB" fill-rule="nonzero"/><path d="M379 60h9v-2h-9v2zm10-3v4h-11v-4h11zm10-5v2h1v-2" fill="#D0E4FB" fill-rule="nonzero"/><path d="M267.016 14.995c1.405-.022 2.727.028 3.967.147l.097-.986c-1.278-.122-2.638-.173-4.08-.15l.016.99zm7.87.813c1.36.35 2.576.81 3.654 1.37l.47-.875c-1.147-.597-2.437-1.083-3.87-1.453l-.254.958zm6.78 3.653c.914.94 1.62 2 2.123 3.16l.92-.39c-.55-1.26-1.33-2.42-2.33-3.45l-.73.69zm3.015 6.87c.09 1.29-.02 2.6-.32 3.8l.98.24c.32-1.3.45-2.7.35-4.09l-1 .07zm-1.87 7.11c-.21.24-.42.42-.62.55-.84.51-1.59 1.33-2.23 2.41l.87.5c.57-.95 1.21-1.65 1.89-2.06.3-.18.59-.42.86-.74l-.76-.64zm-4.35 6.78c-.31 1.28-.5 2.64-.54 4.03l1.01.03c.05-1.32.22-2.61.52-3.82l-.97-.23zm-.27 8.08c.23 1.36.61 2.67 1.12 3.92l.94-.37c-.49-1.17-.84-2.42-1.06-3.71l-.99.17zm3.19 7.56c.83 1.09 1.79 2.08 2.89 2.94l.63-.77c-1.03-.81-1.93-1.73-2.71-2.75l-.8.59zm6.38 5.05c1.2.55 2.5 1 3.9 1.33l.24-.96c-1.33-.32-2.57-.74-3.71-1.27l-.42.9zm7.97 1.98c.93.08 1.9.12 2.9.12h1.2v-.99h-1.19c-.97 0-1.9-.04-2.8-.11l-.09.99zm8.12.12h4.03v-.99h-4.03V63zm8.05 0h4.03v-.99h-4.03V63zm8.05 0h4.03v-.99h-4.02V63zm8.05 0h4v-.99h-4.02V63zm-199.37 60.9c1.05-.78 2.13-1.52 3.25-2.21l-.52-.84c-1.14.7-2.25 1.46-3.32 2.26l.6.79zm6.7-4.12c1.17-.58 2.37-1.11 3.6-1.59l-.36-.91c-1.25.49-2.48 1.04-3.68 1.63l.45.88zm7.33-2.87c1.25-.37 2.53-.69 3.82-.96l-.21-.96c-1.31.28-2.62.6-3.9.98l.29.95zm7.76-1.6c1.31-.16 2.62-.26 3.93-.31l-.04-.98c-1.34.05-2.68.16-4.01.32l.12.98zm7.85-.3c1.32.06 2.63.17 3.93.34l.13-.97c-1.33-.17-2.67-.29-4.02-.35l-.04.99zm7.84 1.03c1.3.29 2.57.63 3.8 1.04l.31-.94c-1.26-.41-2.56-.76-3.89-1.06l-.22.97zm7.53 2.45c1.22.54 2.39 1.13 3.51 1.78l.51-.85c-1.15-.66-2.35-1.27-3.6-1.82l-.41.9zm6.71 3.88c1.06.79 2.06 1.63 2.99 2.53l.7-.7c-.96-.92-1.99-1.79-3.08-2.6l-.6.79zm5.63 5.44c.81 1.02 1.54 2.09 2.19 3.21l.87-.49c-.67-1.16-1.43-2.27-2.26-3.33l-.78.61z" fill="#F2E70A" fill-rule="nonzero"/><path fill="#D0E4FB" d="M107 52h1v1h-1z"/><path d="M392 50.053v-1.42l-8.5-5.61-8.5 5.61v1.42h1v-.948l7.5-4.737 7.5 4.737v.948h1zM377 51h-3v-2.842L383.5 42l9.5 6.008V51h-3v-1.42l-6.5-4.065-6.5 4.064V51z" fill="#D0E4FB" fill-rule="nonzero"/><path fill="#D0E4FB" d="M376 50h1v4h-1zm14 0h1v4h-1z"/></g></svg>