<svg width="544" height="125" viewBox="0 0 544 125" xmlns="http://www.w3.org/2000/svg"><g fill="none" fill-rule="evenodd"><path d="M13 77H0v1h13v-1zm495-7h-13v1h13v-1zM57 108h13v-1H57v1zm24 0h7v-1h-7v1z" fill="#814FCC" fill-rule="nonzero"/><path fill="#FFCF10" fill-rule="nonzero" d="M74 108h1v-1h-1"/><path fill="#814FCC" fill-rule="nonzero" d="M216 38h-11v1h11"/><path d="M202 38h-1" stroke="#FFCF10"/><path d="M219 32h4v-1h-4v1zm-16 0h9v-1h-9v1z" fill="#814FCC" fill-rule="nonzero"/><path d="M214 32h1" stroke="#FFCF10"/><path fill="#814FCC" fill-rule="nonzero" d="M66 37h38v-1H66"/><path fill="#FFCF10" fill-rule="nonzero" d="M107 37h1v-1h-1"/><path d="M67 57h7v-1h-7v1zm-23 0h13v-1H44v1z" fill="#814FCC" fill-rule="nonzero"/><path fill="#FFCF10" fill-rule="nonzero" d="M60 57h1v-1h-1"/><path fill="#814FCC" fill-rule="nonzero" d="M84 57h13v-1H84"/><path fill="#FFCF10" fill-rule="nonzero" d="M101 57h1v-1h-1"/><path d="M65 63h13v-1H65v1zm23 0h7v-1h-7v1z" fill="#814FCC" fill-rule="nonzero"/><path fill="#FFCF10" fill-rule="nonzero" d="M81 63h1v-1h-1"/><path d="M133 120H99v1h34v-1zm-40 0H79v1h14v-1zm68 0h-20v1h20" fill="#814FCC" fill-rule="nonzero"/><path d="M137 120h-1v1h1v-1zm-100-6h1v-1h-1v1zm4 0h1v-1h-1v1z" fill="#FFCF10" fill-rule="nonzero"/><path d="M37 121h7v-1h-7v1zm-23 0h13v-1H14v1z" fill="#814FCC" fill-rule="nonzero"/><path fill="#FFCF10" fill-rule="nonzero" d="M30 121h1v-1h-1"/><path fill="#814FCC" fill-rule="nonzero" d="M53 121h13v-1H53"/><path fill="#FFCF10" fill-rule="nonzero" d="M71 121h1v-1h-1"/><path d="M54 113h-7v1h7v-1zm14 0h-7v1h7v-1zm-34 0H0v1h34v-1zm48 0H71v1h11v-1z" fill="#814FCC" fill-rule="nonzero"/><path fill="#FFCF10" fill-rule="nonzero" d="M58 113h-1v1h1"/><path d="M146 113h-13v1h13v-1zm-23 0h-7v1h7v-1z" fill="#814FCC" fill-rule="nonzero"/><path fill="#FFCF10" fill-rule="nonzero" d="M131 113h-1v1h1"/><path d="M74 44h4v-1h-4v1zm21 7h7v-1h-7v1z" fill="#814FCC" fill-rule="nonzero"/><path d="M90 51h1v-1h-1v1zm14-7h1v-1h-1v1zm-38 0h1v-1h-1v1z" fill="#FFCF10" fill-rule="nonzero"/><path d="M27 78h7v-1h-7v1zm5 6h13v-1H32v1z" fill="#814FCC" fill-rule="nonzero"/><path fill="#FFCF10" fill-rule="nonzero" d="M49 84h1v-1h-1"/><path d="M80 50H67v1h13v-1zm-23 0h-7v1h7v-1zm7 0h-1v1h1v-1zm28-6h6v-1h-6v1zM67 71h47v-1H67v1zm14 7h32v-1H81v1zm24 6h7v-1h-7v1zm20 7h7v-1h-7v1z" fill="#814FCC" fill-rule="nonzero"/><path fill="#FFCF10" fill-rule="nonzero" d="M121 91h1v-1h-1"/><path d="M120 78h20v-1h-20v1zm0-7h13v-1h-13v1z" fill="#814FCC" fill-rule="nonzero"/><path fill="#FFCF10" fill-rule="nonzero" d="M135 84h1v-1h-1"/><path fill="#814FCC" fill-rule="nonzero" d="M97 84h1v-1h-1"/><path fill="#FFCF10" fill-rule="nonzero" d="M137 71h1v-1h-1"/><path d="M111 90H91v1h20v-1zm-23 0h-7v1h7v-1zm-7 8h13v-1H81v1zm23 0h7v-1h-7v1z" fill="#814FCC" fill-rule="nonzero"/><path d="M97 98h1v-1h-1v1zm19-20h1v-1h-1v1z" fill="#FFCF10" fill-rule="nonzero"/><path fill="#814FCC" fill-rule="nonzero" d="M116 84h13v-1h-13m367-62h1v-2h-1v2zm2-3v4h-3v-4h3zm2 4h1v-4h-2v1h1m3 2h1v-2h-1v2zm2-3v4h-3v-4h3zm2 4h1v-4h-2v1h1m-377 89h1v-2h-1v2zm2-3v4h-3v-4h3zm2 4h1v-4h-2v1h1m3 2h1v-2h-1v2zm2-3v4h-3v-4h3zm3 4h1v-4h-2v1h1M48 15H35v1h13v-1zm-23 0h-7v1h7v-1z"/><path fill="#FFCF10" fill-rule="nonzero" d="M32 15h-1v1h1"/><path d="M18 10h1V8h-1v2zm2-3v4h-3V7h3zm2 4h1V7h-2v1h1m3 2h1V8h-1v2zm2-3v4h-3V7h3zm2 4h1V7h-2v1h1m458 19h7v-1h-7" fill="#814FCC" fill-rule="nonzero"/><path fill="#FFCF10" fill-rule="nonzero" d="M479 27h1v-1h-1"/><path d="M503 27h13v-1h-13v1zm17 0h1v-1h-1v1zm-36 6h13v-1h-13v1zm24 0h7v-1h-7v1z" fill="#814FCC" fill-rule="nonzero"/><path fill="#FFCF10" fill-rule="nonzero" d="M500 33h1v-1h-1"/><path d="M501 40h7v-1h-7v1zm-23 0h13v-1h-13v1z" fill="#814FCC" fill-rule="nonzero"/><path fill="#FFCF10" fill-rule="nonzero" d="M494 40h1v-1h-1"/><path d="M517 39h13v-1h-13v1zm17 0h1v-1h-1v1zm-36 6h13v-1h-13v1zm24 0h7v-1h-7v1zm-8 0h1v-1h-1v1zM75 25h7v-1h-7v1zm-24 0h13v-1H51v1z" fill="#814FCC" fill-rule="nonzero"/><path fill="#FFCF10" fill-rule="nonzero" d="M67 25h1v-1h-1"/><path fill="#814FCC" fill-rule="nonzero" d="M91 25h13v-1H91"/><path fill="#FFCF10" fill-rule="nonzero" d="M108 25h1v-1h-1"/><path d="M72 31h13v-1H72v1zm23 0h7v-1h-7v1z" fill="#814FCC" fill-rule="nonzero"/><path d="M88 31h1" stroke="#FFCF10"/><path d="M158 15h13v-1h-13v1zm24 0h7v-1h-7v1z" fill="#814FCC" fill-rule="nonzero"/><path fill="#FFCF10" fill-rule="nonzero" d="M175 15h1v-1h-1"/><path fill="#814FCC" fill-rule="nonzero" d="M285 122h13v-1h-13"/><path fill="#FFCF10" fill-rule="nonzero" d="M303 122h1v-1h-1"/><path d="M88 19h13v-1H88v1zm23 0h7v-1h-7v1z" fill="#814FCC" fill-rule="nonzero"/><path fill="#FFCF10" fill-rule="nonzero" d="M104 19h1v-1h-1"/><path d="M465 40h1v-2h-1v2zm2-3v4h-3v-4h3zm-5 4h1v-4h-2v1h1m7 3h1v-4h-2v1h1m57-9h1v-2h-1v2zm2-3v4h-3v-4h3zm2 4h1v-4h-2v1h1m3 2h1v-2h-1v2zm2-3v4h-3v-4h3zm-27 56h7v-1h-7v1zm16 0h13v-1h-13v1zm-19 6h13v-1h-13v1zm23 0h7v-1h-7v1z" fill="#814FCC" fill-rule="nonzero"/><path fill="#FFCF10" fill-rule="nonzero" d="M522 88h1v-1h-1"/><path fill="#814FCC" fill-rule="nonzero" d="M485 65h13v-1h-13"/><path fill="#FFCF10" fill-rule="nonzero" d="M501 65h1v-1h-1"/><path d="M487 60h1v-2h-1v2zm2-3v4h-3v-4h3zm2 4h1v-4h-2v1h1m3 2h1v-2h-1v2zm2-3v4h-3v-4h3zm-26-28h1v-4h-2v1h1M52 64h1v-2h-1v2zm2-3v4h-3v-4h3zm2 4h1v-4h-2v1h1m3 2h1v-2h-1v2zm2-3v4h-3v-4h3zm467 4h7v-1h-7v1zm-23 0h13v-1h-13v1z" fill="#814FCC" fill-rule="nonzero"/><path fill="#FFCF10" fill-rule="nonzero" d="M521 65h1v-1h-1"/><path d="M525 71h13v-1h-13v1zm9-20h4v-1h-4v1z" fill="#814FCC" fill-rule="nonzero"/><path fill="#FFCF10" fill-rule="nonzero" d="M527 51h1v-1h-1"/><path d="M540 57h-13v1h13v-1zm-23 0h-7v1h7v-1zm7 0h-1v1h1v-1zm-11 15h1v-2h-1v2zm2-3v4h-3v-4h3zm2 4h1v-4h-2v1h1m3 2h1v-2h-1v2zm2-3v4h-3v-4h3zM88 44h1v-2h-1v2zm2-3v4h-3v-4h3zm-9 3h1v-2h-1v2zm2-3v4h-3v-4h3zm2 4h1v-4h-2v1h1m381-8h1v-4h-2v1h1m3 2h1v-2h-1v2zm2-3v4h-3v-4h3zm2 4h1v-4h-2v1h1m3 2h1v-2h-1v2zm2-3v4h-3v-4h3zm2 4h1v-4h-2v1h1m-8-17h13v-1h-13v1zm23 0h7v-1h-7v1z" fill="#814FCC" fill-rule="nonzero"/><path fill="#FFCF10" fill-rule="nonzero" d="M489 14h1v-1h-1"/><path stroke="#814FCC" d="M154.172 28L157 25.172 159.828 28 157 30.828z"/><path d="M508.38 13.5l2.12 2.12 2.12-2.12-2.12-2.12-2.12 2.12zm5.656 0l-3.536 3.536-3.536-3.536 3.536-3.536 3.536 3.536zm-15.656 68l2.12 2.12 2.12-2.12-2.12-2.12-2.12 2.12zm5.656 0l-3.536 3.536-3.536-3.536 3.536-3.536 3.536 3.536z" fill="#814FCC" fill-rule="nonzero"/><path stroke="#814FCC" d="M88.172 114L91 111.172 93.828 114 91 116.828z"/><path d="M432.05 23.016c-1.97 3.112-2.616 5.412-1.517 6.47 1.097 1.06 3.48.437 6.706-1.46 3.74-2.33 7.19-5.05 10.29-8.12 3.17-2.982 6-6.31 8.4-9.912 1.97-3.122 2.62-5.422 1.52-6.48-1.1-1.06-3.48-.437-6.71 1.46l.52.842c2.82-1.66 4.85-2.19 5.46-1.606.6.583.05 2.54-1.67 5.26-2.36 3.53-5.14 6.8-8.27 9.738-3.06 3.026-6.45 5.7-10.12 7.983-2.82 1.66-4.85 2.19-5.45 1.6-.61-.58-.06-2.54 1.66-5.26l-.87-.51z" fill="#814FCC" fill-rule="nonzero"/><path d="M444 30c-7.732 0-14-6.044-14-13.5S436.268 3 444 3s14 6.044 14 13.5S451.732 30 444 30zm0-.984c7.17 0 12.984-5.604 12.984-12.516S451.17 3.984 444 3.984 431.016 9.588 431.016 16.5 436.83 29.016 444 29.016z" fill="#814FCC" fill-rule="nonzero"/><path d="M439.836 6.7c.697-.295 1.422-.52 2.164-.67L441.793 5c-.81.165-1.6.41-2.36.733l.403.968zM433.02 15c.618-2.96 2.358-5.562 4.853-7.26l-.583-.87c-2.72 1.85-4.616 4.688-5.29 7.914l1.02.216zM431 7v1h1V7h-1zm1 0h-1v1h1V7zm20 23v1h1v-1h-1zm1 0h-1v1h1v-1z" fill="#814FCC" fill-rule="nonzero"/><path d="M439 23c-1.328 0-2-.67-2-1 0-1.33.672-2 2-2 .328 0 1 .67 1 2 0 .33-.672 1-1 1zm-1-1c.55-.3.706-.458 1-1-.294.157-.45 0-1 0 .158 0 0 .157 0 0 0 .542.158.7 0 1z" fill="#FFCF10" fill-rule="nonzero"/><path d="M449 12c-1.328 0-2-.67-2-2 0-.33.672-1 2-1 .328 0 1 .67 1 1 0 1.33-.672 2-1 2zm-1-1c.55-.3.706-.458 1-1-.294.157-.45 0-1 0 .158 0 0 .157 0 0 0 .542.158.7 0 1z" fill="#814FCC" fill-rule="nonzero"/><path d="M439 15c-1.104 0-2-.895-2-2s.896-2 2-2 2 .895 2 2-.896 2-2 2zm0-1c.553 0 1-.448 1-1s-.447-1-1-1c-.553 0-1 .448-1 1s.447 1 1 1z" fill="#FFCF10" fill-rule="nonzero"/><path d="M225 17v7c-.022.727-.33 1.018-1 1h-22c-.676.014-.978-.276-1-1v-7h-1v7c.026 1.274.764 1.98 2 2h22c1.224-.01 1.974-.72 2-2v-7h-1z" fill="#814FCC" fill-rule="nonzero"/><path d="M203 21c0 1.136.895 2 2 2 .53 0 1.04-.204 1-1 .79.072 1-.418 1-1V11h-4v10zm2 3c-1.656 0-3-1.317-3-3V10h6v11c0 .837-.316 1.586-1 2-.442.69-1.205 1-2 1zm6-3c0 1.136.895 2 2 2s2-.864 2-2V11h-4v10zm2 3c-1.656 0-3-1.317-3-3V10h6v11c0 1.683-1.344 3-3 3zm6-3c0 1.136.895 2 2 2s2-.864 2-2V11h-4v10zm2 3c-1.656 0-3-1.317-3-3V10h6v11c0 1.683-1.344 3-3 3z" fill="#814FCC" fill-rule="nonzero"/><path d="M202 10h5V9h-5v1zm6-2v3h-7V8h7zm2 2h5V9h-5v1zm6-2v3h-7V8h7zm2 2h5V9h-5v1zm6-2v3h-7V8h7zm-22 10h5v-1h-5v1zm8-5h5v-1h-5v1zm8 2h5v-1h-5v1zm-14-3v2h1v-2h-1zm16-6v1h1V6h-1zM116 40c-1.01 0-2 .994-2 2v16c0 1.006.99 2 2 2h16c1.01 0 2-.994 2-2V42c0-1.006-.99-2-2-2h-16zm0-1h16c1.558 0 3 1.447 3 3v16c0 1.553-1.442 3-3 3h-16c-1.558 0-3-1.447-3-3V42c0-1.553 1.442-3 3-3zm21 5h2v-1h-2" fill="#814FCC" fill-rule="nonzero"/><path d="M136 43h-1v1h1v-1zm-2 2v-3h3v3h-3zm2 2h-1v1h1v-1zm-2 2v-3h3v3h-3zm2 2h-1v1h1v-1zm-2 2v-3h3v3h-3zm2 2h-1v1h1v-1zm-2 2v-3h3v3h-3z" fill="#814FCC" fill-rule="nonzero"/><path d="M137 48h2v-1h-2v1zm0 4h2v-1h-2v1zm0 4h2v-1h-2v1zm-2-3h2v-1h-2v1zm0 4h2v-1h-2v1zm-17-20v-2h-1v2h1zm-1 1v1h1v-1h-1zm2 2h-3v-3h3v3zm2-2v1h1v-1h-1zm2 2h-3v-3h3v3zm3-2v1h1v-1h-1zm2 2h-3v-3h3v3zm2-2v1h1v-1h-1zm2 2h-3v-3h3v3zm-10-3v-2h-1v2h1zm5 0v-2h-1v2h1zm4 0v-2h-1v2h1zm-14 26v2h1v-2h-1zm0-1h1v-1h-1v1zm2-2v3h-3v-3h3zm2 2h1v-1h-1v1zm2-2v3h-3v-3h3zm3 2h1v-1h-1v1zm2-2v3h-3v-3h3zm3 2v-1h-1v1h1zm-2-2h3v3h-3v-3zm-8 3v2h1v-2h-1zm5 0v2h1v-2h-1zm4 0v2h1v-2h-1zm-19-20h-2v1h2v-1zm1 1h1v-1h-1v1zm2-2v3h-3v-3h3zm-2 6h1v-1h-1v1zm2-2v3h-3v-3h3zm-2 6h1v-1h-1v1zm2-2v3h-3v-3h3zm-2 6h1v-1h-1v1zm2-2v3h-3v-3h3zm-3-7h-2v1h2v-1zm0 4h-2v1h2v-1zm0 4h-2v1h2v-1zm7-10c-1.328 0-2-.672-2-1 0-1.328.672-2 2-2 .328 0 1 .672 1 2 0 .328-.672 1-1 1zm0-1c-.224 0 0-.224 0 0 0-.776-.224-1 0-1-.776 0-1 .224-1 1 0-.224.224 0 1 0zm13 1c-1.328 0-2-.672-2-1 0-1.328.672-2 2-2 .328 0 1 .672 1 2 0 .328-.672 1-1 1zm0-1c-.224 0 0-.224 0 0 0-.776-.224-1 0-1-.776 0-1 .224-1 1 0-.224.224 0 1 0zm-13 14c-1.328 0-2-.67-2-2 0-.33.672-1 2-1 .328 0 1 .67 1 1 0 1.33-.672 2-1 2zm-1-1c.622-.206.8-.384 1-1-.2.178-.378 0-1 0 .18 0 0 .178 0 0 0 .616.18.794 0 1zm14 1c-1.328 0-2-.67-2-2 0-.33.672-1 2-1 .328 0 1 .67 1 1 0 1.33-.672 2-1 2zm-1-1c.622-.206.8-.384 1-1-.2.178-.378 0-1 0 .18 0 0 .178 0 0 0 .616.18.794 0 1zm391 64c-7.955 0-14-6.044-14-14 0-6.956 6.045-13 14-13 6.955 0 13 6.044 13 13 0 7.956-6.045 14-13 14zm0-1c6.404 0 12-5.597 12-13 0-6.403-5.596-12-12-12-7.404 0-13 5.597-13 12 0 7.403 5.596 13 13 13z" fill="#814FCC" fill-rule="nonzero"/><path d="M514 113h1c1.226.006 1.97.727 2 2v5h1v-5c0-1.83-1.205-3-3-3h-1v1z" fill="#814FCC" fill-rule="nonzero"/><path d="M513 114c-1.104 0-2-.895-2-2s.896-2 2-2 2 .895 2 2-.896 2-2 2zm0-1c.553 0 1-.448 1-1s-.447-1-1-1c-.553 0-1 .448-1 1s.447 1 1 1zm12 7v-8c.03-.8.206-1.21 1-2-.172.182.25.01 1 0h1v-1h-1c-1.022 0-1.707.277-2 1-.716.263-1 .932-1 2v8h1z" fill="#814FCC" fill-rule="nonzero"/><path d="M530 112c-1.104 0-2-.895-2-2s.896-2 2-2 2 .895 2 2-.896 2-2 2zm0-1c.553 0 1-.448 1-1s-.447-1-1-1c-.553 0-1 .448-1 1s.447 1 1 1z" fill="#FFCF10" fill-rule="nonzero"/><path d="M508 106h9c1.312-.01 2.02.7 2 2v12h1v-12c0-1.848-1.147-3-3-3h-9v1zm11-5h1c1.226.007 1.97.73 2 2v11h1v-11c0-1.828-1.205-3-3-3h-1v1z" fill="#814FCC" fill-rule="nonzero"/><path d="M517 103c-1.104 0-2-.895-2-2s.896-2 2-2 2 .895 2 2-.896 2-2 2zm0-1c.553 0 1-.448 1-1s-.447-1-1-1c-.553 0-1 .448-1 1s.447 1 1 1z" fill="#FFCF10" fill-rule="nonzero"/><path d="M525 95v6c0 1.823 1.197 3 3 3h1v-1h-1c-1.24-.01-1.976-.736-2-2v-6h-1zm6 11c-1.104 0-2-.895-2-2s.896-2 2-2 2 .895 2 2-.896 2-2 2zm0-1c.553 0 1-.448 1-1s-.447-1-1-1c-.553 0-1 .448-1 1s.447 1 1 1zM71.734 79.345L69.38 80.36l2.88 6.295 2.36-1.016-2.886-6.3zm0 8.655L68 79.838 72.26 78 76 86.163 71.733 88z" fill="#814FCC" fill-rule="nonzero"/><path fill="#814FCC" fill-rule="nonzero" d="M62.25 89.152l-1.643-3.66-.25-.557 9.065-4.005-.42-.93L59 84.42l.664 1.485 1.642 3.66.438.97.21.465L72 86.566l-.42-.93-9.105 4.018"/><path d="M70 82l-6.004 2.608M61.8 89.23L60 90" stroke="#814FCC"/><path fill="#814FCC" fill-rule="nonzero" d="M57.425 91.398l-.992-2.19-.1-.223L61 86.925 60.597 86 55 88.47l.52 1.155.99 2.192.332.73.205.453 1.815-.8-.403-.927-.91.402m-6.31-1.112l3.82-1.693-.37-.87-4.7 2.08L51.31 93 56 90.927l-.375-.87-3.84 1.7"/><circle stroke="#814FCC" cx="59.5" cy="91.5" r="1.5"/><path d="M58.408 92L53 102.562l.912.438 5.408-10.562-.912-.438zM66 102.562L60.585 92l-.912.438L65.09 103l.91-.438zm-10.82-5.117h8.634v-.985H55.18v.985z" fill="#814FCC" fill-rule="nonzero"/><path d="M62 78v1h1v-1h-1zm1 0h-1v1h1v-1zm12 12v1h1v-1h-1zm1 0h-1v1h1v-1z" fill="#FFCF10" fill-rule="nonzero"/><path d="M68 77v1h1v-1h-1zm1 0h-1v1h1v-1z" fill="#814FCC" fill-rule="nonzero"/><path d="M434.88 125c.17-.74.32-1.535.46-2.394.13-.804.173-1.09.438-2.987.154-1.11.252-1.77.367-2.44.03-.18.057-.35.1-.63.095-.63.114-.75.162-1.03.276-1.6.638-2.68 1.33-3.6.79-1.04 2.055-2.1 4.136-3.59.353-.25.704-.5 1.236-.87 3.52-2.47 4.67-3.37 5.4-4.45.68-1.02 1-2.86 1.47-7.42l.07-.71c.45-4.36.8-6.42 1.56-7.91.49-.96 1.67-1.6 3.95-2.37-.42.14 4.48-1.41 5.92-1.96 5.84-2.24 9.02-5.34 9.4-10.68.78-10.96-3.19-18.54-10.56-23.23-4.32-2.79-9.33-4.33-14.48-4.48-4-.16-8 .04-11.96.61l-.14-.99c4.01-.58 8.08-.78 12.13-.62 5.33.15 10.51 1.75 14.98 4.63 7.67 4.88 11.83 12.81 11.02 24.14-.42 5.8-3.88 9.17-10.05 11.53-1.47.56-6.41 2.12-5.96 1.97-2.03.68-3.06 1.24-3.38 1.87-.68 1.33-1.03 3.34-1.47 7.55l-.07.7c-.5 4.8-.82 6.65-1.64 7.87-.83 1.24-1.99 2.15-5.66 4.713-.53.37-.88.614-1.23.865-2 1.43-3.21 2.45-3.92 3.38-.58.76-.89 1.71-1.14 3.17l-.16 1.005c-.04.28-.07.46-.1.64-.11.67-.21 1.32-.36 2.41-.27 1.91-.31 2.2-.44 3.01-.13.798-.27 1.54-.42 2.238h-1.03zm-73.425 0c-.407-.308-.803-.655-1.198-1.045-5.184-5.118-3.72-12.433 1.89-19.447l.78.622c-5.33 6.667-6.69 13.454-1.967 18.116.754.744 1.52 1.318 2.374 1.754h-1.88zM148.51 94.642l-.51-.103.123-.51c.074-.3.145-.6.215-.9 2.14-9.16 2.544-17.45 1.948-30.7l-.024-.53h.53c9.99.11 19.286 6.41 23.953 15.84.24.49.362.73.488.98 1.102 2.17 2.024 3.24 3.372 3.56 1.454.35 2.62-.21 5.007-2.04l.144-.11c2.693-2.07 3.983-2.72 5.834-2.37 1.767.32 3.21 1.87 3.756 3.81.374 1.71.374 3.49.006 5.18-.567 3.65-1.474 7.24-2.71 10.73-2.205 6.27-5.224 11.06-9.432 14.14-6.887 5.05-15.706 4.94-20.913-.8-3.21-3.53-5.534-9.59-6.646-16.01-1.7.2-3.43.14-5.14-.21zm12.527 15.54c4.836 5.325 13.08 5.428 19.58.66 4.022-2.94 6.937-7.564 9.082-13.67 1.21-3.427 2.1-6.958 2.67-10.58.34-1.576.34-3.207 0-4.754-.45-1.57-1.61-2.82-2.97-3.07-1.46-.272-2.58.29-5.04 2.18l-.15.11c-2.63 2.015-3.99 2.663-5.85 2.22-1.72-.413-2.81-1.672-4.03-4.084-.13-.253-.25-.503-.49-.99-4.43-8.934-13.14-14.952-22.55-15.272.57 13.212.12 21.534-2.09 30.826 3.27.544 6.63.007 9.57-1.536l.46.883c-1.46.766-3.02 1.3-4.62 1.592 1.08 6.24 3.34 12.123 6.39 15.484zm109.07-89.65c-5.575-.965-11.3-.614-16.714 1.023-11.696 3.56-19.834 13.67-22.56 26.88l.98.2c2.656-12.87 10.55-22.68 21.87-26.125 5.265-1.592 10.832-1.933 16.254-.994l.17-.984zm-12.89 66.707c-.056.5-.384 3.17-.51 4.33 2.642.32 5.31.36 7.96.1l.097.99c-2.886.28-5.795.22-8.668-.17l-.463-.07.032-.47c.04-.57.495-4.27.56-4.84.495-4.44.696-8.28.488-11.99-.402-7.2-2.334-12.44-6.207-15.12-4.755-3.28-12.558-5.15-19.357-4.93-.81 14.06 2.05 29.2 7.91 43.36 2.62 6.38 8.66 13.14 14.84 16.65 5.99 3.3 13.19 3.63 19.46.89 1.25-.55 2.43-1.24 3.53-2.06 13.81-10.3 21.94-27.72 22.36-49.7l1 .02c-.43 22.28-8.7 39.99-22.77 50.48-1.16.86-2.41 1.58-3.73 2.17-6.56 2.86-14.09 2.51-20.36-.94-6.38-3.63-12.57-10.55-15.28-17.15-5.98-14.45-8.86-29.91-7.96-44.26l.02-.45.45-.02c7.1-.33 15.36 1.593 20.42 5.08 4.19 2.89 6.22 8.41 6.64 15.88.21 3.78.01 7.67-.5 12.16zm3.375-35.25l.818-.58c.666.94.594 2.22-.173 3.09-.766.86-2.028 1.09-3.055.56-1.028-.54-1.554-1.71-1.273-2.83.28-1.12 1.29-1.91 2.45-1.9l-.01 1c-.7-.01-1.31.46-1.48 1.14-.17.67.14 1.37.76 1.69.62.32 1.38.18 1.84-.34.46-.52.5-1.29.1-1.86z" fill="#D2BDD8" fill-rule="nonzero"/><path d="M381.18 94.33c.217-6.11-.538-11.28-2.716-14.696-3.376-5.014-9.72-7.126-15.444-5.148-.832.252-1.59.747-2.168 1.42-.568.923-.826 1.912-.79 2.913-.776 13.42 5.828 27.13 16.913 35.28 3.663 2.69 7.027 4.13 10.44 4.03 4.96-.13 9.41-3.63 12.433-8.85 1.775-3.16 3.143-6.53 4.075-10.02l-.963-.26c-.92 3.41-2.25 6.69-3.98 9.78-2.87 4.95-7.04 8.23-11.6 8.35-3.15.08-6.32-1.27-9.82-3.84-10.82-7.96-17.27-21.35-16.51-34.48-.03-.86.18-1.65.6-2.35.4-.47 1-.85 1.67-1.06 5.31-1.84 11.18.12 14.3 4.74 2.06 3.23 2.78 8.32 2.54 14.36 0 1.47 6.47 1.82 8.815-.02l-.617-.78c-1.035.81-2.73 1.14-4.64 1.04-.75-.04-1.483-.15-2.047-.3-.2-.06-.38-.11-.5-.16zm98.9 30.67h-1.02c-.398-2.107.172-4.522 1.43-6.604.908-1.512 1.837-2.596 4.054-4.905 1.1-1.14 1.602-1.68 2.187-2.37.69-.76 1.26-1.62 1.68-2.51.56-1.4.73-2.92.51-4.42-.17-1.45-.59-2.87-1.23-4.2-1.26-2.62-2.9-4.42-6.83-7.96l-.24-.22c-2.83-2.55-4.12-3.83-5.43-5.56-2.46-3.25-4.79-9.28-5.02-13.16l1-.06c.23 3.68 2.48 9.53 4.83 12.63 1.26 1.67 2.52 2.91 5.31 5.42l.24.22c4.03 3.63 5.73 5.49 7.07 8.28.69 1.43 1.13 2.95 1.32 4.5.25 1.66.05 3.36-.58 4.95-.47 1.02-1.09 1.96-1.83 2.78-.59.7-1.1 1.25-2.29 2.49-2.09 2.18-2.99 3.23-3.84 4.65-1.17 1.95-1.68 4.21-1.26 6.09zm-13.56-27.116c2.054.73 4.285.783 6.364.162-3.06-7.714-4.387-13.512-4.387-20.478h1c0 6.97 1.355 12.748 4.51 20.6l.194.48-.48.175c-2.43.863-5.09.863-7.52 0l.34-.94z" fill="#D2BDD8" fill-rule="nonzero"/><path d="M470 97.95c-.087 4.405-1.044 8.724-2.806 11.323-2.707 3.99-8.19 4.835-12.987 2.27-2.722-1.45-4.934-3.925-6.93-7.424l-.868.49c2.08 3.64 4.41 6.25 7.32 7.81 5.22 2.79 11.27 1.85 14.28-2.59 1.89-2.79 2.88-7.28 2.98-11.86l-1-.02zM358.433 25.917c12.226-10.87 29.613-13.91 44.85-7.84 15.233 6.068 25.673 20.192 26.928 36.43 1.26 16.24-6.89 31.778-21.01 40.08l.51.857c14.45-8.494 22.79-24.394 21.51-41.014-1.28-16.61-11.96-31.07-27.55-37.28-15.58-6.2-33.37-3.09-45.88 8.03l.67.744zm5.52 67.926c-9.75-6.187-16.585-15.997-18.975-27.23l-.977.206c2.45 11.49 9.44 21.53 19.42 27.86l.54-.84z" fill="#D2BDD8" fill-rule="nonzero"/><path d="M352.546 0c-2.603 5.705-7.626 10.74-14.735 15.522-1.98 1.335-4.06 2.61-6.49 4.005-1.27.732-5.14 2.894-5.6 3.158-8.94 5.06-12.62 14.058-9.75 23.828 1.16 3.962 3.84 9.268 6.9 13.244 3.93 5.097 8.19 7.81 12.42 7.144 1.81-.28 3.4-1.22 5.39-2.9 9.44-8.01 14.6-20.1 14.33-32.99l-.01-.45-.45-.03c-4.13-.33-8.2-1.19-12.11-2.55l-.32-.11-.22.26c-4.8 5.49-6.42 13.01-4.33 19.94-1.9.68-3.27.61-5.74-.1l-.28.97c2.86.82 4.46.84 6.83-.1l.44-.17-.14-.45c-2.16-6.61-.73-13.85 3.76-19.17 3.75 1.28 7.64 2.1 11.58 2.46.14 12.43-4.89 24.04-13.98 31.75-1.85 1.58-3.3 2.43-4.88 2.68-6.98 1.1-15.25-9.63-18.19-19.67-2.74-9.32.75-17.84 9.29-22.67.46-.26 4.33-2.42 5.61-3.16 2.45-1.4 4.55-2.69 6.55-4.04 7.42-5 12.65-10.29 15.28-16.36h-1.11z" fill="#D2BDD8"/><path d="M190.388 41.062c2.444-8.448-5.736-16.973-14.216-14.77l-.53.15c-5.95 1.862-7.693 9.248-4.552 15.352 1.8 3.474 4.62 6.596 8.086 9.15 5.643-1.69 9.815-4.995 11.212-9.882zM199.654 125c3.336-2.607 5.284-5.924 4.932-9.353-.28-2.655-2.3-4.973-4.55-4.973-.588-.008-1.086.118-2.137.488-1.16.405-1.66.543-2.34.576-2.17.094-3.29-2.088-3-5.117.29-3.06 1.93-6.43 4.58-8.96 1.9-1.83 3.35-4.6 4.57-8.23 4.25-12.66-1.04-27.18-15.83-33.51-2.47-1.06-4.79-2.36-6.9-3.87-.35-.25-.69-.5-1.03-.76-3.3-2.55-5.99-5.62-7.76-9.02-3.4-6.6-1.49-14.69 5.15-16.77 9.8-2.55 18.65 6.67 15.99 15.86-1.45 5.05-5.58 8.49-11.15 10.34-.4.13-.81.26-1.22.37-2.66.74-5.59 1.15-8.7 1.22-14.52.32-24.86-8.01-29.61-22.06-3.2-9.46-3.51-20.76-1.11-31.2h1.02c-2.41 10.31-2.13 21.52 1.03 30.87 4.61 13.65 14.59 21.69 28.64 21.38 2.73-.06 5.32-.38 7.69-.98.41-.1.81-.21 1.21-.33.33.25.68.49 1.03.73 1.87 1.28 3.92 2.4 6.07 3.32 15.29 6.55 20.79 21.62 16.38 34.75-1.27 3.77-2.78 6.66-4.83 8.64-2.47 2.36-4.01 5.51-4.28 8.34-.24 2.51.57 4.08 1.96 4.02.55-.03.99-.15 2-.5 1.21-.42 1.79-.57 2.53-.56 2.81 0 5.21 2.75 5.53 5.87.35 3.48-1.36 6.78-4.36 9.46h-1.57zm27.982 0h-1.004c.11-1.022.2-2.083.267-3.187.59-9.53-.22-17.212-2.99-34.21-.2-1.196-.3-1.824-.74-4.442-1.27-7.49-1.8-11.18-2.12-15.55-.25-3.37-.27-6.5-.04-9.49 1.81-23.92 15.28-40.57 37.64-44.17 15.59 7.21 27.14 17.92 34.19 32 6.65 13.28 10.47 28.58 12.28 46.78.13 1.39.24 2.55.45 4.98.18 2.13.25 2.95.36 4.08.81 8.71 1.9 14.37 4.16 19.79.5 1.2 1.08 2.35 1.73 3.46h-1.15c-.56-.98-1.06-2.01-1.5-3.07-2.31-5.52-3.41-11.27-4.24-20.07-.11-1.12-.18-1.95-.36-4.08-.21-2.42-.31-3.58-.45-4.96-1.81-18.08-5.59-33.27-12.19-46.42-6.93-13.83-18.25-24.36-33.29-31.43-21.79 3.57-34.88 19.8-36.66 43.24-.23 2.94-.2 6.02.04 9.35.31 4.33.84 7.99 2.1 15.46.44 2.62.55 3.25.74 4.45 2.77 17.07 3.59 24.81 2.99 34.44-.07 1.08-.16 2.12-.26 3.13zm119.936 0h-1.097c1.952-4.238 2.845-9.194 2.424-14.178-.7-7.567-4.19-14.607-9.8-19.754-14.93-13.8-22.17-21.357-28.63-31.136-8.75-13.226-12.05-26.296-8.92-39.99 1.94-8.506 6.38-14.957 13.21-19.942h1.73c-7.3 4.956-11.98 11.437-13.98 20.166-3.06 13.4.17 26.2 8.78 39.214 6.4 9.69 13.6 17.206 28.47 30.952 5.79 5.314 9.39 12.584 10.11 20.402.42 4.992-.43 9.962-2.33 14.266z" fill="#D2BDD8" fill-rule="nonzero"/></g></svg>