<?xml version="1.0" encoding="UTF-8" standalone="no"?>
<svg width="12px" height="12px" viewBox="0 0 12 12" version="1.1" xmlns="http://www.w3.org/2000/svg" xmlns:xlink="http://www.w3.org/1999/xlink" xmlns:sketch="http://www.bohemiancoding.com/sketch/ns">
    <!-- Generator: Sketch 3.5.1 (25234) - http://www.bohemiancoding.com/sketch -->
    <title>Page 1</title>
    <desc>Created with Sketch.</desc>
    <defs></defs>
    <g id="Interim-Designs" stroke="none" stroke-width="1" fill="none" fill-rule="evenodd" sketch:type="MSPage">
        <g id="Search-Copy-3" sketch:type="MSArtboardGroup" transform="translate(-1017.000000, -244.000000)" fill="#0077CC">
            <g id="Page-1" sketch:type="MSLayerGroup" transform="translate(1017.000000, 244.000000)">
                <path d="M6,10.5 C3.51866667,10.5 1.5,8.4815 1.5,6 C1.5,3.51866667 3.51866667,1.5 6,1.5 C8.48133333,1.5 10.5,3.51866667 10.5,6 C10.5,8.4815 8.48133333,10.5 6,10.5 M6,0 C2.68633333,0 0,2.68616667 0,6 C0,9.31383333 2.68633333,12 6,12 C9.31366667,12 12,9.31383333 12,6 C12,2.68616667 9.31366667,0 6,0" id="Fill-1" sketch:type="MSShapeGroup"></path>
                <path d="M8.91113333,7.34473333 L6.5378,5.74156667 L6.5378,2.98206667 C6.5378,2.91623333 6.51096667,2.85173333 6.46446667,2.80506667 C6.41796667,2.7584 6.35346667,2.73173333 6.28763333,2.73173333 L5.63113333,2.73173333 C5.56513333,2.73173333 5.50096667,2.7584 5.45446667,2.80506667 C5.4078,2.85173333 5.38113333,2.91623333 5.38113333,2.98206667 L5.38113333,6.24073333 C5.38113333,6.30656667 5.4078,6.37106667 5.45446667,6.41756667 C5.4733,6.43656667 5.49513333,6.45206667 5.5188,6.46406667 L8.28413333,8.3164 C8.3258,8.3439 8.37396667,8.35856667 8.4228,8.35856667 C8.44063333,8.35856667 8.4583,8.35656667 8.47596667,8.3529 C8.54213333,8.3389 8.5993,8.29856667 8.63546667,8.2409 L8.98346667,7.68423333 C9.05463333,7.57023333 9.02263333,7.4199 8.91113333,7.34473333" id="Fill-3" sketch:type="MSShapeGroup"></path>
            </g>
        </g>
    </g>
</svg>