<?xml version="1.0" encoding="utf-8"?>
<!-- Generator: Adobe Illustrator 19.1.0, SVG Export Plug-In . SVG Version: 6.00 Build 0)  -->
<svg version="1.1" id="Layer_1" xmlns="http://www.w3.org/2000/svg" xmlns:xlink="http://www.w3.org/1999/xlink" x="0px" y="0px"
	 viewBox="0 0 12 12" style="enable-background:new 0 0 12 12;" xml:space="preserve">
<style type="text/css">
	.st0{fill:#0077CC;}
	.st1{fill:#52575C;}
	.st2{fill:#65BB5C;}
	.st3{fill:#F78C75;}
	.st4{fill:#DCB000;}
	.st5{fill:#3A3D41;}
	.st6{fill:#FFCF10;}
	.st7{fill:#F23B14;}
	.st8{filter:url(#Adobe_OpacityMaskFilter);}
	.st9{fill:#FFFFFF;}
	.st10{mask:url(#mask-2_2_);fill:#65BB5C;}
	.st11{opacity:0.25;}
	.st12{fill:#B9BDC1;}
	.st13{fill:#D4D6D9;}
</style>
<g>
	<g>
		<path class="st5" d="M4,9.8C1.9,9.8,0.2,8.1,0.2,6S1.9,2.2,4,2.2v1.4C2.6,3.6,1.6,4.7,1.6,6S2.6,8.4,4,8.4S6.4,7.3,6.4,6
			c0-0.7-0.3-1.4-0.8-1.8l0.9-1C7.3,3.8,7.8,4.9,7.8,6C7.8,8.1,6.1,9.8,4,9.8z"/>
	</g>
	<path class="st5" d="M8,2.2C5.9,2.2,4.2,3.9,4.2,6c0,1.1,0.5,2.1,1.3,2.9l0.9-1C5.9,7.4,5.6,6.7,5.6,6c0-1.3,1.1-2.4,2.4-2.4
		c1.3,0,2.4,1.1,2.4,2.4S9.4,8.4,8,8.4v1.4c2.1,0,3.8-1.7,3.8-3.8C11.8,3.9,10.1,2.2,8,2.2z"/>
</g>
</svg>
