<?xml version="1.0" encoding="utf-8"?>
<!-- Generator: Adobe Illustrator 19.1.0, SVG Export Plug-In . SVG Version: 6.00 Build 0)  -->
<svg version="1.1" id="Layer_1" xmlns="http://www.w3.org/2000/svg" xmlns:xlink="http://www.w3.org/1999/xlink" x="0px" y="0px"
	 viewBox="0 0 12 12" style="enable-background:new 0 0 12 12;" xml:space="preserve">
<style type="text/css">
	.st0{fill:#0077CC;}
	.st1{fill:#52575C;}
	.st2{fill:#65BB5C;}
	.st3{fill:#F78C75;}
	.st4{fill:#DCB000;}
	.st5{fill:#3A3D41;}
	.st6{fill:#FFCF10;}
	.st7{fill:#F23B14;}
	.st8{filter:url(#Adobe_OpacityMaskFilter);}
	.st9{fill:#FFFFFF;}
	.st10{mask:url(#mask-2_2_);fill:#65BB5C;}
	.st11{opacity:0.25;}
	.st12{fill:#B9BDC1;}
	.st13{fill:#D4D6D9;}
	.st14{opacity:0.8;}
	.st15{fill:#9EA3A9;}
</style>
<path class="st9" d="M1.7,9.3L2.4,10l0.9-0.9L2.6,8.4L1.7,9.3z M5.5,11.3h1V9.8h-1V11.3z M2,5.3H0.5v1H2V5.3z M7.5,3.1V0.7h-3v2.4
	C3.6,3.7,3,4.6,3,5.8c0,1.7,1.4,3,3,3s3-1.4,3-3C9,4.6,8.4,3.7,7.5,3.1z M10,5.3v1h1.5v-1H10z M8.6,9.1L9.5,10l0.7-0.7L9.3,8.4
	L8.6,9.1z"/>
</svg>
