<?xml version="1.0" encoding="utf-8"?>
<!-- Generator: Adobe Illustrator 18.1.0, SVG Export Plug-In . SVG Version: 6.00 Build 0)  -->
<svg version="1.1" id="Layer_1" xmlns="http://www.w3.org/2000/svg" xmlns:xlink="http://www.w3.org/1999/xlink" x="0px" y="0px"
	 width="200px" height="200px" viewBox="-295 207 200 200" enable-background="new -295 207 200 200" xml:space="preserve">
<g id="Dev" display="none">
	<g display="inline">
		<g>
			<path fill="#858D93" d="M-115.9,343.2c-1.4,0-2.4,1.1-2.4,2.4c0,1.3,1.1,2.4,2.4,2.4c1.4,0,2.4-1.1,2.4-2.4
				C-113.4,344.2-114.5,343.2-115.9,343.2z M-115.9,346.5c-0.5,0-1-0.4-1-1c0-0.5,0.4-1,1-1c0.5,0,1,0.4,1,1
				S-115.3,346.5-115.9,346.5z M-92.9,343.2c-1.4,0-2.4,1.1-2.4,2.4c0,1.3,1.1,2.4,2.4,2.4c1.4,0,2.4-1.1,2.4-2.4
				C-90.4,344.2-91.5,343.2-92.9,343.2z M-92.9,346.5c-0.5,0-1-0.4-1-1c0-0.5,0.4-1,1-1s1,0.4,1,1S-92.3,346.5-92.9,346.5z
				 M-85.7,344.1V330h-25.7v4.4l-4.9,1.8v2.3l-4.1,1v0.4h-0.6v1.7h0.7l0.2,2.6h-1.2v1h2.1c0.2-1.6,1.7-2.9,3.4-2.9s3.1,1.3,3.4,2.9
				h16.2c0.2-1.6,1.7-2.9,3.4-2.9s3.1,1.3,3.4,2.9h5.1v-1h-1.4V344.1z M-111.4,338.7l-3.9-0.2v-1.8l3.9-1.4V338.7z"/>
		</g>
	</g>
	<g display="inline">
		<g>
			<path fill="#858D93" d="M-115.9,320.2c-1.4,0-2.4,1.1-2.4,2.4c0,1.3,1.1,2.4,2.4,2.4c1.4,0,2.4-1.1,2.4-2.4
				C-113.4,321.2-114.5,320.2-115.9,320.2z M-115.9,323.5c-0.5,0-1-0.4-1-1c0-0.5,0.4-1,1-1c0.5,0,1,0.4,1,1
				S-115.3,323.5-115.9,323.5z M-92.9,320.2c-1.4,0-2.4,1.1-2.4,2.4c0,1.3,1.1,2.4,2.4,2.4c1.4,0,2.4-1.1,2.4-2.4
				C-90.4,321.2-91.5,320.2-92.9,320.2z M-92.9,323.5c-0.5,0-1-0.4-1-1c0-0.5,0.4-1,1-1s1,0.4,1,1S-92.3,323.5-92.9,323.5z
				 M-92.4,312.5h-13.9v1h13.9V312.5z M-81.3,316.3v-1h-4.4v-1.8h1.2v-1h-1.2v-1.6h3.5v-1h-3.5V307h-25.7v4.4l-4.9,1.8v2.3l-4.1,1
				v0.4h-0.6v1.7h0.7l0.2,2.6h-1.2v1h2.1c0.2-1.6,1.7-2.9,3.4-2.9s3.1,1.3,3.4,2.9h16.2c0.2-1.6,1.7-2.9,3.4-2.9s3.1,1.3,3.4,2.9
				h5.1v-1h-1.3v-4.9H-81.3z M-111.4,315.7l-3.9-0.2v-1.8l3.9-1.4V315.7z M-86.7,309.9h-15.2v1h15.2v1.6h-3.5v1h3.5v1.8H-98v1h11.3
				v4.9h-2.1c-0.6-1.7-2.2-2.9-4.1-2.9s-3.5,1.2-4.1,2.9h-13.5V308h23.7v1.9H-86.7z"/>
		</g>
	</g>
	<polygon display="inline" fill="#FFFFFF" points="-85.4,333.9 -100.4,333.9 -99.4,332.9 -84.4,332.9 	"/>
	<polygon display="inline" fill="#FFFFFF" points="-86.2,337.5 -106.4,337.5 -105.4,336.5 -85.2,336.5 	"/>
	<polygon display="inline" fill="#858D93" points="-81.2,337.5 -86.2,337.5 -85.2,336.5 -80.2,336.5 	"/>
	<polygon display="inline" fill="#858D93" points="-83.2,333.9 -86.2,333.9 -85.2,332.9 -82.2,332.9 	"/>
</g>
<g id="Final">
	<g>
		<g>
			<polygon id="SVGID_1_" fill="#0096FF" points="-289,208.1 -292.5,211.2 -289,214.3 -290.2,215.4 -295,211.2 -290.2,207 			"/>
		</g>
		<g>
			<defs>
				<polygon id="SVGID_2_" points="-289,208.1 -292.5,211.2 -289,214.3 -290.2,215.4 -295,211.2 -290.2,207 				"/>
			</defs>
			<clipPath id="SVGID_3_">
				<use xlink:href="#SVGID_2_"  overflow="visible"/>
			</clipPath>
			<rect x="-300.4" y="201.6" clip-path="url(#SVGID_3_)" fill="#0096FF" width="16.8" height="19.3"/>
		</g>
	</g>
	<g>
		<path fill="#FF2D2D" d="M-244.4,271c-0.5,0-0.6-0.3-0.4-0.7l7.5-13c0.2-0.4,0.6-0.4,0.8,0l7.5,13c0.2,0.4,0,0.7-0.4,0.7H-244.4"/>
		<path fill="#FFFFFF" d="M-237.7,261.3h2l-0.3,5.2h-1.5L-237.7,261.3z M-236.7,267.3c0.6,0,1,0.4,1,1c0,0.5-0.4,1-1,1
			c-0.6,0-1-0.4-1-1C-237.8,267.8-237.3,267.3-236.7,267.3z"/>
	</g>
	<rect x="-1247" y="-848" fill="none" width="1240" height="1600"/>
	<rect x="-1247" y="-848" fill="none" width="1240" height="1600"/>
	<rect x="-1247" y="-848" fill="none" width="1240" height="1600"/>
	<rect x="-1247" y="-848" fill="none" width="1240" height="1600"/>
	<rect x="-1247" y="-848" fill="none" width="1240" height="1600"/>
	<rect x="-1247" y="-848" fill="none" width="1240" height="1600"/>
	<path fill="#0096FF" d="M-236.9,215h-7v-7h2v-1h-3v9h9v-3h-1V215z M-239.9,207v1h2.4l-3.8,3.8l0.7,0.7l3.8-3.8v2.3h1v-4H-239.9z"/>
	<polyline fill="#B2AEA2" points="-285.5,258.6 -287.2,257 -290.3,260 -293.3,257 -295,258.6 -291.9,261.7 -295,264.8 -293.3,266.4 
		-290.3,263.4 -287.2,266.4 -285.5,264.8 -288.6,261.7 -285.5,258.6 	"/>
	<g>
		<path fill="#858D93" d="M-186.8,367.1c0-2.2,1.2-4.1,2.9-5.1c0.6-2.9-1.5-4.9-3.4-4.9s-4.3,1.5-3.4,5c0.5,1.8,0.8,3.4,1.4,4.1
			c-0.8,2.2-5.6,2.2-5.6,4.7v1.3h10.7C-185.7,371-186.8,369.2-186.8,367.1z"/>
		<g>
			<g>
				<path fill="#F2F3F4" d="M-175.2,371.3l-2.2-2.2c0.4-0.6,0.6-1.3,0.6-2.1c0-2.2-1.8-4-4-4c-2.2,0-4,1.8-4,4s1.8,4,4,4
					c0.8,0,1.5-0.2,2.1-0.6l2.2,2.2c0.4,0.4,0.9,0.4,1.3,0C-174.9,372.3-174.9,371.7-175.2,371.3z M-180.8,369.1c-1.1,0-2-0.9-2-2
					s0.9-2,2-2s2,0.9,2,2S-179.7,369.1-180.8,369.1z"/>
			</g>
		</g>
	</g>
	<g>
		<path fill="#858D93" d="M-295,359.1v11h15v-11H-295z M-282,368.1h-11v-7h11V368.1z M-285,357.1h-5v1h5V357.1z"/>
		<polygon fill="#F2F3F4" points="-282,363.6 -287,363.6 -287,362.6 -288,362.6 -288,363.6 -293,363.6 -293,364.6 -288,364.6 
			-288,365.6 -287,365.6 -287,364.6 -282,364.6 		"/>
	</g>
	<g>
		<path fill="#858D93" d="M-244.9,357.1v19h15v-19H-244.9z M-230.9,375.1h-13v-17h13V375.1z M-238.9,366h-3v3h3V366z M-232.9,366h-5
			v1h5V366z M-233.9,368h-4v1h4V368z M-232.9,370h-9v1h9V370z M-236.9,372h-5v1h5V372z"/>
		<rect x="-241.9" y="360" fill="#F2F3F4" width="9" height="4"/>
	</g>
	<g>
		<g>
			<path fill="#0096FF" d="M-187.1,210.1l-0.9-0.2c0-0.1,0-0.1-0.1-0.2l0.5-0.8c0.1-0.1,0.1-0.3-0.1-0.4l-0.7-0.7
				c-0.1-0.1-0.3-0.1-0.5-0.1l-0.8,0.5c-0.1,0-0.1-0.1-0.2-0.1l-0.2-0.9c0-0.2-0.2-0.3-0.4-0.3h-1c-0.2,0-0.3,0.1-0.4,0.3l-0.2,0.9
				c-0.1,0-0.1,0-0.2,0.1l-0.8-0.5c-0.1-0.1-0.3-0.1-0.5,0.1l-0.4,0.7c-0.1,0.1-0.1,0.3-0.1,0.4l0.5,0.8c0,0.1-0.1,0.1-0.1,0.2
				l-0.9,0.2c-0.2,0-0.3,0.2-0.3,0.4v1c0,0.2,0.1,0.3,0.3,0.4l0.9,0.2c0,0.1,0,0.1,0.1,0.2l-0.5,0.7c-0.1,0.1-0.1,0.3,0.1,0.4
				l0.7,0.7c0.1,0.1,0.3,0.1,0.5,0.1l0.8-0.5c0.1,0,0.1,0.1,0.2,0.1l0.2,0.9c0,0.2,0.2,0.3,0.4,0.3h1c0.2,0,0.3-0.1,0.4-0.3l0.2-0.9
				c0.1,0,0.1,0,0.2-0.1l0.8,0.5c0.1,0.1,0.3,0.1,0.5-0.1l0.7-0.7c0.1-0.1,0.1-0.3,0.1-0.4l-0.7-0.8c0-0.1,0.1-0.1,0.1-0.2l0.9-0.2
				c0.2,0,0.3-0.2,0.3-0.4v-1C-186.8,210.3-186.9,210.1-187.1,210.1z M-190.8,211.9c-0.6,0-1-0.4-1-1c0-0.5,0.5-1,1-1
				c0.6,0,1,0.4,1,1C-189.8,211.5-190.3,211.9-190.8,211.9z"/>
		</g>
	</g>
	<path fill="#858D93" d="M-284.5,322.3l1.7,1.7l1.7-1.7c-0.4-0.4-1-0.7-1.7-0.7C-283.4,321.5-284,321.8-284.5,322.3z M-287.9,318.8
		l1.7,1.7c0.9-0.9,2.1-1.4,3.4-1.4c1.3,0,2.6,0.5,3.4,1.4l1.7-1.7c-1.3-1.3-3.1-2.1-5.1-2.1S-286.6,317.5-287.9,318.8z
		 M-291.3,315.4l1.7,1.7c1.8-1.8,4.2-2.8,6.9-2.8c2.7,0,5.1,1.1,6.9,2.8l1.7-1.7c-2.2-2.2-5.2-3.6-8.6-3.6
		C-286.1,311.8-289.1,313.2-291.3,315.4z M-282.8,307c-4.7,0-8.9,1.9-12,5l1.7,1.7c2.6-2.6,6.3-4.3,10.3-4.3s7.7,1.6,10.3,4.3
		l1.7-1.7C-273.8,308.9-278.1,307-282.8,307z"/>
	<g>
		<g>
			<path fill="#858D93" d="M-239.4,321c-1.4,0-2.5,1.1-2.5,2.5s1.1,2.5,2.5,2.5c1.4,0,2.5-1.1,2.5-2.5S-238,321-239.4,321z
				 M-239.5,324.5c-0.6,0-1-0.4-1-1s0.4-1,1-1s1,0.4,1,1S-238.9,324.5-239.5,324.5z M-216.5,321c-1.4,0-2.5,1.1-2.5,2.5
				s1.1,2.5,2.5,2.5s2.5-1.1,2.5-2.5S-215.1,321-216.5,321z M-216.5,324.5c-0.6,0-1-0.4-1-1s0.4-1,1-1s1,0.4,1,1
				S-216,324.5-216.5,324.5z M-206.3,316l1-1h-4.1v-2h1l1-1h-2v-5h-25.7v4.9l-4.9,1.8v2.3l-3.1,0.9l-0.8,3.9h-1v2h2.1
				c0.2-1.6,1.7-2.8,3.4-2.8c1.7,0,3.1,1.2,3.4,2.8h16.2c0.2-1.6,1.7-2.8,3.4-2.8c1.7,0,3.1,1.2,3.4,2.8h5.1v-1h-1.3V316H-206.3z
				 M-235.1,316.1l-3.9-0.2v-1.7l3.9-1.4V316.1z M-210.3,312h-14.8l-1,1h15.8v2h-12.8l-1,1h13.8v5.8h-2.1c-0.6-1.7-2.2-2.8-4.1-2.8
				c-1.9,0-3.5,1.1-4.1,2.8h-13.5V308h23.7L-210.3,312L-210.3,312z"/>
		</g>
	</g>
	<path fill="#FFFFFF" d="M-177.7,257.1l0.9,0.8c-5.6,4.1-10.8,13.2-10.8,13.2l-7.2-7l4.4-0.8l2.8,2.3
		C-187.7,265.6-184,260-177.7,257.1z"/>
	<path fill="#FFFFFF" d="M-125.3,223.6l-5.2-5.2c0.6-1.1,1-2.4,1-3.8c0-4.2-3.4-7.6-7.6-7.6c-4.2,0-7.6,3.4-7.6,7.6
		c0,4.2,3.4,7.6,7.6,7.6c1.4,0,2.7-0.4,3.8-1l5.2,5.2c0.4,0.4,0.9,0.6,1.4,0.6s1-0.2,1.4-0.6C-124.5,225.6-124.5,224.4-125.3,223.6z
		 M-140.7,214.6c0-2,1.6-3.7,3.7-3.7c2,0,3.7,1.6,3.7,3.7c0,1-0.4,1.8-1,2.5c0,0-0.1,0-0.1,0.1l-0.1,0.1c-0.7,0.6-1.5,1-2.5,1
		C-139.1,218.3-140.7,216.6-140.7,214.6z"/>
</g>
<g id="Labels" display="none">
	
		<text transform="matrix(1 0 0 1 -351.97 215.4361)" display="inline" fill="#858D93" font-family="'HelveticaNeueLTStd-Roman'" font-size="12">UI Icons</text>
	
		<text transform="matrix(1 0 0 1 -295.0002 203.0804)" display="inline" fill="#858D93" font-family="'HelveticaNeueLTStd-Roman'" font-size="6">Back</text>
	
		<text transform="matrix(1 0 0 1 -295.0002 252.4137)" display="inline" fill="#858D93" font-family="'HelveticaNeueLTStd-Roman'" font-size="6">Close</text>
	
		<text transform="matrix(1 0 0 1 -295.0002 303.7503)" display="inline" fill="#858D93" font-family="'HelveticaNeueLTStd-Roman'" font-size="6">Remote</text>
	
		<text transform="matrix(1 0 0 1 -295.0002 346.1252)" display="inline" fill="#858D93" font-family="'HelveticaNeueLTStd-Roman'" font-size="6">Job </text>
	
		<text transform="matrix(1 0 0 1 -295.0002 353.3252)" display="inline" fill="#858D93" font-family="'HelveticaNeueLTStd-Roman'" font-size="6">Campaigns</text>
	
		<text transform="matrix(1 0 0 1 -244.9134 346.1252)" display="inline" fill="#858D93" font-family="'HelveticaNeueLTStd-Roman'" font-size="6">Company </text>
	
		<text transform="matrix(1 0 0 1 -244.9134 353.3252)" display="inline" fill="#858D93" font-family="'HelveticaNeueLTStd-Roman'" font-size="6">Profile</text>
	
		<text transform="matrix(1 0 0 1 -194.8107 346.1252)" display="inline" fill="#858D93" font-family="'HelveticaNeueLTStd-Roman'" font-size="6">Candidate </text>
	
		<text transform="matrix(1 0 0 1 -194.8107 353.3252)" display="inline" fill="#858D93" font-family="'HelveticaNeueLTStd-Roman'" font-size="6">Search</text>
	
		<text transform="matrix(1 0 0 1 -244.9132 303.7503)" display="inline" fill="#858D93" font-family="'HelveticaNeueLTStd-Roman'" font-size="6">Relocation</text>
	
		<text transform="matrix(1 0 0 1 -244.9131 252.4137)" display="inline" fill="#858D93" font-family="'HelveticaNeueLTStd-Roman'" font-size="6">Warning</text>
	
		<text transform="matrix(1 0 0 1 -194.811 252.4137)" display="inline" fill="#858D93" font-family="'HelveticaNeueLTStd-Roman'" font-size="6">Checkmark</text>
	
		<text transform="matrix(1 0 0 1 -244.9129 203.0804)" display="inline" fill="#858D93" font-family="'HelveticaNeueLTStd-Roman'" font-size="6">Outbound Link</text>
	
		<text transform="matrix(1 0 0 1 -194.8109 203.0804)" display="inline" fill="#858D93" font-family="'HelveticaNeueLTStd-Roman'" font-size="6">Settings (Small)</text>
	
		<text transform="matrix(1 0 0 1 -392.4456 320.1636)" display="inline" fill="#858D93" font-family="'HelveticaNeueLTStd-Roman'" font-size="12">Job Campaigns</text>
	
		<text transform="matrix(1 0 0 1 -358.4261 367.9914)" display="inline" fill="#858D93" font-family="'HelveticaNeueLTStd-Roman'" font-size="12">Employer </text>
	
		<text transform="matrix(1 0 0 1 -354.4261 382.3914)" display="inline" fill="#858D93" font-family="'HelveticaNeueLTStd-Roman'" font-size="12">Sections</text>
</g>
<path fill="#FFFFFF" d="M-135.7,262.6V261h-2v1.6H-135.7z M-135.7,269v-4.8h-2v4.8H-135.7z"/>
</svg>
