<svg xmlns="http://www.w3.org/2000/svg" viewBox="1 3 23 20">
  <g fill="#B9BDC1" fill-rule="evenodd" transform="translate(1 3)">
    <circle cx="4.8" cy="6.2" r="1.9"/>
    <path d="M13.8 11.9l1.9-7.1c1.1.4 1.8.9 1.7 1.3.1-.5 1.3-.5 2.7-.1 1.4.4 2.4 1 2.2 1.5.8-2.7-2-5.8-6-7-4.1-1.1-8 .2-8.8 2.9.3-.4 1.5-.4 2.8-.1 1.4.4 2.4 1 2.2 1.5.1-.4 1-.5 2.2-.3l-2 7.2h-1.1c-5.6 0-10.3 2.8-11 6.4.4.5 1.8 1 3.6 1 2 0 3.7-.6 3.7-1.2 0 .7 1.7 1.2 3.7 1.2s3.7-.6 3.7-1.2c0 .7 1.7 1.2 3.7 1.2 1.8 0 3.2-.4 3.6-1-.6-3-4.2-5.6-8.8-6.2z"/>
  </g>
</svg>