<svg xmlns="http://www.w3.org/2000/svg" viewBox="4 0 18 25">
  <g fill="#B9BDC1" fill-rule="evenodd" transform="translate(4)">
    <path d="M15.9 16.6c.3 0 .7-.1.9-.4.5-.5.5-1.3 0-1.9l-3.9-3.9c-.3-.3-1.5-1.1-2.5-1.5-.1-.1-.8-.2-1-.2H8c-.2 0-.9.2-1 .2-.9.4-2.1 1.1-2.5 1.5L.6 14.3c-.5.5-.5 1.3 0 1.9.3.3.6.4.9.4.3 0 .7-.1.9-.4l3-3v3.4h6.5v-3.4l3.1 3c.3.3.6.4.9.4z"/>
    <circle cx="8.7" cy="4.2" r="3.3"/>
    <path d="M1.9 19.6c-.5.5-.5 1.3 0 1.9l2.6 2.6c.3.3.6.4.9.4.3 0 .7-.1.9-.4.5-.5.5-1.3 0-1.9l-1.7-1.7.8-.8v-3.2c-.3 0-.7.1-.9.4l-2.6 2.7zm10.8.9L11 22.2c-.5.5-.5 1.3 0 1.9.3.3.6.4.9.4.3 0 .7-.1.9-.4l2.6-2.6c.5-.5.5-1.3 0-1.9L12.9 17c-.3-.3-.6-.4-.9-.4v3.2l.7.7z"/>
  </g>
</svg>