<svg xmlns="http://www.w3.org/2000/svg" viewBox="0 4 25 17">
  <g fill="#B9BDC1" fill-rule="evenodd">
    <path d="M9.2 5.6c0-.6-.6-1.1-1.2-1.1H6.8c-.6 0-1.2.5-1.2 1.1v1.2c0-.6-.5-1.2-1.2-1.2-.6 0-1.2.5-1.2 1.2v4.7H.9v2.3h2.3v4.7c0 .6.5 1.2 1.2 1.2.6 0 1.2-.5 1.2-1.2v1.2c0 .6.5 1.2 1.2 1.2H8c.6 0 1.2-.5 1.2-1.2v-5.9H15v-2.3H9.2V5.6zM24.4 11.5h-2.3V6.8c0-.6-.5-1.2-1.2-1.2-.6 0-1.2.5-1.2 1.2V5.6c0-.6-.5-1.2-1.2-1.2h-1.2c-.6 0-1.2.5-1.2 1.2v14.1c0 .6.5 1.2 1.2 1.2h1.2c.6 0 1.2-.5 1.2-1.2v-1.2c0 .6.5 1.2 1.2 1.2.6 0 1.2-.5 1.2-1.2v-4.7h2.3v-2.3z"/>
  </g>
</svg>