<svg xmlns="http://www.w3.org/2000/svg" viewBox="2 2 22 22">
  <g fill="#B9BDC1" fill-rule="evenodd">
    <path d="M15 5.7h-1.2V2.2h-1.2v3.5h-1.2V2.2h-1.2v5.2c0 .9.5 1.8 1.2 2.3v11.7c0 1 .8 1.7 1.7 1.7.9 0 1.7-.8 1.7-1.7V9.7c.7-.5 1.2-1.4 1.2-2.3V2.2h-1v3.5zM5.1 2.2c-1.6 0-2.9 1.3-2.9 2.9v2.3c0 .9.5 1.8 1.2 2.3v11.7c0 1 .8 1.7 1.7 1.7.9 0 1.7-.8 1.7-1.7V9.7C7.6 9.2 8 8.4 8 7.4V5.1c0-1.6-1.3-2.9-2.9-2.9zM21.4 2.2c-1.6 0-2.9 1.3-2.9 2.9v5.8c0 .9.5 1.8 1.2 2.3v8.2c0 1 .8 1.7 1.7 1.7 1 0 1.7-.8 1.7-1.7V2.8c-.4-.4-1-.6-1.7-.6z"/>
  </g>
</svg>