<svg xmlns="http://www.w3.org/2000/svg" viewBox="2 1 22 24">
  <g fill="#B9BDC1" fill-rule="evenodd" transform="translate(2 1)">
    <path d="M16.5 11.7H12V9.1h2.6c1.4 0 2.6-1.2 2.6-2.6V2.6C17.2 1.1 16 0 14.6 0H6.8C5.3 0 4.2 1.1 4.2 2.6v3.9c0 1.4 1.2 2.6 2.6 2.6h2.6v2.6H4.8c-1.1 0-1.9.9-1.9 1.9 0 1 .9 1.9 1.9 1.9h4.5v3.9H2.9v1.3h15.6v-1.3H12v-3.9h4.5c1.1 0 1.9-.9 1.9-1.9 0-1-.8-1.9-1.9-1.9z"/>
    <circle cx="2.9" cy="22.1" r="1.3"/>
    <circle cx="18.5" cy="22.1" r="1.3"/>
    <path d="M19.8 7.8h-1.3v5.8h1.3V9.1c.7 0 1.3-.6 1.3-1.3h-1.3zm-18.2 0H.3c0 .7.6 1.3 1.3 1.3v4.5h1.3V7.8H1.6z"/>
  </g>
</svg>