<svg xmlns="http://www.w3.org/2000/svg" viewBox="1 2 23 22">
  <g fill="#B9BDC1" fill-rule="evenodd">
    <path d="M10.7 6.7L12.3 5l1.5 1.5V2H9.3l1.5 1.5-2.2 2.1c-.5-.1-1-.2-1.5-.2C4 5.4 1.5 7.9 1.5 11c0 2.7 1.9 5 4.5 5.5v2.4H3.7v2.2h2.2v2.2h2.2v-2.2h2.2v-2.2H8.2v-2.4c2.6-.5 4.5-2.8 4.5-5.5 0-1.7-.8-3.3-2-4.3zm-3.6 7.7c-1.9 0-3.4-1.5-3.4-3.4s1.5-3.4 3.4-3.4 3.4 1.5 3.4 3.4-1.6 3.4-3.4 3.4z"/>
    <path d="M23.9 6.5V2h-4.5l1.5 1.5-2 2c-.2 0-.4-.1-.6-.1-3.1 0-5.6 2.5-5.6 5.6 0 2.7 1.9 5 4.5 5.5v2.4H15v2.2h2.2v2.2h2.2v-2.2h2.2v-2.2h-2.2v-2.4c2.6-.5 4.5-2.8 4.5-5.5 0-2-1.1-3.8-2.7-4.8L22.5 5l1.4 1.5zm-5.6 7.9c-1.9 0-3.4-1.5-3.4-3.4s1.5-3.4 3.4-3.4 3.4 1.5 3.4 3.4-1.5 3.4-3.4 3.4z"/>
  </g>
</svg>