<svg xmlns="http://www.w3.org/2000/svg" viewBox="1 1 24 23">
  <g fill="#B9BDC1" fill-rule="evenodd">
    <path d="M17.6 12.5H1.2C1.2 18.8 6.3 24 12.7 24c6.3 0 11.5-5.1 11.5-11.5h-6.6zM23.6 8.5c.6-.4.7-1.2.3-1.8-.4-.6-1.2-.7-1.8-.3l-7.2 4.9h4.6l4.1-2.8zM7.6 9c0 .9.5 1.8 1.3 2.2V8c.8-.4 1.3-1.3 1.3-2.2 0-.9-.5-1.8-1.3-2.2V1.4c-.8.4-1.3 1.2-1.3 2.2 0 .9.5 1.8 1.3 2.2v1.1c-.8.4-1.3 1.2-1.3 2.1zM12.7 10V6.7c.8-.4 1.3-1.3 1.3-2.2 0-.9-.5-1.8-1.3-2.2v3.3c-.8.4-1.3 1.3-1.3 2.2 0 .9.5 1.7 1.3 2.2z"/>
  </g>
</svg>