<svg xmlns="http://www.w3.org/2000/svg" viewBox="0 0 393 285"><g fill="none"><circle cx="198" cy="142.5" r="142.5" fill="#F4F8FB"/><path fill="#FFF" stroke="#BBC0C4" d="M196.8 165.2v-9.3c-.1-3.7-3.1-6.7-6.9-6.6h-26.4c-4.9 0-8.9-3.9-9-8.8v-3.1c.1-4.9 4.1-8.8 9-8.8h66.9c3.7.1 6.8-2.7 6.9-6.4.1-3.7-2.7-6.8-6.4-6.9h-25.2c-4.9 0-8.9-3.9-9-8.8v-2.4h3.8v2.4c0 2.8 2.4 5.1 5.2 5.1h24.7c5.7-.3 10.5 4.2 10.8 9.9.3 5.7-4.2 10.5-9.9 10.8h-67.8c-2.8 0-5.2 2.2-5.2 5.1v3.1c0 2.8 2.4 5.1 5.2 5.1h26.4c5.8-.1 10.6 4.5 10.7 10.3v9.3"/><path fill="#FFF" stroke="#BBC0C4" d="M329.8 261H65.3v-96.1h264.6V261z"/><path fill="#FFB935" d="M32 63.5h338v43.1H32z"/><path fill="#FFF" stroke="#BBC0C4" d="M28 40.2h338V55H28z"/><circle cx="36.8" cy="49.1" r="3.4" fill="#E4E6E8"/><circle cx="46.4" cy="49.1" r="3.4" fill="#E4E6E8"/><circle cx="56" cy="49.1" r="3.4" fill="#E4E6E8"/><circle cx="35.8" cy="47.9" r="3.4" stroke="#BBC0C4"/><circle cx="45.4" cy="47.9" r="3.4" stroke="#BBC0C4"/><circle cx="55" cy="47.9" r="3.4" stroke="#BBC0C4"/><path fill="#E4E6E8" d="M93.1 187.5H75.3v-12.2h17.8zm45.2 0h-17.8v-12.2h17.8zm22.6 0h-17.8v-12.2h17.8zm22.6 0h-17.8v-12.2h17.8zm22.6 0h-17.8v-12.2h17.8zm22.4 0h-17.6v-12.2h17.8v12.2zm22.7 0h-17.8v-12.2h17.8zm29.8 0h-17.8v-12.2H281zm21.4 0h-17.8v-12.2h17.8zm21.6 0h-17.7v-12.2H324zM93.1 208.7H75.3v-16.9h17.8zm45.2 0h-17.8v-16.9h17.8zm22.6 0h-17.8v-16.9h17.8zm22.6 0h-17.8v-16.9h17.8zm22.6 0h-17.8v-16.9h17.8zm22.4 0h-17.6v-16.9h17.8v16.9zm22.7 0h-17.8v-16.9h17.8zm29.8 0h-17.8v-16.9H281zm21.4 0h-17.8v-16.9h17.8zm21.6 0h-17.7v-16.9H324zM93.1 231.4H75.3v-16.9h17.8zm45.2 0h-17.8v-16.9h17.8zm22.6 0h-17.8v-16.9h17.8zm22.6 0h-17.8v-16.9h17.8zm22.6 0h-17.8v-16.9h17.8zm22.4 0h-17.6v-16.9h17.8v16.9zm22.7 0h-17.8v-16.9h17.8zm29.8 0h-17.8v-16.9H281zm21.4 0h-17.8v-16.9h17.8zM324 254h-17.7v-39.5H324zm-217.5.3H76v-16.9h30.5zm112.4 0H111v-16.9h107.9zm31.8 0h-27.2v-16.9h27.2zm50.8 0h-37.2v-16.9h37.2z"/><path stroke="#BBC0C4" d="M90.9 185.4H73.2v-12.2H91zm45.2 0h-17.8v-12.2h17.8zm22.6 0H141v-12.2h17.8zm22.6 0h-17.8v-12.2h17.8zm22.6 0h-17.8v-12.2h17.8zm22.5 0h-17.6v-12.2h17.8v12.2zm22.7 0h-17.8v-12.2h17.8zm29.7 0H261v-12.2h17.8zm21.5 0h-17.8v-12.2h17.8zm21.6 0h-17.8v-12.2h17.8zm-231 21.2H73.2v-16.9H91zm45.2 0h-17.8v-16.9h17.8zm22.6 0H141v-16.9h17.8zm22.6 0h-17.8v-16.9h17.8zm22.6 0h-17.8v-16.9h17.8zm22.5 0h-17.6v-16.9h17.8v16.9zm22.7 0h-17.8v-16.9h17.8zm29.7 0H261v-16.9h17.8zm21.5 0h-17.8v-16.9h17.8zm21.6 0h-17.8v-16.9h17.8zm-231 22.6H73.2v-16.9H91zm45.2 0h-17.8v-16.9h17.8zm22.6 0H141v-16.9h17.8zm22.6 0h-17.8v-16.9h17.8zm22.6 0h-17.8v-16.9h17.8zm22.5 0h-17.6v-16.9h17.8v16.9zm22.7 0h-17.8v-16.9h17.8zm29.7 0H261v-16.9h17.8zm21.5 0h-17.8v-16.9h17.8zm21.6 22.7h-17.8v-39.5h17.8zm-217.5.2H73.9v-16.9h30.5zm112.4 0H108.9v-16.9h107.9zm31.8 0h-27.2v-16.9h27.2zm50.8 0h-37.2v-16.9h37.2z"/><path stroke="#F17F21" d="M28 60h338v43.1H28z"/><path fill="#FFF" d="M45.4 86.9c-.1-.1-.1-.1-.1-.2v-1c0-.1 0-.2.1-.2.1-.1.1-.1.2-.1h1.1v-4.8h-1.2c-.1 0-.2 0-.2-.1-.1-.1-.1-.1-.1-.2v-1c0-.1 0-.2.1-.2.1-.1.1-.1.2-.1h2.2c.2 0 .3.1.4.2.1.1.2.3.2.4v.5l.8-.6c.3-.2.5-.4.7-.5.2-.1.4-.1.7-.1h.4c.1 0 .2 0 .2.1s.1.1.1.2v1.1c0 .1 0 .2-.1.2s-.1.1-.2.1h-.4c-.2 0-.5 0-.6.1-.1.1-.4.3-.8.6l-.8.6v3.5h1.4c.1 0 .2 0 .2.1.1.1.1.1.1.2v1c0 .1 0 .2-.1.2 0 .1-.1.1-.2.1h-4.1c-.1 0-.1 0-.2-.1zm8.6-.4c-.5-.3-.9-.7-1.2-1.2-.3-.5-.4-1.1-.4-1.7v-1.5c0-.6.1-1.2.4-1.7.3-.5.7-.9 1.2-1.2.5-.3 1.1-.4 1.7-.4.6 0 1.2.1 1.7.4.5.3.9.7 1.2 1.2.3.5.4 1.1.4 1.7v.9c0 .2-.1.3-.2.4-.1.1-.3.2-.4.2H54v.1c0 .5.2.8.5 1.2.3.3.7.5 1.2.5h2.2c.1 0 .2 0 .2.1.1.1.1.1.1.2v1c0 .1 0 .2-.1.2s-.1.1-.2.1h-2.2c-.6 0-1.1-.2-1.7-.5zm3.4-4.3V82c0-.5-.2-.8-.5-1.2-.3-.3-.7-.5-1.2-.5s-.8.2-1.2.5c-.3.3-.5.7-.5 1.2v.1h3.4v.1zm4.8 4.1c-.5-.4-.7-1-.7-1.8v-4h-1c-.1 0-.2 0-.2-.1-.1-.1-.1-.1-.1-.2v-1c0-.1 0-.2.1-.2.1-.1.1-.1.2-.1h1v-1.5c0-.1 0-.2.1-.2s.1-.1.2-.1h1.1c.1 0 .2 0 .2.1.1.1.1.1.1.2V79h2.4c.1 0 .2 0 .2.1.1.1.1.1.1.2v1c0 .1 0 .2-.1.2-.1.1-.1.1-.2.1h-2.4v3.9c0 .3.1.5.2.7.2.2.4.3.7.3h1.5c.1 0 .2 0 .2.1.1.1.1.1.1.2v1c0 .1 0 .2-.1.2H64c-.7 0-1.3-.2-1.8-.7zm6.7.5c-.4-.3-.8-.6-1-1-.2-.4-.4-1-.4-1.5v-5c0-.1 0-.2.1-.2.1-.1.1-.1.2-.1h1.1c.1 0 .2 0 .2.1.1.1.1.1.1.2V84c0 .5.1.9.4 1.1.3.3.6.4 1.1.4.6 0 1-.2 1.3-.5.3-.3.5-.9.5-1.5v-4.3c0-.1 0-.2.1-.2.1-.1.1-.1.2-.1h1.1c.1 0 .2 0 .2.1.1.1.1.1.1.2v7.4c0 .1 0 .2-.1.2s-.2.2-.3.2h-1.1c-.1 0-.2 0-.2-.1-.1-.1-.1-.1-.1-.2V86c-.3.4-.6.6-.9.8-.4.2-.8.3-1.2.3-.5.1-1-.1-1.4-.3zm7.1.1c-.1-.1-.1-.1-.1-.2v-1c0-.1 0-.2.1-.2.1-.1.1-.1.2-.1h1.1v-4.8h-1.2c-.1 0-.2 0-.2-.1-.1-.1-.1-.1-.1-.2v-1c0-.1 0-.2.1-.2 0-.1.1-.1.2-.1h2.2c.2 0 .3.1.4.2.1.1.2.3.2.4v.5l.8-.6c.3-.2.5-.4.7-.5.2-.1.4-.1.7-.1h.4c.1 0 .2 0 .2.1s.1.1.1.2v1.1c0 .1 0 .2-.1.2s-.1.1-.2.1h-.4c-.2 0-.5 0-.6.1-.1.1-.4.3-.8.6l-.8.6v3.5h1.4c.1 0 .2 0 .2.1.1.1.1.1.1.2v1c0 .1 0 .2-.1.2-.1.1-.1.1-.2.1h-4.1c-.1 0-.2 0-.2-.1zm7.4 0c-.1-.1-.1-.1-.1-.2v-7.4c0-.1 0-.2.1-.2.1-.1.1-.1.2-.1h1.1c.1 0 .2 0 .2.1.1.1.1.1.1.2v.7c.3-.4.6-.6.9-.8.4-.2.8-.3 1.2-.3.5 0 1 .1 1.4.4.4.3.8.6 1 1 .2.4.4 1 .4 1.5v5c0 .1 0 .2-.1.2s-.1.1-.2.1h-1.1c-.1 0-.2 0-.2-.1-.1-.1-.1-.1-.1-.2V82c0-.5-.1-.9-.4-1.1-.3-.3-.6-.4-1.1-.4-.6 0-1 .2-1.3.5-.3.4-.5.9-.5 1.5v4.3c0 .1 0 .2-.1.2s-.1.1-.2.1h-1.1c0-.1-.1-.1-.1-.2zm13.1 0c-.5-.2-.9-.4-1.4-.7l-.1-.1v-.2l.5-.9c.1-.1.1-.2.3-.2.1 0 .1 0 .2.1.7.4 1.4.7 2 .7.5 0 .9-.1 1.2-.4.3-.3.4-.5.4-.9 0-.3-.1-.5-.2-.6-.1-.2-.3-.3-.6-.4-.2-.1-.6-.3-1-.4l-.4-.2c-.6-.3-1.2-.6-1.6-1-.4-.4-.7-1-.7-1.8 0-.6.1-1.1.4-1.5.3-.4.6-.8 1.1-1 .5-.2 1-.4 1.6-.4.5 0 1 .1 1.5.2.5.2.9.4 1.3.7l.1.1v.2l-.5.9c-.1.1-.1.2-.3.2-.1 0-.1 0-.2-.1-.4-.2-.7-.4-1-.5-.3-.1-.6-.2-.9-.2-.4 0-.8.1-1 .3-.2.2-.4.5-.4.9s.1.7.4.9c.3.2.7.5 1.3.7.1 0 .4.2 1 .4s1 .6 1.3 1c.3.4.5 1 .5 1.6 0 .6-.1 1.1-.4 1.5-.3.5-.7.8-1.2 1.1-.5.3-1.1.4-1.7.4-.5-.1-1-.2-1.5-.4zm7.8-.6c-.5-.4-.7-1-.7-1.8v-4h-1c-.1 0-.2 0-.2-.1-.1-.1-.1-.1-.1-.2v-1c0-.1 0-.2.1-.2.1-.1.1-.1.2-.1h1v-1.5c0-.1 0-.2.1-.2s.1-.1.2-.1h1.1c.1 0 .2 0 .2.1.1.1.1.1.1.2V79h2.4c.1 0 .2 0 .2.1.1.1.1.1.1.2v1c0 .1 0 .2-.1.2-.1.1-.1.1-.2.1h-2.4v3.9c0 .3.1.5.2.7.2.2.4.3.7.3h1.5c.1 0 .2 0 .2.1.1.1.1.1.1.2v1c0 .1 0 .2-.1.2-.1.1-.1.1-.2.1h-1.6c-.7-.1-1.3-.3-1.8-.8zm5.8.2c-.5-.4-.7-1-.7-1.7 0-.6.2-1.2.7-1.6.4-.4 1.1-.7 1.9-.8.2 0 .4 0 .6-.1.7-.1 1-.1 1.2-.2.3-.1.5-.3.5-.6s-.1-.6-.4-.8c-.3-.2-.6-.3-1.1-.3a2 2 0 0 0-1.7.8c-.1.1-.2.2-.3.2-.1 0-.1 0-.2-.1l-.8-.5c-.1-.1-.1-.1-.1-.2v-.1c.3-.5.7-.9 1.2-1.2.5-.3 1.1-.4 1.8-.4.6 0 1.2.1 1.6.4.4.3.8.6 1.1 1 .3.4.4.9.4 1.5v5.1c0 .1 0 .2-.1.2s-.1.1-.2.1h-1c-.1 0-.2 0-.2-.1-.1-.1-.1-.1-.1-.2v-.5c-.6.7-1.4 1-2.3 1-.7-.2-1.3-.4-1.8-.9zm3.1-1.1c.3-.2.6-.4.8-.7.2-.3.3-.6.3-1v-.3l-1 .2c-.6.1-.9.1-1.1.2-.8.1-1.1.5-1.1 1 0 .3.1.5.3.7.2.2.5.3.9.3.2-.1.6-.2.9-.4zm6.1 1.3c-.5-.3-.9-.7-1.2-1.2-.3-.5-.4-1.1-.4-1.7v-1.7c0-.6.1-1.2.4-1.7.3-.5.7-.9 1.2-1.2.5-.3 1.1-.4 1.7-.4.5 0 .9.1 1.3.3.4.2.8.5 1.1.8.1.1.1.1.1.2s0 .2-.1.3l-.6.6c-.1.1-.1.1-.2.1s-.2 0-.2-.1c-.4-.4-.8-.5-1.4-.5-.5 0-.8.2-1.2.5-.3.3-.5.7-.5 1.2V84c0 .5.2.8.5 1.2.3.3.7.5 1.2.5s1-.2 1.4-.5c.1-.1.2-.1.2-.1s.2 0 .2.1l.6.6c.1.1.1.2.1.3 0 .1 0 .2-.1.2-.3.3-.7.6-1.1.8-.4.2-.9.3-1.3.3-.6-.2-1.2-.4-1.7-.7zm6 .2c-.1-.1-.1-.1-.1-.2V76.6c0-.1 0-.2.1-.2.1-.1.1-.1.2-.1h1.1c.1 0 .2 0 .2.1.1.1.1.1.1.2v5.3h.5l2.5-2.7c.1-.1.2-.2.4-.2h1.3c.1 0 .2 0 .2.1.1.1.1.1.1.2s0 .1-.1.2l-3 3.1 3.2 4c0 .1.1.1.1.2s0 .1-.1.2c0 0-.1.1-.2.1h-1.2c-.2 0-.3-.1-.4-.2l-2.7-3.4h-.5v3.3c0 .1 0 .2-.1.2s-.1.1-.2.1h-1.1c-.2-.1-.2-.1-.3-.2zm9.8-.2c-.6-.3-1-.8-1.4-1.3-.3-.6-.5-1.2-.5-1.9v-3c0-.7.2-1.3.5-1.9.3-.6.8-1 1.4-1.3.6-.3 1.2-.5 1.9-.5s1.3.2 1.9.5c.6.3 1 .8 1.4 1.3.3.6.5 1.2.5 1.9v3c0 .7-.2 1.3-.5 1.9-.3.6-.8 1-1.4 1.3-.6.3-1.2.5-1.9.5s-1.3-.2-1.9-.5zm2.9-1.4c.3-.2.6-.4.7-.8.1-.4.3-.7.3-1v-3c0-.4-.1-.7-.3-1-.2-.3-.4-.6-.7-.8-.3-.2-.6-.3-1-.3s-.7.1-1 .3c-.3.2-.6.4-.7.8-.1.4-.3.7-.3 1v3c0 .4.1.7.3 1 .2.3.4.6.7.8.3.2.6.3 1 .3l1-.3zm7.1 1.8c-.2 0-.4-.1-.4-.3l-2.6-7.4v-.1c0-.1 0-.2.1-.2.1-.1.1-.1.3-.1h1c.1 0 .2 0 .3.1l.2.2 1.9 5.6 1.9-5.6c0-.1.1-.2.2-.2.1-.1.2-.1.3-.1h.9c.1 0 .2 0 .3.1.1.1.1.1.1.2v.1l-2.6 7.4c0 .1-.1.2-.2.2-.1.1-.2.1-.3.1h-1.4zm6.9-.6c-.5-.3-.9-.7-1.2-1.2-.3-.5-.4-1.1-.4-1.7v-1.5c0-.6.1-1.2.4-1.7.3-.5.7-.9 1.2-1.2.5-.3 1.1-.4 1.7-.4.6 0 1.2.1 1.7.4.5.3.9.7 1.2 1.2.3.5.4 1.1.4 1.7v.9c0 .2-.1.3-.2.4-.1.1-.3.2-.4.2H152v.1c0 .5.2.8.5 1.2.3.3.7.5 1.2.5h2.2c.1 0 .2 0 .2.1.1.1.1.1.1.2v1c0 .1 0 .2-.1.2s-.1.1-.2.1h-2.2c-.7 0-1.2-.2-1.7-.5zm3.3-4.3V82c0-.5-.2-.8-.5-1.2-.3-.3-.7-.5-1.2-.5s-.8.2-1.2.5c-.3.3-.5.7-.5 1.2v.1h3.4v.1zm3.2 4.7c-.1-.1-.1-.1-.1-.2v-1c0-.1 0-.2.1-.2.1-.1.1-.1.2-.1h1.1v-4.8h-1.2c-.1 0-.2 0-.2-.1-.1-.1-.1-.1-.1-.2v-1c0-.1 0-.2.1-.2.1-.1.1-.1.2-.1h2.2c.2 0 .3.1.4.2.1.1.2.3.2.4v.5l.8-.6c.3-.2.5-.4.7-.5.2-.1.4-.1.7-.1h.4c.1 0 .2 0 .2.1s.1.1.1.2v1.1c0 .1 0 .2-.1.2s-.1.1-.2.1h-.4c-.2 0-.5 0-.6.1-.1.1-.4.3-.8.6l-.8.6v3.5h1.4c.1 0 .2 0 .2.1.1.1.1.1.1.2v1c0 .1 0 .2-.1.2-.1.1-.1.1-.2.1h-4.1c-.1 0-.1 0-.2-.1zm8.5 0c-.1-.1-.1-.1-.1-.2v-6.2h-1.1c-.1 0-.2 0-.2-.1-.1-.1-.1-.1-.1-.2v-1c0-.1 0-.2.1-.2.1-.1.1-.1.2-.1h1.1v-.4c0-.7.2-1.3.7-1.8.5-.4 1-.7 1.8-.7h4.6c.2 0 .3.1.4.2.1.1.2.3.2.4v8.7h1.3c.1 0 .2 0 .2.1.1.1.1.1.1.2v1c0 .1 0 .2-.1.2-.1.1-.1.1-.2.1h-2.4c-.2 0-.3-.1-.4-.2-.1-.1-.2-.3-.2-.4v-8.7h-3.5c-.2 0-.4.1-.6.2-.1.1-.2.3-.2.6v.6h1.8c.1 0 .2 0 .2.1.1.1.1.1.1.2v1c0 .1 0 .2-.1.2s-.1.1-.2.1h-1.8v6.2c0 .1 0 .2-.1.2-.1.1-.1.1-.2.1h-1.1c0-.1-.1-.1-.2-.2zm12.1-.2c-.5-.3-.9-.7-1.2-1.2-.3-.5-.4-1-.4-1.6v-1.8c0-.6.1-1.1.4-1.6.3-.5.7-.9 1.2-1.2.5-.3 1.1-.4 1.7-.4.6 0 1.2.1 1.7.4a3.17 3.17 0 0 1 1.6 2.8v1.8c0 .6-.1 1.1-.4 1.6-.3.5-.7.9-1.2 1.2-.5.3-1.1.4-1.7.4-.6 0-1.2-.1-1.7-.4zm2.8-1.6c.3-.3.5-.7.5-1.2v-1.8c0-.5-.2-.8-.5-1.2-.3-.3-.7-.5-1.2-.5s-.8.2-1.2.5c-.3.3-.5.7-.5 1.2v1.8c0 .5.2.8.5 1.2.3.3.7.5 1.2.5s.9-.2 1.2-.5zm6.1 2c-.2 0-.4-.1-.4-.3l-2.5-7.4v-.1c0-.1 0-.2.1-.2.1-.1.1-.1.3-.1h1c.1 0 .2 0 .3.1l.2.2 1.7 5.7 1.6-5.7c0-.1.1-.2.2-.2.1-.1.2-.1.3-.1h1c.1 0 .2 0 .3.1l.2.2L194 85l1.6-5.7c0-.1.1-.2.2-.2.1-.1.2-.1.3-.1h.9c.1 0 .2 0 .3.1.1.1.1.1.1.2v.1l-2.3 7.4c0 .1-.1.2-.2.2-.1.1-.2.1-.3.1h-1.1c-.1 0-.2 0-.3-.1l-.2-.2-1.6-5.3-1.5 5.3c0 .1-.1.2-.2.2-.1.1-.2.1-.3.1H188zm9.8-.1c-.2-.2-.3-.5-.3-.8 0-.3.1-.6.3-.8.2-.2.5-.3.8-.3.3 0 .6.1.8.3.2.2.3.5.3.8 0 .3-.1.6-.3.8-.2.2-.5.3-.8.3-.3 0-.6-.1-.8-.3zm3.5-.1c-.1-.1-.1-.1-.1-.2v-1c0-.1 0-.2.1-.2.1-.1.1-.1.2-.1h1c.2 0 .4-.1.6-.2.1-.1.2-.3.2-.6v-7.3c0-.1 0-.2.1-.2.1-.1.1-.1.2-.1h1.1c.1 0 .2 0 .2.1.1.1.1.1.1.2v7.3c0 .5-.1.9-.3 1.2-.2.4-.5.7-.8.9-.4.2-.8.3-1.2.3h-1.2c-.1 0-.1 0-.2-.1zm7.3-.2c-.5-.3-.9-.7-1.2-1.2-.3-.5-.4-1-.4-1.6v-1.8c0-.6.1-1.1.4-1.6.3-.5.7-.9 1.2-1.2.5-.3 1.1-.4 1.7-.4.6 0 1.2.1 1.7.4a3.17 3.17 0 0 1 1.6 2.8v1.8c0 .6-.1 1.1-.4 1.6-.3.5-.7.9-1.2 1.2-.5.3-1.1.4-1.7.4-.7.1-1.2-.1-1.7-.4zm2.8-1.6c.3-.3.5-.7.5-1.2v-1.8c0-.5-.2-.8-.5-1.2-.3-.3-.7-.5-1.2-.5s-.8.2-1.2.5c-.3.3-.5.7-.5 1.2v1.8c0 .5.2.8.5 1.2.3.4.7.5 1.2.5.5-.1.9-.2 1.2-.5zm6.5 1.8c-.4-.2-.7-.5-.9-.8v.6c0 .1 0 .2-.1.2s-.1.1-.2.1h-.9c-.1 0-.2 0-.2-.1s-.1-.1-.1-.2V76.6c0-.1 0-.2.1-.2.1-.1.1-.1.2-.1h1.1c.1 0 .2 0 .2.1.1.1.1.1.1.2v3.1c.2-.3.5-.5.8-.7.3-.2.7-.2 1-.2.6 0 1.1.1 1.6.4.5.3.9.7 1.1 1.2.3.5.4 1 .4 1.6v2c0 .6-.1 1.1-.4 1.6-.3.5-.7.9-1.1 1.2a2.82 2.82 0 0 1-2.7.1zm2.1-1.8c.3-.3.5-.7.5-1.2V82c0-.5-.2-.8-.5-1.2-.3-.3-.7-.5-1.2-.5s-.8.2-1.2.5c-.3.3-.5.7-.5 1.2v1.9c0 .5.2.8.5 1.2.3.3.7.5 1.2.5s.9-.2 1.2-.5zm4.9 1.8c-.5-.2-.9-.4-1.2-.7l-.1-.1v-.2c.1-.1.2-.4.5-.9.1-.1.2-.2.3-.2.1 0 .1 0 .2.1.3.2.7.4.9.5.2.1.6.2.9.2.4 0 .7-.1.9-.2.2-.1.3-.3.3-.6 0-.2-.1-.4-.3-.5-.2-.1-.5-.3-1-.5l-.5-.2c-.4-.2-.8-.3-1-.5-.3-.2-.5-.4-.7-.7-.2-.3-.3-.7-.3-1.2 0-.7.2-1.3.7-1.8.5-.5 1.1-.7 2-.7.5 0 .9.1 1.4.2.5.2.9.4 1.2.6l.1.1v.2c-.1.2-.2.5-.4.9-.1.1-.1.2-.3.2-.1 0-.1 0-.2-.1-.6-.4-1.2-.6-1.8-.6-.3 0-.6.1-.7.2-.2.1-.3.3-.3.6s.1.4.3.6c.2.2.6.4 1.1.6.5.2.9.4 1.2.5.3.1.6.4.8.7a2.14 2.14 0 0 1 0 2.5c-.2.4-.6.7-1 .9-.4.2-1 .3-1.5.3-.5.1-1 0-1.5-.2zm6.2.1c-.2-.2-.3-.5-.3-.8 0-.3.1-.6.3-.8.2-.2.5-.3.8-.3.3 0 .6.1.8.3.2.2.3.5.3.8 0 .3-.1.6-.3.8-.2.2-.5.3-.8.3-.3 0-.6-.1-.8-.3zm3.9-.1c-.1-.1-.1-.1-.1-.2v-9.1c0-.2.1-.3.2-.4.1-.1.3-.2.4-.2h2.5c.6 0 1.1.1 1.6.4.5.3.9.7 1.2 1.2.3.5.4 1 .4 1.6 0 .6-.1 1.1-.4 1.6-.3.5-.7.9-1.2 1.2-.5.3-1 .4-1.6.4h-1.4v3.3c0 .1 0 .2-.1.2s-.1.1-.2.1h-1.1s-.1 0-.2-.1zm3-5.1c.4 0 .8-.2 1.1-.5.3-.3.5-.7.5-1.1 0-.4-.2-.8-.5-1.1-.3-.3-.7-.5-1.1-.5h-1.3v3.2h1.3zm5.3 4.7c-.5-.4-.7-1-.7-1.7 0-.6.2-1.2.7-1.6.4-.4 1.1-.7 1.9-.8.2 0 .4 0 .6-.1.7-.1 1-.1 1.2-.2.3-.1.5-.3.5-.6s-.1-.6-.4-.8c-.3-.2-.6-.3-1.1-.3a2 2 0 0 0-1.7.8c-.1.1-.2.2-.3.2-.1 0-.1 0-.2-.1l-.8-.5c-.1-.1-.1-.1-.1-.2v-.1c.3-.5.7-.9 1.2-1.2.5-.3 1.1-.4 1.8-.4.6 0 1.2.1 1.6.4.4.3.8.6 1.1 1 .3.4.4.9.4 1.5v5.1c0 .1 0 .2-.1.2-.1.1-.1.1-.2.1h-1c-.1 0-.2 0-.2-.1-.1-.1-.1-.1-.1-.2v-.5c-.6.7-1.4 1-2.3 1-.7-.2-1.3-.4-1.8-.9zm3-1.1c.3-.2.6-.4.8-.7.2-.3.3-.6.3-1v-.3l-1 .2c-.6.1-.9.1-1.1.2-.8.1-1.1.5-1.1 1 0 .3.1.5.3.7.2.2.5.3.9.3.3-.1.6-.2.9-.4zm5.4 4c-.6-.3-.8-.8-.8-1.5 0-.5.2-1 .5-1.3-.3-.3-.5-.6-.5-1.1 0-.3.1-.6.2-.9.2-.3.4-.5.6-.7-.3-.3-.5-.6-.7-.9-.2-.4-.2-.8-.2-1.2 0-.6.1-1.1.4-1.5.3-.4.6-.8 1.1-1 .5-.2 1-.4 1.6-.4.4 0 .8.1 1.2.2h2.8c.1 0 .2 0 .2.1.1.1.1.1.1.2v.9c0 .1 0 .2-.1.2-.1.1-.1.1-.2.1h-1.1c.2.4.2.8.2 1.2 0 .6-.1 1.1-.4 1.5-.3.4-.6.8-1.1 1-.5.2-1 .4-1.6.4-.4 0-.9-.1-1.3-.2-.2.2-.3.4-.3.6 0 .2.1.3.2.4.1.1.3.1.6.1h1.7c.8 0 1.4.2 1.9.4.5.3.7.8.7 1.5 0 .8-.3 1.5-1 1.9-.7.4-1.6.6-2.6.6-.8-.1-1.6-.3-2.1-.6zm4.2-1.8c0-.2-.1-.4-.3-.5-.2-.1-.4-.1-.8-.1h-2.3c-.1.2-.2.4-.2.6 0 .4.1.6.4.7.3.1.7.2 1.2.2 1.4-.1 2-.3 2-.9zm-1-4.9c.3-.3.4-.6.4-1s-.1-.8-.4-1c-.3-.3-.6-.4-1-.4s-.8.1-1 .4c-.3.3-.4.6-.4 1s.1.8.4 1c.3.3.6.4 1 .4.4-.1.8-.2 1-.4zm6 3.8c-.5-.3-.9-.7-1.2-1.2-.3-.5-.4-1.1-.4-1.7v-1.5c0-.6.1-1.2.4-1.7.3-.5.7-.9 1.2-1.2.5-.3 1.1-.4 1.7-.4.6 0 1.2.1 1.7.4.5.3.9.7 1.2 1.2.3.5.4 1.1.4 1.7v.9c0 .2-.1.3-.2.4-.1.1-.3.2-.4.2h-4.4v.1c0 .5.2.8.5 1.2.3.3.7.5 1.2.5h2.2c.1 0 .2 0 .2.1.1.1.1.1.1.2v1c0 .1 0 .2-.1.2-.1.1-.1.1-.2.1h-2.2c-.6 0-1.2-.2-1.7-.5zm3.3-4.3V82c0-.5-.2-.8-.5-1.2-.3-.3-.7-.5-1.2-.5s-.8.2-1.2.5c-.3.3-.5.7-.5 1.2v.1h3.4v.1zm3.6 4.7c-.1-.1-.1-.1-.1-.2v-9.3c0-.1 0-.2.1-.3.1-.1.2-.1.3-.1h1.1c.2 0 .3.1.4.2l3.4 5.7.7 1.2v-6.8c0-.1 0-.2.1-.2.1-.1.1-.1.2-.1h1c.1 0 .2 0 .2.1.1.1.1.1.1.2v9.3c0 .1 0 .2-.1.3-.1.1-.2.1-.3.1h-1.2c-.2 0-.3-.1-.4-.2l-3.5-5.9-.5-1v6.7c0 .1 0 .2-.1.2-.1.1-.1.1-.2.1h-1c-.1.1-.2.1-.2 0zm11-.2c-.5-.3-.9-.7-1.2-1.2-.3-.5-.4-1-.4-1.6v-1.8c0-.6.1-1.1.4-1.6.3-.5.7-.9 1.2-1.2.5-.3 1.1-.4 1.7-.4.6 0 1.2.1 1.7.4a3.17 3.17 0 0 1 1.6 2.8v1.8c0 .6-.1 1.1-.4 1.6-.3.5-.7.9-1.2 1.2-.5.3-1.1.4-1.7.4-.6.1-1.2-.1-1.7-.4zm2.9-1.6c.3-.3.5-.7.5-1.2v-1.8c0-.5-.2-.8-.5-1.2-.3-.3-.7-.5-1.2-.5s-.8.2-1.2.5c-.3.3-.5.7-.5 1.2v1.8c0 .5.2.8.5 1.2.3.3.7.5 1.2.5.5-.1.8-.2 1.2-.5zm5.3 1.2c-.5-.4-.7-1-.7-1.8v-4h-1c-.1 0-.2 0-.2-.1s-.1-.1-.1-.2v-1c0-.1 0-.2.1-.2.1-.1.1-.1.2-.1h1v-1.5c0-.1 0-.2.1-.2.1-.1.1-.1.2-.1h1.1c.1 0 .2 0 .2.1.1.1.1.1.1.2V79h2.4c.1 0 .2 0 .2.1.1.1.1.1.1.2v1c0 .1 0 .2-.1.2-.1.1-.1.1-.2.1H288v3.9c0 .3.1.5.2.7.2.2.4.3.7.3h1.5c.1 0 .2 0 .2.1.1.1.1.1.1.2v1c0 .1 0 .2-.1.2-.1.1-.1.1-.2.1h-1.6c-.7-.1-1.3-.3-1.8-.8zm5.5.6c-.1-.1-.1-.1-.1-.2v-9.1c0-.2.1-.3.2-.4.1-.1.3-.2.4-.2h4.8c.1 0 .2 0 .2.1.1.1.1.1.1.2v1c0 .1 0 .2-.1.2s-.1.1-.2.1h-3.7v2.6h2.7c.1 0 .2 0 .2.1.1.1.1.1.1.2v1c0 .1 0 .2-.1.2-.1.1-.1.1-.2.1h-2.7v3.9c0 .1 0 .2-.1.2s-.1.1-.2.1h-1.1c-.1 0-.1 0-.2-.1zm8.3-.2c-.5-.3-.9-.7-1.2-1.2-.3-.5-.4-1-.4-1.6v-1.8c0-.6.1-1.1.4-1.6.3-.5.7-.9 1.2-1.2.5-.3 1.1-.4 1.7-.4.6 0 1.2.1 1.7.4a3.17 3.17 0 0 1 1.6 2.8v1.8c0 .6-.1 1.1-.4 1.6-.3.5-.7.9-1.2 1.2-.5.3-1.1.4-1.7.4-.6.1-1.2-.1-1.7-.4zm2.9-1.6c.3-.3.5-.7.5-1.2v-1.8c0-.5-.2-.8-.5-1.2-.3-.3-.7-.5-1.2-.5s-.8.2-1.2.5c-.3.3-.5.7-.5 1.2v1.8c0 .5.2.8.5 1.2.3.4.7.5 1.2.5.4-.1.8-.2 1.2-.5zm5.2 1.7c-.4-.3-.8-.6-1-1-.2-.4-.4-1-.4-1.5v-5c0-.1 0-.2.1-.2.1-.1.1-.1.2-.1h1.1c.1 0 .2 0 .2.1.1.1.1.1.1.2V84c0 .5.1.9.4 1.1.3.3.6.4 1.1.4.6 0 1-.2 1.3-.5.3-.4.5-.9.5-1.5v-4.3c0-.1 0-.2.1-.2.1-.1.1-.1.2-.1h1.1c.1 0 .2 0 .2.1.1.1.1.1.1.2v7.4c0 .1 0 .2-.1.2-.1.2-.1.2-.2.2h-1.1c-.1 0-.2 0-.2-.1s-.1-.1-.1-.2V86c-.3.4-.6.6-.9.8-.4.2-.8.3-1.2.3-.6.1-1-.1-1.5-.3zm7.5.1c-.1-.1-.1-.1-.1-.2v-7.4c0-.1 0-.2.1-.2.1-.1.1-.1.2-.1h1.1c.1 0 .2 0 .2.1.1.1.1.1.1.2v.7c.3-.4.6-.6.9-.8.4-.2.8-.3 1.2-.3.5 0 1 .1 1.4.4.4.3.8.6 1 1 .2.4.4 1 .4 1.5v5c0 .1 0 .2-.1.2-.1.1-.1.1-.2.1h-1.1c-.1 0-.2 0-.2-.1s-.1-.1-.1-.2V82c0-.5-.1-.9-.4-1.1-.3-.3-.6-.4-1.1-.4-.6 0-1 .2-1.3.5-.3.3-.5.9-.5 1.5v4.3c0 .1 0 .2-.1.2-.1.1-.1.1-.2.1h-1.1c0-.1-.1-.1-.1-.2zm9.8-.2c-.5-.3-.9-.7-1.1-1.2-.3-.5-.4-1-.4-1.6V82c0-.6.1-1.1.4-1.6.3-.5.7-.9 1.1-1.2.5-.3 1-.4 1.6-.4.4 0 .7.1 1 .2.3.1.6.3.9.5v-2.9c0-.1 0-.2.1-.2.1-.1.1-.1.2-.1h1.1c.1 0 .2 0 .2.1.1.1.1.1.1.2v10.1c0 .1 0 .2-.1.2-.1.1-.1.1-.2.1h-.9c-.1 0-.2 0-.2-.1-.1-.1-.1-.1-.1-.2V86c-.3.4-.6.7-.9.9-.4.2-.7.3-1.2.3-.6 0-1.1-.2-1.6-.5zm3-1.6c.3-.3.5-.7.5-1.2V82c0-.5-.2-.8-.5-1.2-.3-.3-.7-.5-1.2-.5s-.8.2-1.2.5c-.3.3-.5.7-.5 1.2v1.9c0 .5.2.8.5 1.2.3.4.7.5 1.2.5s.8-.2 1.2-.5zm6.3 3.7a10.06 10.06 0 0 1-2.1-6.3c0-1.3.2-2.5.6-3.6.4-1.1.9-2 1.5-2.7.1-.1.2-.2.3-.2.1 0 .2 0 .3.1l.4.4c.1.1.1.1.1.2v.2c-.5.7-.9 1.5-1.2 2.5a10.07 10.07 0 0 0 0 6.3c.3 1 .7 1.8 1.2 2.5v.1c0 .1 0 .1-.1.2l-.4.4c-.1.1-.2.1-.3.1-.1 0-.2-.1-.3-.2zm3.4 0l-.4-.4c-.1-.1-.2-.2-.1-.3.5-.7.9-1.5 1.2-2.5a10.07 10.07 0 0 0-1.2-8.8v-.2c0-.1 0-.2.1-.2l.4-.4c.1-.1.2-.1.3-.1.1 0 .2.1.3.2a9.97 9.97 0 0 1 2.1 6.3c0 1.3-.2 2.5-.6 3.6-.4 1.1-.9 2-1.5 2.7-.1.1-.2.2-.3.2-.1.1-.2 0-.3-.1zm7.8-.3c-.1-.1-.1-.2 0-.3l.8-2.7c0-.1.1-.1.1-.2.1-.1.1-.1.2-.1h1.4c.1 0 .2 0 .2.1.1.1.1.1.1.2v.2l-1.6 2.9h-.9c-.1 0-.2 0-.3-.1zm1.1-7c-.1-.1-.1-.1-.1-.2v-1.7c0-.1 0-.2.1-.2.1-.1.1-.1.2-.1h1.2c.1 0 .2 0 .2.1.1.1.1.1.1.2v1.7c0 .1 0 .2-.1.2-.1.1-.1.1-.2.1H348c-.1 0-.2-.1-.2-.1z"/><path fill="#E4E6E8" d="M115.7 187.5H97.9v-12.2h17.8zm0 21.2H97.9v-16.9h17.8zm0 22.7H97.9v-16.9h17.8z"/><path stroke="#BBC0C4" d="M113.5 185.4H95.7v-12.2h17.8zm0 21.2H95.7v-16.9h17.8zm0 22.6H95.7v-16.9h17.8z"/><path fill="#F48024" d="M30.5 151.6c-.2-.1-.3-.2-.3-.4v-.2l.4-.9c.1-.2.2-.3.4-.3.1 0 .2 0 .2.1l3 1.1-.2-2.7v-.1c0-.1 0-.2.1-.3.1-.1.2-.1.3-.1h1.1c.1 0 .2 0 .3.1.1.1.1.2.1.3l-.2 2.7 2.9-1.1c.1 0 .2-.1.3-.1.2 0 .3.1.4.2l.4.9c0 .1.1.2.1.3 0 .2-.1.3-.3.4l-4.5 1.3-4.5-1.2zm3.7 6.8c-.1-.1-.2-.2-.2-.4l.2-2.7-3 1.1c-.1 0-.2.1-.3.1-.2 0-.3-.1-.4-.3l-.4-.9v-.2c0-.2.1-.4.3-.4l4.5-1.2 4.5 1.3c.2 0 .3.2.3.4 0 .1 0 .2-.1.2l-.4.9c-.1.1-.2.2-.4.2-.1 0-.2 0-.3-.1l-2.9-1.1.4 2.7v.1c0 .1 0 .2-.1.3-.1.1-.2.1-.3.1h-1.1c-.1 0-.3-.1-.3-.1z"/><circle cx="25.7" cy="193.2" r="1.8" fill="#F48024"/><path fill="#FFB935" d="M360 25s-.1.1-.2.1h-.7c-.1 0-.1 0-.2-.1 0 0-.1-.1-.1-.2v-3.1h-3.3s-.1-.1-.1-.2v-.7c0-.1 0-.1.1-.2 0 0 .1-.1.2 0h3.2v-3.2c0-.1 0-.1.1-.2 0 0 .1-.1.2-.1h.7c.1 0 .1 0 .2.1 0 0 .1.1.1.2v3.1h3.3s.1.1.1.2v.7c0 .1 0 .1-.1.2 0 0-.1.1-.2 0h-3.1v3.1c-.1.2-.1.3-.2.3z"/><circle cx="384.8" cy="27.2" r="3" fill="#F48024"/><path fill="#F48024" d="M387.8 54.9a4.8 4.8 0 1 1 4.8-4.8c.1 2.6-2.1 4.8-4.8 4.8zm0-8.4c-2 0-3.6 1.6-3.6 3.6s1.6 3.6 3.6 3.6 3.6-1.6 3.6-3.6-1.6-3.6-3.6-3.6z"/><path fill="#FFB935" d="M4.6 154.4l3 4.7h-6l3-4.7zm0-1.6L0 160h9.2l-4.6-7.2z"/></g></svg>