<svg width="300" height="300" viewBox="0 0 300 300" fill="none" xmlns="http://www.w3.org/2000/svg">
<g clip-path="url(#clip0_1630_29310)">
<rect width="300" height="300" fill="white"/>
<rect width="300" height="300" fill="#3070AB"/>
<path d="M40 190.898V105H56.875L92.0312 162.363V105H108.145V190.898H90.7422L56.1133 134.883V190.898H40Z" fill="white"/>
<path d="M127.012 190.898V105.703H144.355V176.426H187.48V190.898H127.012Z" fill="white"/>
<path d="M199.902 190.898V105H227.734C238.281 105 245.156 105.43 248.359 106.289C253.281 107.578 257.402 110.391 260.723 114.727C264.043 119.023 265.703 124.59 265.703 131.426C265.703 136.699 264.746 141.133 262.832 144.727C260.918 148.32 258.477 151.152 255.508 153.223C252.578 155.254 249.59 156.602 246.543 157.266C242.402 158.086 236.406 158.496 228.555 158.496H217.246V190.898H199.902ZM217.246 119.531V143.906H226.738C233.574 143.906 238.145 143.457 240.449 142.559C242.754 141.66 244.551 140.254 245.84 138.34C247.168 136.426 247.832 134.199 247.832 131.66C247.832 128.535 246.914 125.957 245.078 123.926C243.242 121.895 240.918 120.625 238.105 120.117C236.035 119.727 231.875 119.531 225.625 119.531H217.246Z" fill="white"/>
</g>
<defs>
<clipPath id="clip0_1630_29310">
<rect width="300" height="300" fill="white"/>
</clipPath>
</defs>
</svg>
