<svg width="150" height="150" viewBox="0 0 150 150" fill="none" xmlns="http://www.w3.org/2000/svg">
<g clip-path="url(#clip0_1656_34059)">
<g clip-path="url(#clip1_1656_34059)">
<path d="M150 -6.10352e-05H-1.52588e-05V150H150V-6.10352e-05Z" fill="#CD7024"/>
</g>
</g>
<path d="M55.4102 99V50.3242H76.0957C81.2975 50.3242 85.0716 50.7669 87.418 51.6523C89.7865 52.5156 91.679 54.0651 93.0957 56.3008C94.5124 58.5365 95.2207 61.0931 95.2207 63.9707C95.2207 67.623 94.1471 70.6445 92 73.0352C89.8529 75.4036 86.6432 76.8978 82.3711 77.5176C84.4961 78.7572 86.2448 80.1185 87.6172 81.6016C89.0117 83.0846 90.8822 85.7188 93.2285 89.5039L99.1719 99H87.418L80.3125 88.4082C77.7891 84.623 76.0625 82.2435 75.1328 81.2695C74.2031 80.2734 73.2181 79.5983 72.1777 79.2441C71.1374 78.8678 69.4883 78.6797 67.2305 78.6797H65.2383V99H55.4102ZM65.2383 70.9102H72.5098C77.2246 70.9102 80.1686 70.7109 81.3418 70.3125C82.515 69.9141 83.4336 69.2279 84.0977 68.2539C84.7617 67.2799 85.0938 66.0625 85.0938 64.6016C85.0938 62.9635 84.651 61.6465 83.7656 60.6504C82.9023 59.6322 81.6738 58.9902 80.0801 58.7246C79.2832 58.6139 76.8926 58.5586 72.9082 58.5586H65.2383V70.9102Z" fill="white"/>
<defs>
<clipPath id="clip0_1656_34059">
<rect width="150" height="150" fill="white"/>
</clipPath>
<clipPath id="clip1_1656_34059">
<rect width="150.485" height="150" fill="white"/>
</clipPath>
</defs>
</svg>
