<?xml version="1.0" encoding="UTF-8" standalone="no"?>
<svg width="11px" height="11px" viewBox="0 0 11 11" version="1.1" xmlns="http://www.w3.org/2000/svg" xmlns:xlink="http://www.w3.org/1999/xlink" xmlns:sketch="http://www.bohemiancoding.com/sketch/ns">
    <!-- Generator: Sketch 3.4.4 (17249) - http://www.bohemiancoding.com/sketch -->
    <title>Search</title>
    <desc>Created with Sketch.</desc>
    <defs>
        <path id="path-1" d="M0,0.00462152778 L9.86479452,0.00462152778 L9.86479452,10.0833333 L0,10.0833333"></path>
    </defs>
    <g id="Interim-Designs" stroke="none" stroke-width="1" fill="none" fill-rule="evenodd" sketch:type="MSPage">
        <g id="Search-Copy-2" sketch:type="MSArtboardGroup" transform="translate(-48.000000, -223.000000)">
            <g id="Search" sketch:type="MSLayerGroup" transform="translate(53.278821, 228.500000) scale(-1, 1) translate(-53.278821, -228.500000) translate(48.278821, 223.000000)">
                <mask id="mask-2" sketch:name="Clip 2" fill="white">
                    <use xlink:href="#path-1"></use>
                </mask>
                <g id="Clip-2"></g>
                <path d="M5.8560274,3.84894838 C5.8539726,5.02953866 4.91520548,5.98997616 3.75958904,5.9922169 C2.6039726,5.98997616 1.66506849,5.02953866 1.66328767,3.84894838 C1.66506849,2.66751782 2.6039726,1.70708032 3.75958904,1.70483958 C4.91520548,1.70708032 5.8539726,2.66751782 5.8560274,3.84894838 M9.58890411,8.58349352 L6.94821918,5.88410116 C7.30917808,5.2943662 7.5190411,4.59539514 7.5190411,3.84894838 C7.5190411,1.72598657 5.83589041,0.0046775463 3.75958904,0.0046775463 C1.68369863,0.0046775463 0,1.72598657 0,3.84894838 C0,5.97106991 1.68369863,7.69153866 3.75958904,7.69153866 C4.49383562,7.69153866 5.18041096,7.47544722 5.75986301,7.10236389 L8.39876712,9.80035579 C8.58082192,9.98563704 8.81794521,10.0833894 9.05452055,10.0833894 L9.05739726,10.0833894 C9.2630137,10.0833894 9.47287671,10.0052435 9.63027397,9.8451706 C9.78986301,9.68187662 9.86547945,9.46634537 9.86479452,9.25403519 C9.86479452,9.01217523 9.77027397,8.76919491 9.58890411,8.58349352" id="Fill-1" fill="#000000" sketch:type="MSShapeGroup" mask="url(#mask-2)"></path>
            </g>
        </g>
    </g>
</svg>