<?xml version="1.0" encoding="utf-8"?>
<!-- Generator: Adobe Illustrator 18.1.1, SVG Export Plug-In . SVG Version: 6.00 Build 0)  -->
<svg version="1.1" id="Layer_1" xmlns="http://www.w3.org/2000/svg" xmlns:xlink="http://www.w3.org/1999/xlink" x="0px" y="0px"
	 viewBox="0 242 1200 1096" enable-background="new 0 242 1200 1096" xml:space="preserve">
<g>
	<rect x="465.9" y="1183.9" fill="#EFEFEF" width="615.2" height="14.3"/>
</g>
<g>
	<polygon fill="#FFFFFF" points="1081.1,384.8 1006.5,309.4 465.9,309.4 465.9,1189.3 1081.1,1189.3 	"/>
</g>
<g>
	<polygon fill="#E6E7E8" points="1006.8,383.7 1081.1,383.7 1006.8,309.4 	"/>
</g>
<g>
	<polygon fill="#808184" points="547.6,419.5 580.6,394.3 613.9,419.5 	"/>
</g>
<g>
	<polygon fill="#808184" points="613.9,566.7 580.6,591.9 547.6,566.7 	"/>
</g>
<g>
	<path fill="#58595B" d="M555.9,475.5h22.9v4.6c-6.9,8-11.8,16.9-12.6,29h-6c0.9-10.6,6-20.9,12.9-28.7h-17.5v-4.9H555.9z"/>
	<path fill="#58595B" d="M606.7,509h-22.9c0-5.4,2.9-9.8,7.5-12.6c4.3-3.2,10-5.7,10-11.2c0-2.3-0.9-6-5.7-6c-4.3,0-5.7,3.7-5.7,8.3
		h-5.4c0-7.5,4-12.9,11.5-12.9c8.3,0,10.9,6,10.9,10.3c0,5.4-3.7,8.6-7.5,11.5c-4,2.6-8,4.9-8.9,7.7h16.3V509z"/>
</g>
<g>
	<path fill="#01CB48" d="M619.6,644.4l-9.8-9.8c-0.3-0.3-1.1-0.3-1.4,0l-33.8,33.8l-8.9-8.9c-0.3-0.3-1.1-0.3-1.4,0l-9.8,9.8
		c-0.3,0.3-0.3,1.1,0,1.4l19.5,19.5c0.3,0.3,0.6,0.3,0.9,0.3s0.6,0,0.9-0.3l44.2-44.2c0.3-0.3,0.3-0.6,0.3-0.9
		C619.9,644.7,619.6,644.4,619.6,644.4z"/>
</g>
<g>
	<path fill="#D1D3D4" d="M743.5,710.4c-4.3,0-7.7-3.4-7.7-7.7s3.4-7.7,7.7-7.7s7.7,3.4,7.7,7.7S747.8,710.4,743.5,710.4z
		 M743.5,697.7c-2.6,0-4.9,2.3-4.9,4.9s2.3,4.9,4.9,4.9s4.9-2.3,4.9-4.9S746.1,697.7,743.5,697.7z"/>
</g>
<g>
	<path fill="#D1D3D4" d="M743.5,761.7c-4.3,0-7.7-3.4-7.7-7.7s3.4-7.7,7.7-7.7s7.7,3.4,7.7,7.7S747.8,761.7,743.5,761.7z
		 M743.5,749.1c-2.6,0-4.9,2.3-4.9,4.9s2.3,4.9,4.9,4.9s4.9-2.3,4.9-4.9S746.1,749.1,743.5,749.1z"/>
</g>
<g>
	<path fill="#D1D3D4" d="M743.5,813.3c-4.3,0-7.7-3.4-7.7-7.7s3.4-7.7,7.7-7.7s7.7,3.4,7.7,7.7S747.8,813.3,743.5,813.3z
		 M743.5,800.7c-2.6,0-4.9,2.3-4.9,4.9s2.3,4.9,4.9,4.9s4.9-2.3,4.9-4.9S746.1,800.7,743.5,800.7z"/>
</g>
<g>
	<rect x="841.3" y="1034.7" fill="#EFEFEF" width="36.4" height="36.4"/>
</g>
<g>
	<rect x="695.6" y="401.2" fill="#D1D3D4" width="280.5" height="2.9"/>
</g>
<g>
	<rect x="695.6" y="452.5" fill="#D1D3D4" width="280.5" height="2.9"/>
</g>
<g>
	<rect x="695.6" y="503.9" fill="#D1D3D4" width="280.5" height="2.9"/>
</g>
<g>
	<rect x="695.6" y="555.2" fill="#D1D3D4" width="185" height="2.9"/>
</g>
<g>
	<rect x="695.6" y="650.4" fill="#D1D3D4" width="280.5" height="2.9"/>
</g>
<g>
	<rect x="781.4" y="701.2" fill="#D1D3D4" width="194.7" height="2.9"/>
</g>
<g>
	<rect x="781.4" y="753.1" fill="#D1D3D4" width="194.7" height="2.9"/>
</g>
<g>
	<rect x="781.4" y="804.4" fill="#D1D3D4" width="194.7" height="2.9"/>
</g>
<g>
	<rect x="695.6" y="894.2" fill="#D1D3D4" width="280.5" height="2.9"/>
</g>
<g>
	<rect x="695.6" y="945.5" fill="#D1D3D4" width="200.5" height="2.9"/>
</g>
<g>
	<rect x="842.7" y="1006.3" fill="#D1D3D4" width="133.4" height="2.9"/>
</g>
<g>
	<rect x="913.6" y="1051.6" fill="#D1D3D4" width="62.8" height="2.9"/>
</g>
<g>
	<g>
		<g>
			<path fill="#D0D2D3" d="M623.2,1311.1h139.4c12.8,0,23-10.5,23-23V941.6c0-12.8-10.5-23-23-23h-139c-12.8,0-23,10.5-23,23V1288
				C600.2,1300.9,610.7,1311.1,623.2,1311.1z"/>
		</g>
	</g>
	<g>
		<g>
			<path fill="#EFEFEF" d="M623.2,1309.1h139.4c12.8,0,23-10.5,23-23V939.6c0-12.8-10.5-23-23-23h-139c-12.8,0-23,10.5-23,23v346.4
				C600.2,1298.9,610.7,1309.1,623.2,1309.1z"/>
		</g>
	</g>
	<g>
		<g>
			<rect x="609" y="963" fill="#FF6D1F" width="169.3" height="289.2"/>
		</g>
	</g>
	<g>
		<g>
			<circle fill="#BBBDBF" cx="692.9" cy="929.8" r="3"/>
		</g>
	</g>
	<g>
		<g>
			<rect x="609" y="962.3" fill="#D0D2D3" width="169.3" height="6.9"/>
		</g>
	</g>
	<g>
		<g>
			<g>
				<g>
					<path fill="#F2BE2A" d="M717.2,1036.9c-4.9,0-9.2-4.3-9.2-9.9s3.9-9.9,9.2-9.9c11.8,0,21.4-12.2,21.4-27.3v-8.5
						c0-5.3,3.9-9.9,9.2-9.9c4.9,0,9.2,4.3,9.2,9.9v8.5C756.6,1016.2,739.2,1036.9,717.2,1036.9z"/>
				</g>
			</g>
		</g>
		<g>
			<g>
				<g>
					<path fill="#F2BE2A" d="M672.8,1015.2c4.6,0,8.2,3.9,8.2,8.9c0,4.9-3.6,8.9-8.2,8.9c-10.8,0-19.4,11.2-19.4,25v7.9
						c0,4.9-3.6,8.9-8.2,8.9c-4.6,0-8.2-3.9-8.2-8.9v-7.9C636.6,1034.6,653.1,1015.2,672.8,1015.2z"/>
				</g>
			</g>
		</g>
		<g>
			<g>
				<path fill="#FFCA22" d="M731,1080.3v-43.7c0-21-16.1-38.5-35.8-38.5s-35.8,17.1-35.8,38.5v43.7H731z"/>
			</g>
		</g>
		<g>
			<g>
				<path fill="#F2BE2A" d="M677.7,954.4c1.3,3.9-0.7,8.2-4.3,9.5s-7.6-0.7-8.9-4.6c-1.3-3.9-0.7-11.8,3-13.1
					C671.2,944.9,676.4,950.8,677.7,954.4z"/>
			</g>
		</g>
		<g>
			<g>
				<path fill="#FF8A4C" d="M675.4,954.8c1,2.6-0.3,5.3-2.6,6.2s-4.9-0.3-5.6-3c-1-2.6-0.3-7.6,2-8.5
					C671.2,948.5,674.4,952.5,675.4,954.8z"/>
			</g>
		</g>
		<g>
			<g>
				<path fill="#F2BE2A" d="M712.9,954.4c-1.3,3.9,0.7,8.2,4.3,9.5s7.6-0.7,8.9-4.6c1.3-3.9,0.7-11.8-3-13.1
					C719.1,944.9,713.9,950.8,712.9,954.4z"/>
			</g>
		</g>
		<g>
			<g>
				<path fill="#FF8A4C" d="M715.2,954.8c-1,2.6,0.3,5.3,2.6,6.2c2.3,1,4.9-0.3,5.6-3c1-2.6,0.3-7.6-2-8.5
					C719.1,948.5,715.9,952.5,715.2,954.8z"/>
			</g>
		</g>
		<g opacity="0.15">
			<g>
				<path fill="#231F20" d="M695.2,997.2c-11.5,0-21.7,5.9-28.3,15.1c3.6,2,7.9,3,12.5,3h31.9c4.3,0,8.5-1,12.5-3
					C716.8,1003.1,706.7,997.2,695.2,997.2z"/>
			</g>
		</g>
		<g>
			<g>
				<path fill="#FFCA22" d="M708.6,1011.6H682c-14.8,0-27-12.2-27-27v-5.3c0-14.8,12.2-27,27-27h26.6c14.8,0,27,12.2,27,27v5.3
					C735.6,999.5,723.4,1011.6,708.6,1011.6z"/>
			</g>
		</g>
		<g>
			<g>
				<g>
					<g>
						<path fill="#20314B" d="M666.9,979.1C666.6,979.1,666.6,979.1,666.9,979.1c-0.7-0.3-1-0.7-0.7-1c0.7-2.3,2.6-3.6,4.9-3.6
							c2.3,0,4.3,1.6,4.9,3.6c0,0.3,0,1-0.3,1c-0.3,0-0.7,0-1-0.3c-0.7-1.6-2-2.6-3.6-2.6s-3,1-3.6,2.6
							C667.2,978.8,666.9,979.1,666.9,979.1z"/>
					</g>
				</g>
			</g>
			<g>
				<g>
					<g>
						<path fill="#20314B" d="M715.2,979.1C714.9,979.1,714.9,979.1,715.2,979.1c-0.7-0.3-1-0.7-0.7-1c0.7-2.3,2.6-3.6,4.9-3.6
							s4.3,1.6,4.9,3.6c0,0.3,0,1-0.3,1c-0.3,0-0.7,0-1-0.3c-0.7-1.6-2-2.6-3.6-2.6s-3,1-3.6,2.6
							C715.5,978.8,715.2,979.1,715.2,979.1z"/>
					</g>
				</g>
			</g>
		</g>
		<g>
			<g>
				<g>
					<path fill="#FFD54E" d="M695.2,1014.3L695.2,1014.3c-8.9,0-15.8-7.6-15.8-17.1l0,0h31.9l0,0
						C711.3,1006.7,704,1014.3,695.2,1014.3z"/>
				</g>
			</g>
			<g>
				<g>
					<path fill="#FFD54E" d="M695.2,998.8L695.2,998.8c-7.2,0-13.1-5.9-13.1-13.5l0,0h26.3l0,0C708.3,992.9,702.4,998.8,695.2,998.8
						z"/>
				</g>
			</g>
			<g>
				<g>
					<path fill="#3E5270" d="M701.4,997.2c0,3.6-3,6.9-6.2,6.9s-6.2-3-6.2-6.9H701.4z"/>
				</g>
			</g>
			<g>
				<g>
					<polygon fill="#FFDF7A" points="700.7,985.7 689.6,985.7 692.2,964.3 698.1,964.3 					"/>
				</g>
			</g>
			<g>
				<g>
					<polygon fill="#FF6D1F" points="695.2,992.6 689.9,985.7 700.7,985.7 					"/>
				</g>
			</g>
			<g>
				<g>
					<g>
						<polygon fill="#FFFFFF" points="691.9,999.1 690.2,997.2 693.5,997.2 						"/>
					</g>
				</g>
				<g>
					<g>
						<polygon fill="#FFFFFF" points="698.4,999.1 696.8,997.2 700.1,997.2 						"/>
					</g>
				</g>
			</g>
		</g>
		<g>
			<g>
				<g>
					<g>
						<path fill="#FFFFFF" d="M703.7,990.3c-0.7,0-1-0.3-1.3-1c-0.3-0.7,0.3-1.3,1-1.6l13.1-3.6c0.7-0.3,1.3,0.3,1.6,1
							s-0.3,1.3-1,1.6L703.7,990.3C704,990.3,703.7,990.3,703.7,990.3z"/>
					</g>
				</g>
				<g>
					<g>
						<path fill="#FFFFFF" d="M716.8,997.5C716.8,997.5,716.8,997.2,716.8,997.5l-13.5-3.6c-0.7-0.3-1-1-1-1.6c0.3-0.7,1-1,1.6-1
							l13.1,3.6c0.7,0.3,1,1,1,1.6C717.8,996.8,717.5,997.5,716.8,997.5z"/>
					</g>
				</g>
			</g>
			<g>
				<g>
					<g>
						<path fill="#FFFFFF" d="M673.5,997.5c-0.7,0-1-0.3-1.3-1c-0.3-0.7,0.3-1.3,1-1.6l13.1-3.6c0.7-0.3,1.3,0.3,1.6,1
							c0.3,0.7-0.3,1.3-1,1.6L673.5,997.5C673.8,997.2,673.5,997.5,673.5,997.5z"/>
					</g>
				</g>
				<g>
					<g>
						<path fill="#FFFFFF" d="M686.9,990.3C686.6,990.3,686.6,990.3,686.9,990.3l-13.5-3.6c-0.7-0.3-1-1-1-1.6s1-1,1.6-1l13.1,3.6
							c0.7,0.3,1,1,1,1.6C687.9,989.9,687.3,990.3,686.9,990.3z"/>
					</g>
				</g>
			</g>
		</g>
		<g>
			<g>
				<path fill="#BF9F3B" d="M655.1,979.1c0,0.7,0,1,0,1.6v3.3c0,4.6,1,9.2,3,13.1h5.6l-8.2-8.5h8.2L655.1,979.1z"/>
			</g>
		</g>
		<g>
			<g>
				<path fill="#BF9F3B" d="M735.3,979.1c0,0.7,0,1,0,1.6v3.3c0,4.6-1,9.2-3,13.1h-5.6l8.2-8.5h-8.2L735.3,979.1z"/>
			</g>
		</g>
		<g>
			<g>
				<g>
					<polygon fill="#BF9F3B" points="688.6,960.4 688.6,952.5 695.8,952.5 					"/>
				</g>
			</g>
			<g>
				<g>
					<polygon fill="#BF9F3B" points="695.2,960.4 695.2,952.5 702.4,952.5 					"/>
				</g>
			</g>
			<g>
				<g>
					<polygon fill="#BF9F3B" points="701.7,960.4 701.7,952.5 709,952.5 					"/>
				</g>
			</g>
			<g>
				<g>
					<polygon fill="#BF9F3B" points="681.3,960.4 681.3,952.5 688.6,952.5 					"/>
				</g>
			</g>
		</g>
		<g>
			<g>
				<path fill="#FFEAA7" d="M717.2,1080.3v-27c0-13.1-9.9-23.7-22-23.7c-12.2,0-22,10.5-22,23.7v27H717.2z"/>
			</g>
		</g>
		<g>
			<g>
				<ellipse fill="#FFEAA7" cx="747.4" cy="982" rx="5.9" ry="6.2"/>
			</g>
		</g>
	</g>
	<g>
		<g>
			<polygon fill="#FFCA22" points="609,1252.2 778.6,1252.2 778.6,1067.8 609,1082.6 			"/>
		</g>
	</g>
	<g>
		<g>
			<path fill="#FF6D1F" d="M644.5,1160.8c0-3-0.7-3.6-2-3.6c-2,0-2.3,2-2.3,8.9s0.3,8.9,2.3,8.9c1.6,0,2-1.3,2-6.2h6.6v2
				c0,7.2-4.3,8.9-8.5,8.9c-7.6,0-9.2-3.6-9.2-13.1c0-9.9,2.3-13.1,9.2-13.1c5.9,0,8.2,3.3,8.2,8.2v1.6h-6.6v-2.3H644.5z"/>
		</g>
		<g>
			<path fill="#FF6D1F" d="M658.3,1153.3h8.2l6.2,25.6h-7.2l-0.7-4.6h-5.3l-0.7,4.6h-7.2L658.3,1153.3z M662.6,1158.5L662.6,1158.5
				l-2,10.8h3.6L662.6,1158.5z"/>
		</g>
		<g>
			<path fill="#FF6D1F" d="M676.1,1158.9h-4.9v-5.6h16.8v5.6H683v20h-6.6v-20H676.1z"/>
		</g>
		<g>
			<path fill="#FF8A4C" d="M688.9,1174l7.9-15.4h-7.6v-5.6h15.1v4.9l-8.2,15.4h8.2v5.6h-15.8v-4.9H688.9z"/>
		</g>
		<g>
			<path fill="#FF8A4C" d="M715.9,1152.6c6.9,0,9.2,3.6,9.2,13.1s-2.3,13.1-9.2,13.1s-9.2-3.6-9.2-13.1S709,1152.6,715.9,1152.6z
				 M715.9,1174.7c2,0,2.3-2,2.3-8.9s-0.3-8.9-2.3-8.9c-2,0-2.3,2-2.3,8.9C713.6,1173,713.9,1174.7,715.9,1174.7z"/>
		</g>
		<g>
			<path fill="#FF8A4C" d="M727.7,1153.3h7.6l4.3,15.8l0,0v-15.8h6.2v25.6h-7.2l-4.6-15.8l0,0v15.8h-6.2L727.7,1153.3L727.7,1153.3z
				"/>
		</g>
		<g>
			<path fill="#FF8A4C" d="M749.4,1153.3h15.1v5.6H756v4.3h7.9v5.3H756v4.9h8.9v5.6h-15.4V1153.3z"/>
		</g>
	</g>
	<g>
		<g>
			<path fill="#FFFFFF" d="M661.6,1137.2l2.6-13.1c-1-0.3-1.6-0.7-2.6-1c-0.7-0.3-1.6-0.3-2.3-0.3c-0.7,1.6-1.3,3-2,4.6
				c-0.7,1.6-1,3-1.6,4.6c-0.3,1.3-0.7,3-1,4.3c-0.3,1.3-0.3,2.3-0.3,3.3c0,0.7,0,1,0,1.3c0,0.3,0.3,0.7,0.3,0.7c-0.3,0-1,0-1.6,0
				s-1-0.3-1.6-0.3c-0.7-0.3-1-0.7-1.3-1c-0.3-0.7-0.3-1.3-0.3-2.3c0-0.7,0-1.6,0.3-3c0.3-1,0.7-2.3,1-3.6c0.3-1.3,1-2.6,1.6-3.9
				c0.7-1.3,1.3-3,2.3-4.3c-1,0-2,0.3-3,0.7c-1,0.3-1.3,0.7-1.3,1.3c0,0,0.3,0,0.3,0.3c0,0.3,0.3,0.7,0.3,0.7c0,0.3-0.3,0.7-0.7,1
				c-0.3,0.3-1,0.3-1.3,0.3c-0.3,0-0.7,0-1,0c-0.3,0-0.7-0.3-0.7-0.3c-0.3-0.3-0.3-0.3-0.3-0.7c0-0.3-0.3-0.7-0.3-1
				c0-0.7,0.3-1.3,0.7-1.6c0.3-0.3,1-1,1.6-1.3c0.7-0.3,1.3-0.7,2.3-1s2-0.3,3-0.3c0.7,0,1,0,2,0c1-1.3,2-3,3-4.3
				c1-1.3,2-2.3,3.3-3.3c1-1,2.3-1.6,3.3-2.3c1-0.7,2.3-1,3.3-1c0.3,0,1,0,1.3,0s1,0.3,1.3,0.3l-5.6,26.6L661.6,1137.2L661.6,1137.2
				z M666.9,1112.5c-0.7,0.3-1,0.7-1.6,1.3s-1,1.3-1.6,2c-0.7,0.7-1,1.6-1.6,2.6s-1,2-1.6,3c0.7,0,1.6,0.3,2.3,0.7s1.6,0.3,2.3,0.7
				L666.9,1112.5z"/>
		</g>
		<g>
			<path fill="#FFFFFF" d="M676.4,1112.5l5.3-0.7l-1.6,8.2c0.3-0.3,0.7-0.3,1-0.7c0.3,0,0.7-0.3,0.7-0.3s0.3,0,0.7,0
				c0.3,0,0.3,0,0.7,0c0.7,0,1.3,0,1.6,0.3c0.3,0.3,1,0.7,1.3,1s0.7,1,1,2c0.3,0.7,0.3,1.6,0.3,3c0,0.7,0,1.6-0.3,2.3
				c0,1-0.3,1.6-0.7,2.6c-0.3,1-0.7,1.6-1.3,2.6s-1,1.6-2,2.3c-1,0.7-1.6,1.3-2.6,1.6c-1,0.3-2.3,0.7-3.3,0.7c-1.6,0-3-0.3-3.9-1.3
				c-1-0.7-1.3-2-1.3-3.3c0-0.3,0-0.7,0-1s0-0.7,0.3-1L676.4,1112.5z M677.4,1131.6c0,0.3,0,0.7,0,1c0,1,0.7,1.6,2,1.6
				c0.3,0,0.7,0,1-0.3c0.3-0.3,0.7-0.7,1-1c0.3-0.3,0.7-1,1-1.6c0.3-0.7,0.3-1.3,0.7-2c0.3-0.7,0.3-1.3,0.3-2c0-0.7,0-1.3,0-2
				c0-0.3,0-1,0-1.3c0-0.3-0.3-0.7-0.3-1c0-0.3-0.3-0.7-0.7-0.7c-0.3-0.3-0.7-0.3-1-0.3c0,0-0.3,0-0.7,0s-0.3,0-0.7,0
				s-0.3,0-0.7,0.3c-0.3,0-0.3,0.3-0.3,0.3L677.4,1131.6z"/>
		</g>
		<g>
			<path fill="#FFFFFF" d="M692.9,1112.5l5.3-0.7l-1.6,8.2c0.3-0.3,0.7-0.3,1-0.7c0.3,0,0.7-0.3,0.7-0.3s0.3,0,0.7,0
				c0.3,0,0.3,0,0.7,0c0.7,0,1.3,0,1.6,0.3c0.3,0.3,1,0.7,1.3,1s0.7,1,1,2c0.3,0.7,0.3,1.6,0.3,3c0,0.7,0,1.6-0.3,2.3
				c0,1-0.3,1.6-0.7,2.6c-0.3,1-0.7,1.6-1.3,2.6s-1,1.6-2,2.3c-1,0.7-1.6,1.3-2.6,1.6c-1,0.3-2.3,0.7-3.3,0.7c-1.6,0-3-0.3-3.9-1.3
				c-1-0.7-1.3-2-1.3-3.3c0-0.3,0-0.7,0-1s0-0.7,0.3-1L692.9,1112.5z M694.2,1131.6c0,0.3,0,0.7,0,1c0,1,0.7,1.6,2,1.6
				c0.3,0,0.7,0,1-0.3c0.3-0.3,0.7-0.7,1-1c0.3-0.3,0.7-1,1-1.6c0.3-0.7,0.3-1.3,0.7-2c0.3-0.7,0.3-1.3,0.3-2c0-0.7,0-1.3,0-2
				c0-0.3,0-1,0-1.3c0-0.3-0.3-0.7-0.3-1c0-0.3-0.3-0.7-0.7-0.7c-0.3-0.3-0.7-0.3-1-0.3c0,0-0.3,0-0.7,0s-0.3,0-0.7,0
				s-0.3,0-0.7,0.3c-0.3,0-0.3,0.3-0.3,0.3L694.2,1131.6z"/>
		</g>
		<g>
			<path fill="#FFFFFF" d="M713.9,1135.5c-0.3,0.3-0.7,0.7-1.3,1c-0.3,0.3-0.7,0.3-1.3,0.7c-0.7,0.3-0.7,0.3-1,0.3c-0.3,0-0.7,0-1,0
				c-0.7,0-1,0-1.6-0.3c-0.3-0.3-1-0.3-1.3-0.7s-0.7-0.7-1-1.3c-0.3-0.7-0.3-1.3-0.3-2c0-0.3,0-0.7,0-1s0-1,0.3-1.3l2.6-11.8h5.3
				l-2.6,12.5c0,0.3,0,0.7,0,1c0,0.3,0,0.3,0,0.7c0,0.3,0,0.3,0.3,0.7l0.3,0.3c0,0,0.3,0,0.7,0c0.3,0,0.7,0,1-0.3
				c0.3-0.3,0.7-0.3,0.7-0.7c0.3-0.3,0.3-0.7,0.7-1s0.3-1,0.3-1.3l2.6-11.8h5.3l-4.6,21c-0.3,1.3-0.7,2.3-1,3.3
				c-0.7,0.7-1,1.3-1.6,2c-0.7,0.3-1.3,0.7-2,1c-0.7,0-1.3,0.3-2,0.3s-1,0-1.6-0.3c-0.7-0.3-1-0.3-1.3-0.7s-0.7-0.7-1-1.3
				c-0.3-0.3-0.3-1-0.3-1.6c0-1,0-1.6,0.3-2.3c0.3-0.7,0.7-1,1.3-1.3c0.7-0.3,1.3-0.7,2-1c0.7-0.3,1.6-0.7,2.3-0.7L713.9,1135.5z
				 M713.2,1138.2c-0.7,0.3-1,0.3-1.6,0.7c-0.7,0.3-1,0.7-1.3,0.7c-0.3,0.3-0.7,0.7-1,1c-0.3,0.3-0.3,0.7-0.3,1.3v0.3l0.3,0.3
				l0.3,0.3c0.3,0,0.3,0,0.7,0c0.3,0,0.3,0,0.7,0c0.3,0,0.3-0.3,0.7-0.3c0.3-0.3,0.3-0.7,0.7-1c0.3-0.3,0.3-0.7,0.3-1.3
				L713.2,1138.2z"/>
		</g>
		<g>
			<path fill="#FFFFFF" d="M727,1112.5c0-0.3,0-0.7,0.3-1c0.3-0.3,0.3-0.7,0.7-0.7c0.3-0.3,0.3-0.3,0.7-0.7c0.3,0,0.7-0.3,1-0.3
				c0.3,0,0.7,0,1,0.3c0.3,0,0.7,0.3,0.7,0.7c0,0.3,0.3,0.7,0.7,0.7c0.3,0,0.3,0.7,0.3,1c0,0.3,0,1-0.3,1.6c-0.3,0.7-0.3,1-1,1.6
				c-0.3,0.7-1,1-1.3,1.6c-0.7,0.7-1,1-2,1.3l-0.7-0.7c0.7-0.7,1-1,1.3-1.6c0.3-0.7,0.3-1,0.3-1c0-0.3,0-0.3-0.3-0.7
				c-0.3-0.3-0.3-0.3-0.7-0.7s-0.3-0.3-0.7-0.7C727,1113.2,727,1112.9,727,1112.5z"/>
		</g>
		<g>
			<path fill="#FFFFFF" d="M741.8,1118.1c0,1.6,0,3,0.3,3.9c0,1.3,0,2.3,0.3,3c0,1,0,1.6,0,2.3c0,0.7,0,1,0,1.6s0,1,0,1.3
				s0,0.7,0,1.3s0,1.6-0.3,2c-0.3,0.7-0.7,1.3-1,1.6c-0.3,0.3-0.7,1-1.3,1.3c-0.7,0.3-1,0.7-1.6,0.7c-0.7,0.3-1,0.3-1.6,0.3
				s-1,0-1.6,0c-1,0-1.6,0-2.3-0.3s-1.3-0.7-1.6-1c-0.3-0.3-0.7-1-1-1.6c-0.3-0.7-0.3-1-0.3-1.6c0-0.3,0-0.7,0.3-1.3
				c0-0.3,0.3-0.7,0.3-1c0.3-0.3,0.3-0.7,0.7-0.7c0.3,0,0.3-0.3,0.7-0.3c1-2,2-3.6,2.6-5.3c0.7-1.6,1.3-3.6,2-5.3L741.8,1118.1z
				 M732,1132.3c0,1,0.3,1.6,0.7,2c0.3,0.3,1,0.7,1.6,0.7c0.3,0,0.7,0,1.3-0.3c0.3,0,0.7-0.3,1-0.7c0.3-0.3,0.7-0.7,0.7-1
				c0.3-0.3,0.3-1,0.3-1.6c0-0.3,0-0.7,0-1c0-0.3,0-0.7,0-1c0-0.3,0-0.7,0-1s0-1,0-1.3c0-0.7,0-1-0.3-2c0-0.7,0-1.6-0.3-2.3
				c-0.3,1.3-0.7,2.3-1.3,3.3c-0.7,1-1,2.3-1.6,3.3c0.3,0,0.3,0.3,0.7,0.7c0.3,0.3,0.3,0.3,0.3,0.7c0,0.3,0,0.3,0,0.7
				c0,0.3-0.3,0.3-0.3,0.7s-0.3,0.3-0.7,0.3c-0.3,0-0.3,0-0.7,0c-0.3,0-0.3,0-0.7,0C732,1132.6,732,1132.3,732,1132.3z"/>
		</g>
	</g>
	<g>
		<g>
			<g>
				<circle fill="#FFAA22" cx="670.8" cy="1215.4" r="6.9"/>
			</g>
		</g>
		<g>
			<g>
				<path fill="#FFAA22" d="M703,1223h-2c-3.3,0-6.2-2.6-6.2-6.2v-3c0-1.6-1.3-3-3-3c-1.6,0-3,1.3-3,3v3c0,3.3-2.6,6.2-6.2,6.2h-1
					c-3.3,0-6.2-2.6-6.2-6.2v-1h3.3v1c0,1.6,1.3,3,3,3h1c1.6,0,3-1.3,3-3v-3c0-3.3,2.6-6.2,6.2-6.2s6.2,2.6,6.2,6.2v3
					c0,1.6,1.3,3,3,3h2c1.6,0,3-1.3,3-3v-3c0-3.3,2.6-6.2,6.2-6.2h0.3c3.3,0,6.2,2.6,6.2,6.2v3.3h-3.3v-3.3c0-1.6-1.3-3-3-3h-0.3
					c-1.6,0-3,1.3-3,3v3C709.3,1220.3,706.7,1223,703,1223z"/>
			</g>
		</g>
		<g>
			<g>
				<path fill="#FFCA22" d="M670.5,1221.3c-3.3,0-5.9-2.6-5.9-5.9v-1c0-1,0.7-1.6,1.6-1.6s1.6,0.7,1.6,1.6v1c0,1.6,1.3,2.6,2.6,2.6
					c1,0,1.6,0.7,1.6,1.6C672.1,1220.7,671.5,1221.3,670.5,1221.3z"/>
			</g>
		</g>
	</g>
	<g>
		<g>
			<path fill="#D0D2D3" d="M692.9,928.8c-1.3,0-2.3,0.7-2.6,2c0.3,1,1.3,2,2.6,2c1.3,0,2.3-0.7,2.6-2
				C695.2,929.5,694.2,928.8,692.9,928.8z"/>
		</g>
	</g>
	<g>
		<g>
			<circle fill="#D0D2D3" cx="692.9" cy="1278.8" r="14.8"/>
		</g>
	</g>
	<g>
		<g>
			<circle fill="#FFFFFF" cx="692.9" cy="1276.5" r="14.8"/>
		</g>
	</g>
	<g>
		<g>
			<path fill="#D0D2D3" d="M692.9,1287.7c-6.2,0-11.2-4.9-11.2-11.2c0-6.2,4.9-11.2,11.2-11.2c6.2,0,11.2,4.9,11.2,11.2
				C704,1282.8,699.1,1287.7,692.9,1287.7z M692.9,1268c-4.9,0-8.5,3.9-8.5,8.5c0,4.6,3.9,8.5,8.5,8.5s8.5-3.9,8.5-8.5
				C701.4,1271.9,697.8,1268,692.9,1268z"/>
		</g>
	</g>
</g>
<g>
	<g>
		<g>
			
				<rect x="230.6" y="277.4" transform="matrix(-0.6987 -0.7154 0.7154 -0.6987 238.1732 746.4625)" fill="#FFFFFF" width="91.4" height="91.4"/>
			<path fill="#FFAA22" d="M275.4,389.8l-66.1-67.7l67.7-66.1l66.1,67.7L275.4,389.8z M214,322.1l61.5,63.1l63.1-61.5l-61.5-63.1
				L214,322.1z"/>
		</g>
	</g>
	<g>
		<g>
			
				<rect x="228.8" y="427.5" transform="matrix(-0.7156 -0.6986 0.6986 -0.7156 140.2814 1003.5125)" fill="#FFFFFF" width="91.4" height="91.4"/>
			<path fill="#FFAA22" d="M275.4,540l-67.7-66.1l66.1-67.7l67.7,66.1L275.4,540z M212.3,473.9l63.1,61.5l61.5-63.1l-63.1-61.5
				L212.3,473.9z"/>
		</g>
	</g>
	<g>
		<g>
			
				<rect x="308.9" y="353.7" transform="matrix(-0.6987 -0.7154 0.7154 -0.6987 316.557 932.0433)" fill="#FFFFFF" width="91.4" height="91.4"/>
			<path fill="#FFAA22" d="M353.7,466l-66.1-67.7l67.7-66.1l66.1,67.7L353.7,466z M292.2,398.6l61.5,63.1l63.1-61.5l-61.5-63.1
				L292.2,398.6z"/>
		</g>
	</g>
	<g>
		
			<rect x="149.3" y="351.6" transform="matrix(-0.6987 -0.7154 0.7154 -0.6987 46.9513 814.301)" fill="#FFAA22" width="91.4" height="91.4"/>
	</g>
	<g>
		<g>
			<path fill="#FFFFFF" d="M217.9,392.1c0-2-1.6-3.9-3.6-3.9l-14.1-0.3c0.7-2.3,2.3-7.2,1.6-9.9c-1-4.3-3.6-4.6-4.3-4.6
				c-1.6,0-3,1.3-3,3.3c0,6.2-5.6,12.8-10.2,15.1l-0.3,18.4c1.6,0.3,2.6,0.7,3.9,1c2.3,0.7,4.3,1,7.6,1h12.8c2,0,3-1,3-3
				c0-0.7,0-1.3-0.3-1.6c1.6-0.3,2.6-1.3,3-3c0-1-0.3-1.6-0.7-2.3c1.6-0.3,3-2,3-3.6c0-1-0.3-1.6-1-2.6
				C216.9,395.7,217.9,393.7,217.9,392.1z"/>
		</g>
		<g>
			<path fill="#FFFFFF" d="M182.1,389.4h-9.2c-0.3,0-0.3,0-0.7,0.3c0,0-0.3,0.3-0.3,0.7l-0.3,22.7c0,0.3,0.3,0.7,0.7,0.7h9.2
				c0.3,0,0.7-0.3,0.7-0.7v-4.6l0.3-14.5v-3.6C183.1,389.8,182.7,389.4,182.1,389.4z M178.5,410.1c-0.7,0-1-0.3-1-1s0.3-1,1-1
				c0.7,0,1,0.3,1,1C179.5,409.8,179.1,410.1,178.5,410.1z"/>
		</g>
	</g>
	<g>
		<path fill="#FFAA22" d="M326.7,387.1h3.9v9.5l0,0c1-1.6,3-3,5.6-3c3.9,0,6.6,2.3,6.2,6.2v12.5h-3.9v-11.5c0-3-1.3-4.3-3.6-4.3
			c-2.6,0-4.6,2-4.6,4.6v10.8h-3.9L326.7,387.1z"/>
		<path fill="#FFAA22" d="M345.8,394.4h3v-5.6h3.9v5.6h3.6v3h-3.6v9.9c0,1.6,0,2.6,2,2.6c0.7,0,1,0,1.6,0v3c-1,0-1.6,0.3-2.6,0.3
			c-4.3,0-4.9-1.6-4.9-4.6v-10.8h-3L345.8,394.4z"/>
		<path fill="#FFAA22" d="M357.9,394.7h3v-5.6h3.9v5.6h3.6v3h-3.6v9.9c0,1.6,0,2.6,2,2.6c0.7,0,1,0,1.6,0v3c-1,0-1.6,0.3-2.6,0.3
			c-4.3,0-4.9-1.6-4.9-4.6V398h-3L357.9,394.7z"/>
		<path fill="#FFAA22" d="M372.4,394.7h3.9v2.6l0,0c1.3-2,3.3-3,5.6-3c5.9,0,8.5,4.6,8.5,9.9c0,4.9-2.6,9.5-7.9,9.5
			c-2.3,0-4.9-1-6.2-3l0,0v9.2h-3.9L372.4,394.7z M381.3,397.7c-3.3,0-5.3,2.6-5.3,6.6c0,3.6,1.6,6.6,4.9,6.6c3.6,0,4.9-3.3,5.3-6.2
			C386.2,400.6,384.6,397.7,381.3,397.7z"/>
	</g>
	<g>
		<path fill="#FFAA22" d="M269.8,324.4c-0.3-2.3-2-3.6-4.3-3.6c-2,0-4.9,1-5.3,6.6c0,3,1.3,6.2,4.9,6.2c2.3,0,3.9-1.6,4.3-4.3h3.9
			c-0.7,4.6-3.6,7.2-8.5,7.2c-5.6,0-8.9-4.3-8.9-9.5c0-5.6,3-9.9,9.2-9.9c4.3,0,7.9,2.3,8.2,6.6L269.8,324.4z"/>
		<path fill="#FFAA22" d="M293.2,329.3h-3.3l-1,7.6h-3l1-7.6H283l-1,7.6h-3l1-7.6h-3.3v-2.6h3.6l0.7-4.6h-3.3v-2.6h3.6l1-7.6h3
			l-1,7.6h3.9l1-7.6h3l-1,7.6h3v2.6h-3.3l-0.7,4.6h3L293.2,329.3z M284,321.7l-0.7,4.6h3.9l0.7-4.6H284z"/>
	</g>
	<g>
		<path fill="#FFAA22" d="M259,474.6c-0.3-2.3-2-3.6-4.3-3.6c-2,0-4.9,1-5.3,6.6c0,3,1.3,6.2,4.9,6.2c2.3,0,3.9-1.6,4.3-4.3h3.9
			c-0.7,4.6-3.6,7.2-8.5,7.2c-5.6,0-8.9-4.3-8.9-9.5c0-5.6,3-9.9,9.2-9.9c4.3,0,7.9,2.3,8.2,6.6L259,474.6z"/>
		<path fill="#FFAA22" d="M269.8,480.8c0.3,2.3,2,3.3,3.9,3.3c1.6,0,4.3-0.3,3.9-2.3c0-2-3-2.3-5.9-3c-3-0.7-5.9-1.6-5.9-5.6
			s4.3-5.3,7.6-5.3c3.6,0,7.2,1.6,7.6,5.6h-4.3c-0.3-2-2-2.3-3.6-2.6c-1.3,0-3.3,0.3-3.3,2c0,2,3,2.3,5.9,3s5.9,1.6,5.9,5.3
			c0,4.3-4.6,5.9-8.2,5.9c-4.6,0-7.9-2.3-7.9-6.6L269.8,480.8z"/>
		<path fill="#FFAA22" d="M288.6,481.1c0.3,2.3,2,3.3,3.9,3.3c1.6,0,4.3-0.3,3.9-2.3c0-2-3-2.3-5.9-3c-3-0.7-5.9-1.6-5.9-5.6
			s4.3-5.3,7.6-5.3c3.6,0,7.2,1.6,7.6,5.6h-4.3c-0.3-2-2-2.3-3.6-2.6c-1.3,0-3.3,0.3-3.3,2c0,2,3,2.3,5.9,3s5.9,1.6,5.9,5.3
			c0,4.3-4.6,5.9-8.2,5.9c-4.6,0-7.9-2.3-7.9-6.6L288.6,481.1z"/>
	</g>
</g>
<g>
	<g>
		<g>
			
				<rect x="142.6" y="507.6" transform="matrix(-0.6987 -0.7154 0.7154 -0.6987 -75.9472 1074.6548)" fill="#FFFFFF" width="91.4" height="91.4"/>
			<path fill="#FF8A4C" d="M187.7,620.2l-66.1-67.7l67.7-66.1l66.1,67.7L187.7,620.2z M126.2,552.8l61.5,63.1l63.1-61.5l-61.5-63.1
				L126.2,552.8z"/>
		</g>
	</g>
	<g>
		<g>
			
				<rect x="141" y="658" transform="matrix(-0.7156 -0.6986 0.6986 -0.7156 -171.2424 1337.6528)" fill="#FFFFFF" width="91.4" height="91.4"/>
			<path fill="#FF8A4C" d="M187.7,770.7L120,704.6l66.1-67.7l67.7,66.1L187.7,770.7z M124.6,704.3l62.8,61.8l61.5-63.1L186,641.5
				L124.6,704.3z"/>
		</g>
	</g>
	<g>
		<g>
			
				<rect x="220.9" y="583.9" transform="matrix(-0.6987 -0.7154 0.7154 -0.6987 2.4365 1260.2362)" fill="#FFFFFF" width="91.4" height="91.4"/>
			<path fill="#FF8A4C" d="M265.9,696.8L199.8,629l67.7-66.4l66.1,67.7L265.9,696.8z M204.4,629l61.5,63.1l63.1-61.5l-61.5-63.1
				L204.4,629z"/>
		</g>
	</g>
	<g>
		
			<rect x="61.5" y="582.1" transform="matrix(-0.6987 -0.7154 0.7154 -0.6987 -266.9492 1143.0588)" fill="#FF6D1F" width="91.4" height="91.4"/>
	</g>
	<g>
		<g>
			<path fill="#FFFFFF" d="M84.1,635.6c0,2,1.6,3.9,3.6,3.9l14.1,0.3c-0.7,2.3-2.3,7.2-1.6,9.9c1,4.3,3.6,4.6,4.3,4.6
				c1.6,0,3-1.3,3-3.3c0-6.2,5.6-12.8,10.2-15.1l0.3-18.4c-1.6-0.3-2.6-0.7-3.9-1c-2.3-0.7-4.3-1-7.6-1H93.7c-2,0-3,1-3,3
				c0,0.7,0,1.3,0.3,1.6c-1.6,0.3-2.6,1.3-3,3c0,1,0.3,1.6,0.7,2.3c-1.6,0.3-3,2-3,3.6c0,1,0.3,1.6,1,2.6
				C85.1,631.7,84.1,634,84.1,635.6z"/>
		</g>
		<g>
			<path fill="#FFFFFF" d="M120,638.2h9.2c0.3,0,0.3,0,0.7-0.3c0,0,0.3-0.3,0.3-0.7l0.3-22.7c0-0.3-0.3-0.7-0.7-0.7h-9.2
				c-0.3,0-0.7,0.3-0.7,0.7v4.6l-0.3,14.5v3.6C119,637.9,119.3,638.2,120,638.2z M123.6,617.5c0.7,0,1,0.3,1,1s-0.3,1-1,1
				c-0.7,0-1-0.3-1-1S122.9,617.5,123.6,617.5z"/>
		</g>
	</g>
	<g>
		<path fill="#FF6D1F" d="M235.7,618.5h3.9v3.6l0,0c0.3-2,3-3.9,5.3-3.9c1,0,1.3,0,1.6,0v3.9c-0.7,0-1.3-0.3-1.6-0.3
			c-2.6,0-4.9,2.3-4.9,6.2v8.5H236L235.7,618.5z"/>
		<path fill="#FF6D1F" d="M264.6,636.9h-3.9v-2.6l0,0c-1,2-3.3,3-5.3,3c-4.9,0-6.9-2.6-6.9-7.2v-11.5h3.9v11.2
			c0,3.3,1.3,4.3,3.3,4.3c3.3,0,4.6-2,4.6-4.9v-10.5h3.9L264.6,636.9z"/>
		<path fill="#FF6D1F" d="M269.8,612h3.9v9.2l0,0c1-1.6,3.3-3,5.6-3c5.9,0,8.5,4.6,8.5,9.9c0,4.9-2.6,9.5-7.9,9.5
			c-2.6,0-5.3-0.7-6.2-3l0,0v2.6h-3.9L269.8,612z M278.7,621.8c-3.3,0-5.3,2.6-5.3,6.6c0,3.6,1.6,6.6,4.9,6.6c3.6,0,4.9-3.3,5.3-6.2
			C283.6,624.8,282,621.8,278.7,621.8z"/>
		<path fill="#FF6D1F" d="M289.6,619.2h4.3l4.6,13.8l0,0l4.9-13.5h4.3l-7.2,19.1c-1.3,3.3-2.3,6.2-6.6,6.2c-1,0-2,0-2.6-0.3v-3.3
			c0.7,0,1.3,0.3,2,0.3c2,0,2.3-1,3-2.6l0.3-1.3L289.6,619.2z"/>
	</g>
	<g>
		<path fill="#FF6D1F" d="M154.1,552.5c0,3,1.6,5.6,4.9,5.6c2.3,0,3.6-1,4.6-3h3.9c-1,3.9-4.3,6.2-8.2,6.2c-5.6,0-8.9-3.9-8.9-9.9
			c0-5.3,3.6-9.5,8.9-9.5c5.9,0,9.2,5.3,8.5,10.8L154.1,552.5z M163.7,549.8c0-2.6-2-4.9-4.6-4.9c-2.6,0-4.6,2-4.9,4.9H163.7z"/>
		<path fill="#FF6D1F" d="M176.2,551.2l-6.2-8.9h4.9l3.6,5.6l3.9-5.6h4.6l-6.2,8.2l6.9,9.9h-4.9l-4.6-6.9l-4.6,6.6h-4.6L176.2,551.2
			z"/>
		<path fill="#FF6D1F" d="M189,542.6h3V537h3.9v5.6h3.6v3h-3.6v9.9c0,1.6,0,2.6,2,2.6c0.7,0,1,0,1.6,0v3c-1,0-1.6,0.3-2.6,0.3
			c-4.3,0-4.9-1.6-4.9-4.6v-10.8h-3V542.6z"/>
		<path fill="#FF6D1F" d="M203.5,542.9h3.9l-0.3,19.7c0,3.6-1.6,5.6-5.3,5.6c-0.7,0-1.3,0-1.6-0.3v-3.3c0.7,0,1,0,1.3,0
			c1.6,0,1.6-1,1.6-2.6L203.5,542.9z M203.5,536h3.9v3.9h-3.9V536z"/>
		<path fill="#FF6D1F" d="M215.3,555.4c0.3,2.3,2,3.3,3.9,3.3c1.6,0,4.3-0.3,3.9-2.3c0-2-3-2.3-5.9-3s-5.9-1.6-5.9-5.6
			s4.3-5.3,7.6-5.3c3.6,0,7.2,1.6,7.6,5.6h-4.3c-0.3-2-2-2.3-3.6-2.6c-1.3,0-3.3,0.3-3.3,2c0,2,3,2.3,5.9,3s5.9,1.6,5.9,5.3
			c0,4.3-4.6,5.9-8.2,5.9c-4.6,0-7.9-2.3-7.9-6.6L215.3,555.4z"/>
	</g>
	<g>
		<path fill="#FF6D1F" d="M169.6,698.7h3v-1.6c0-4.6,2.6-5.3,5.3-5.3c1.3,0,2.3,0,3,0.3v3.3c-0.7,0-1-0.3-2-0.3s-2,0.3-2,2v2h3.3v3
			h-3.3l-0.3,15.1h-3.9l0.3-15.1h-3L169.6,698.7z"/>
		<path fill="#FF6D1F" d="M198.2,709.9h-3.3l-1,7.6h-3l1-7.6H188l-1,7.6h-3l1-7.6h-3.3v-2.6h3.6l0.7-4.6h-3.3V700h3.6l1-7.6h3
			l-1,7.6h3.9l1-7.6h3l-1,7.6h3v2.6h-3.3l-0.7,4.6h3V709.9z M189.3,702.3l-0.7,4.6h3.9l0.7-4.6H189.3z"/>
	</g>
</g>
<g>
	<path fill="#FFCC7A" d="M289.9,1072.4H280v-6.6h9.9V1072.4z M270.2,1072.4h-9.9v-6.6h9.9V1072.4z M250.5,1072.4h-4.3
		c-2,0-3.9,0-5.9-0.3l0.7-6.6c1.6,0,3.6,0.3,5.3,0.3h4.3L250.5,1072.4L250.5,1072.4z M230.1,1070.1c-3.3-1-6.6-2-9.9-3.6l2.6-5.9
		c3,1.3,5.9,2.3,8.9,3.3L230.1,1070.1z M211,1061.6c-3-2-5.6-4.3-8.2-6.6l4.6-4.6c2.3,2.3,4.6,3.9,7.2,5.9L211,1061.6z
		 M196.2,1047.5c-2-2.6-3.9-5.6-5.6-8.9l5.9-3c1.3,2.6,3,5.3,4.9,7.9L196.2,1047.5z M186.7,1029c-1-3.3-2-6.6-2.3-10.2l6.6-1
		c0.3,3,1,6.2,2,9.2L186.7,1029z M190.3,1008.7h-6.6v-9.9h6.6V1008.7z M190.3,988.9h-6.6v-9.9h6.6V988.9z M190.3,969.2h-6.6v-9.9
		h6.6V969.2z M190.3,949.5h-6.6v-9.9h6.6V949.5z M190.3,929.8h-6.6v-9.9h6.6V929.8z M190.3,910.1h-6.6v-9.9h6.6V910.1z M190.3,890.3
		h-6.6v-9.9h6.6V890.3z M190.3,870.6h-6.6v-9.9h6.6V870.6z M190.3,850.9h-6.6V841h6.6V850.9z M190.3,831.2h-6.6v-9.9h6.6V831.2z
		 M190.3,811.5h-6.6v-9.9h6.6V811.5z"/>
</g>
<g>
	<path fill="#FFCA22" d="M365.2,1123.7v16.8c0,8.2-7.6,14.8-16.8,14.8h-4.6c-9.2,0-16.8-6.6-16.8-14.8v-16.8H365.2z"/>
</g>
<g>
	<path fill="#F7A123" d="M367.5,946.5c-22.4,0-40.4,18.1-40.4,40.4v136.7h40.4V1008v-12.8V946.5z"/>
</g>
<g>
	<rect x="389.8" y="931.4" fill="#F1F1F2" width="96.6" height="20.7"/>
</g>
<g opacity="0.15">
	<polygon fill="#231F20" points="479.5,931.4 486.1,931.4 486.1,952.1 454.6,952.1 	"/>
</g>
<g>
	<g>
		<g>
			<defs>
				<rect id="SVGID_1_" x="327" y="1007.7" width="38.1" height="17.4"/>
			</defs>
			<clipPath id="SVGID_2_">
				<use xlink:href="#SVGID_1_"  overflow="visible"/>
			</clipPath>
			<polygon clip-path="url(#SVGID_2_)" fill="#FF6D1F" points="327,1007.7 365.2,1007.7 365.2,1007.7 			"/>
		</g>
		<g>
			<defs>
				<rect id="SVGID_3_" x="327" y="1007.7" width="38.1" height="17.4"/>
			</defs>
			<clipPath id="SVGID_4_">
				<use xlink:href="#SVGID_3_"  overflow="visible"/>
			</clipPath>
			<polygon clip-path="url(#SVGID_4_)" fill="#FF6D1F" points="327,1007.7 365.2,1007.7 365.2,1007.7 			"/>
		</g>
		<g>
			<defs>
				<rect id="SVGID_5_" x="327" y="1007.7" width="38.1" height="17.4"/>
			</defs>
			<clipPath id="SVGID_6_">
				<use xlink:href="#SVGID_5_"  overflow="visible"/>
			</clipPath>
			<polygon clip-path="url(#SVGID_6_)" fill="#FF6F1F" points="327,1008 365.2,1008 365.2,1008 			"/>
		</g>
		<g>
			<defs>
				<rect id="SVGID_7_" x="327" y="1007.7" width="38.1" height="17.4"/>
			</defs>
			<clipPath id="SVGID_8_">
				<use xlink:href="#SVGID_7_"  overflow="visible"/>
			</clipPath>
			<polygon clip-path="url(#SVGID_8_)" fill="#FF701F" points="327,1008 365.2,1008 365.2,1008 			"/>
		</g>
		<g>
			<defs>
				<rect id="SVGID_9_" x="327" y="1007.7" width="38.1" height="17.4"/>
			</defs>
			<clipPath id="SVGID_10_">
				<use xlink:href="#SVGID_9_"  overflow="visible"/>
			</clipPath>
			<polygon clip-path="url(#SVGID_10_)" fill="#FF721F" points="327,1008.3 365.2,1008.3 365.2,1008.3 			"/>
		</g>
		<g>
			<defs>
				<rect id="SVGID_11_" x="327" y="1007.7" width="38.1" height="17.4"/>
			</defs>
			<clipPath id="SVGID_12_">
				<use xlink:href="#SVGID_11_"  overflow="visible"/>
			</clipPath>
			<polygon clip-path="url(#SVGID_12_)" fill="#FF741F" points="327,1008.3 365.2,1008.3 365.2,1008.3 			"/>
		</g>
		<g>
			<defs>
				<rect id="SVGID_13_" x="327" y="1007.7" width="38.1" height="17.4"/>
			</defs>
			<clipPath id="SVGID_14_">
				<use xlink:href="#SVGID_13_"  overflow="visible"/>
			</clipPath>
			<polygon clip-path="url(#SVGID_14_)" fill="#FF751F" points="327,1008.3 365.2,1008.3 365.2,1008.3 			"/>
		</g>
		<g>
			<defs>
				<rect id="SVGID_15_" x="327" y="1007.7" width="38.1" height="17.4"/>
			</defs>
			<clipPath id="SVGID_16_">
				<use xlink:href="#SVGID_15_"  overflow="visible"/>
			</clipPath>
			<polygon clip-path="url(#SVGID_16_)" fill="#FF771F" points="327,1008.7 365.2,1008.7 365.2,1008.7 			"/>
		</g>
		<g>
			<defs>
				<rect id="SVGID_17_" x="327" y="1007.7" width="38.1" height="17.4"/>
			</defs>
			<clipPath id="SVGID_18_">
				<use xlink:href="#SVGID_17_"  overflow="visible"/>
			</clipPath>
			<polygon clip-path="url(#SVGID_18_)" fill="#FF7920" points="327,1008.7 365.2,1008.7 365.2,1008.7 			"/>
		</g>
		<g>
			<defs>
				<rect id="SVGID_19_" x="327" y="1007.7" width="38.1" height="17.4"/>
			</defs>
			<clipPath id="SVGID_20_">
				<use xlink:href="#SVGID_19_"  overflow="visible"/>
			</clipPath>
			<polygon clip-path="url(#SVGID_20_)" fill="#FF7A20" points="327,1009 365.2,1009 365.2,1009 			"/>
		</g>
		<g>
			<defs>
				<rect id="SVGID_21_" x="327" y="1007.7" width="38.1" height="17.4"/>
			</defs>
			<clipPath id="SVGID_22_">
				<use xlink:href="#SVGID_21_"  overflow="visible"/>
			</clipPath>
			<polygon clip-path="url(#SVGID_22_)" fill="#FF7C20" points="327,1009 365.2,1009 365.2,1009 			"/>
		</g>
		<g>
			<defs>
				<rect id="SVGID_23_" x="327" y="1007.7" width="38.1" height="17.4"/>
			</defs>
			<clipPath id="SVGID_24_">
				<use xlink:href="#SVGID_23_"  overflow="visible"/>
			</clipPath>
			<polygon clip-path="url(#SVGID_24_)" fill="#FF7D20" points="327,1009.3 365.2,1009.3 365.2,1009.3 			"/>
		</g>
		<g>
			<defs>
				<rect id="SVGID_25_" x="327" y="1007.7" width="38.1" height="17.4"/>
			</defs>
			<clipPath id="SVGID_26_">
				<use xlink:href="#SVGID_25_"  overflow="visible"/>
			</clipPath>
			<polygon clip-path="url(#SVGID_26_)" fill="#FF7F20" points="327,1009.3 365.2,1009.3 365.2,1009.3 			"/>
		</g>
		<g>
			<defs>
				<rect id="SVGID_27_" x="327" y="1007.7" width="38.1" height="17.4"/>
			</defs>
			<clipPath id="SVGID_28_">
				<use xlink:href="#SVGID_27_"  overflow="visible"/>
			</clipPath>
			<polygon clip-path="url(#SVGID_28_)" fill="#FF8020" points="327,1009.7 365.2,1009.7 365.2,1009.7 			"/>
		</g>
		<g>
			<defs>
				<rect id="SVGID_29_" x="327" y="1007.7" width="38.1" height="17.4"/>
			</defs>
			<clipPath id="SVGID_30_">
				<use xlink:href="#SVGID_29_"  overflow="visible"/>
			</clipPath>
			<polygon clip-path="url(#SVGID_30_)" fill="#FF8220" points="327,1009.7 365.2,1009.7 365.2,1009.7 			"/>
		</g>
		<g>
			<defs>
				<rect id="SVGID_31_" x="327" y="1007.7" width="38.1" height="17.4"/>
			</defs>
			<clipPath id="SVGID_32_">
				<use xlink:href="#SVGID_31_"  overflow="visible"/>
			</clipPath>
			<polygon clip-path="url(#SVGID_32_)" fill="#FF8320" points="327,1010 365.2,1010 365.2,1010 			"/>
		</g>
		<g>
			<defs>
				<rect id="SVGID_33_" x="327" y="1007.7" width="38.1" height="17.4"/>
			</defs>
			<clipPath id="SVGID_34_">
				<use xlink:href="#SVGID_33_"  overflow="visible"/>
			</clipPath>
			<polygon clip-path="url(#SVGID_34_)" fill="#FF8520" points="327,1010 365.2,1010 365.2,1010 			"/>
		</g>
		<g>
			<defs>
				<rect id="SVGID_35_" x="327" y="1007.7" width="38.1" height="17.4"/>
			</defs>
			<clipPath id="SVGID_36_">
				<use xlink:href="#SVGID_35_"  overflow="visible"/>
			</clipPath>
			<polygon clip-path="url(#SVGID_36_)" fill="#FF8620" points="327,1010.3 365.2,1010.3 365.2,1010.3 			"/>
		</g>
		<g>
			<defs>
				<rect id="SVGID_37_" x="327" y="1007.7" width="38.1" height="17.4"/>
			</defs>
			<clipPath id="SVGID_38_">
				<use xlink:href="#SVGID_37_"  overflow="visible"/>
			</clipPath>
			<polygon clip-path="url(#SVGID_38_)" fill="#FF8720" points="327,1010.3 365.2,1010.3 365.2,1010.3 			"/>
		</g>
		<g>
			<defs>
				<rect id="SVGID_39_" x="327" y="1007.7" width="38.1" height="17.4"/>
			</defs>
			<clipPath id="SVGID_40_">
				<use xlink:href="#SVGID_39_"  overflow="visible"/>
			</clipPath>
			<polygon clip-path="url(#SVGID_40_)" fill="#FF8920" points="327,1010.3 365.2,1010.3 365.2,1010.3 			"/>
		</g>
		<g>
			<defs>
				<rect id="SVGID_41_" x="327" y="1007.7" width="38.1" height="17.4"/>
			</defs>
			<clipPath id="SVGID_42_">
				<use xlink:href="#SVGID_41_"  overflow="visible"/>
			</clipPath>
			<polygon clip-path="url(#SVGID_42_)" fill="#FF8A20" points="327,1010.6 365.2,1010.6 365.2,1010.6 			"/>
		</g>
		<g>
			<defs>
				<rect id="SVGID_43_" x="327" y="1007.7" width="38.1" height="17.4"/>
			</defs>
			<clipPath id="SVGID_44_">
				<use xlink:href="#SVGID_43_"  overflow="visible"/>
			</clipPath>
			<polygon clip-path="url(#SVGID_44_)" fill="#FF8B20" points="327,1010.6 365.2,1010.6 365.2,1010.6 			"/>
		</g>
		<g>
			<defs>
				<rect id="SVGID_45_" x="327" y="1007.7" width="38.1" height="17.4"/>
			</defs>
			<clipPath id="SVGID_46_">
				<use xlink:href="#SVGID_45_"  overflow="visible"/>
			</clipPath>
			<polygon clip-path="url(#SVGID_46_)" fill="#FF8D21" points="327,1011 365.2,1011 365.2,1011 			"/>
		</g>
		<g>
			<defs>
				<rect id="SVGID_47_" x="327" y="1007.7" width="38.1" height="17.4"/>
			</defs>
			<clipPath id="SVGID_48_">
				<use xlink:href="#SVGID_47_"  overflow="visible"/>
			</clipPath>
			<polygon clip-path="url(#SVGID_48_)" fill="#FF8E21" points="327,1011 365.2,1011 365.2,1011 			"/>
		</g>
		<g>
			<defs>
				<rect id="SVGID_49_" x="327" y="1007.7" width="38.1" height="17.4"/>
			</defs>
			<clipPath id="SVGID_50_">
				<use xlink:href="#SVGID_49_"  overflow="visible"/>
			</clipPath>
			<polygon clip-path="url(#SVGID_50_)" fill="#FF8F21" points="327,1011.3 365.2,1011.3 365.2,1011.3 			"/>
		</g>
		<g>
			<defs>
				<rect id="SVGID_51_" x="327" y="1007.7" width="38.1" height="17.4"/>
			</defs>
			<clipPath id="SVGID_52_">
				<use xlink:href="#SVGID_51_"  overflow="visible"/>
			</clipPath>
			<polygon clip-path="url(#SVGID_52_)" fill="#FF9021" points="327,1011.3 365.2,1011.3 365.2,1011.3 			"/>
		</g>
		<g>
			<defs>
				<rect id="SVGID_53_" x="327" y="1007.7" width="38.1" height="17.4"/>
			</defs>
			<clipPath id="SVGID_54_">
				<use xlink:href="#SVGID_53_"  overflow="visible"/>
			</clipPath>
			<polygon clip-path="url(#SVGID_54_)" fill="#FF9221" points="327,1011.6 365.2,1011.6 365.2,1011.6 			"/>
		</g>
		<g>
			<defs>
				<rect id="SVGID_55_" x="327" y="1007.7" width="38.1" height="17.4"/>
			</defs>
			<clipPath id="SVGID_56_">
				<use xlink:href="#SVGID_55_"  overflow="visible"/>
			</clipPath>
			<polygon clip-path="url(#SVGID_56_)" fill="#FF9321" points="327,1011.6 365.2,1011.6 365.2,1011.6 			"/>
		</g>
		<g>
			<defs>
				<rect id="SVGID_57_" x="327" y="1007.7" width="38.1" height="17.4"/>
			</defs>
			<clipPath id="SVGID_58_">
				<use xlink:href="#SVGID_57_"  overflow="visible"/>
			</clipPath>
			<polygon clip-path="url(#SVGID_58_)" fill="#FF9421" points="327,1012 365.2,1012 365.2,1012 			"/>
		</g>
		<g>
			<defs>
				<rect id="SVGID_59_" x="327" y="1007.7" width="38.1" height="17.4"/>
			</defs>
			<clipPath id="SVGID_60_">
				<use xlink:href="#SVGID_59_"  overflow="visible"/>
			</clipPath>
			<polygon clip-path="url(#SVGID_60_)" fill="#FF9521" points="327,1012 365.2,1012 365.2,1012 			"/>
		</g>
		<g>
			<defs>
				<rect id="SVGID_61_" x="327" y="1007.7" width="38.1" height="17.4"/>
			</defs>
			<clipPath id="SVGID_62_">
				<use xlink:href="#SVGID_61_"  overflow="visible"/>
			</clipPath>
			<polygon clip-path="url(#SVGID_62_)" fill="#FF9621" points="327,1012 365.2,1012 365.2,1012 			"/>
		</g>
		<g>
			<defs>
				<rect id="SVGID_63_" x="327" y="1007.7" width="38.1" height="17.4"/>
			</defs>
			<clipPath id="SVGID_64_">
				<use xlink:href="#SVGID_63_"  overflow="visible"/>
			</clipPath>
			<polygon clip-path="url(#SVGID_64_)" fill="#FF9721" points="327,1012.3 365.2,1012.3 365.2,1012.3 			"/>
		</g>
		<g>
			<defs>
				<rect id="SVGID_65_" x="327" y="1007.7" width="38.1" height="17.4"/>
			</defs>
			<clipPath id="SVGID_66_">
				<use xlink:href="#SVGID_65_"  overflow="visible"/>
			</clipPath>
			<polygon clip-path="url(#SVGID_66_)" fill="#FF9821" points="327,1012.3 365.2,1012.3 365.2,1012.3 			"/>
		</g>
		<g>
			<defs>
				<rect id="SVGID_67_" x="327" y="1007.7" width="38.1" height="17.4"/>
			</defs>
			<clipPath id="SVGID_68_">
				<use xlink:href="#SVGID_67_"  overflow="visible"/>
			</clipPath>
			<polygon clip-path="url(#SVGID_68_)" fill="#FF9921" points="327,1012.6 365.2,1012.6 365.2,1012.6 			"/>
		</g>
		<g>
			<defs>
				<rect id="SVGID_69_" x="327" y="1007.7" width="38.1" height="17.4"/>
			</defs>
			<clipPath id="SVGID_70_">
				<use xlink:href="#SVGID_69_"  overflow="visible"/>
			</clipPath>
			<polygon clip-path="url(#SVGID_70_)" fill="#FF9A21" points="327,1012.6 365.2,1012.6 365.2,1012.6 			"/>
		</g>
		<g>
			<defs>
				<rect id="SVGID_71_" x="327" y="1007.7" width="38.1" height="17.4"/>
			</defs>
			<clipPath id="SVGID_72_">
				<use xlink:href="#SVGID_71_"  overflow="visible"/>
			</clipPath>
			<polygon clip-path="url(#SVGID_72_)" fill="#FF9B21" points="327,1012.9 365.2,1012.9 365.2,1012.9 			"/>
		</g>
		<g>
			<defs>
				<rect id="SVGID_73_" x="327" y="1007.7" width="38.1" height="17.4"/>
			</defs>
			<clipPath id="SVGID_74_">
				<use xlink:href="#SVGID_73_"  overflow="visible"/>
			</clipPath>
			<polygon clip-path="url(#SVGID_74_)" fill="#FF9C21" points="327,1012.9 365.2,1012.9 365.2,1012.9 			"/>
		</g>
		<g>
			<defs>
				<rect id="SVGID_75_" x="327" y="1007.7" width="38.1" height="17.4"/>
			</defs>
			<clipPath id="SVGID_76_">
				<use xlink:href="#SVGID_75_"  overflow="visible"/>
			</clipPath>
			<polygon clip-path="url(#SVGID_76_)" fill="#FF9D21" points="327,1013.3 365.2,1013.3 365.2,1013.3 			"/>
		</g>
		<g>
			<defs>
				<rect id="SVGID_77_" x="327" y="1007.7" width="38.1" height="17.4"/>
			</defs>
			<clipPath id="SVGID_78_">
				<use xlink:href="#SVGID_77_"  overflow="visible"/>
			</clipPath>
			<polygon clip-path="url(#SVGID_78_)" fill="#FF9E21" points="327,1013.3 365.2,1013.3 365.2,1013.3 			"/>
		</g>
		<g>
			<defs>
				<rect id="SVGID_79_" x="327" y="1007.7" width="38.1" height="17.4"/>
			</defs>
			<clipPath id="SVGID_80_">
				<use xlink:href="#SVGID_79_"  overflow="visible"/>
			</clipPath>
			<polygon clip-path="url(#SVGID_80_)" fill="#FF9F21" points="327,1013.6 365.2,1013.6 365.2,1013.6 			"/>
		</g>
		<g>
			<defs>
				<rect id="SVGID_81_" x="327" y="1007.7" width="38.1" height="17.4"/>
			</defs>
			<clipPath id="SVGID_82_">
				<use xlink:href="#SVGID_81_"  overflow="visible"/>
			</clipPath>
			<polygon clip-path="url(#SVGID_82_)" fill="#FFA021" points="327,1013.6 365.2,1013.6 365.2,1013.6 			"/>
		</g>
		<g>
			<defs>
				<rect id="SVGID_83_" x="327" y="1007.7" width="38.1" height="17.4"/>
			</defs>
			<clipPath id="SVGID_84_">
				<use xlink:href="#SVGID_83_"  overflow="visible"/>
			</clipPath>
			<polygon clip-path="url(#SVGID_84_)" fill="#FFA122" points="327,1013.9 365.2,1013.9 365.2,1013.9 			"/>
		</g>
		<g>
			<defs>
				<rect id="SVGID_85_" x="327" y="1007.7" width="38.1" height="17.4"/>
			</defs>
			<clipPath id="SVGID_86_">
				<use xlink:href="#SVGID_85_"  overflow="visible"/>
			</clipPath>
			<polygon clip-path="url(#SVGID_86_)" fill="#FFA122" points="327,1013.9 365.2,1013.9 365.2,1013.9 			"/>
		</g>
		<g>
			<defs>
				<rect id="SVGID_87_" x="327" y="1007.7" width="38.1" height="17.4"/>
			</defs>
			<clipPath id="SVGID_88_">
				<use xlink:href="#SVGID_87_"  overflow="visible"/>
			</clipPath>
			<polygon clip-path="url(#SVGID_88_)" fill="#FFA222" points="327,1013.9 365.2,1013.9 365.2,1013.9 			"/>
		</g>
		<g>
			<defs>
				<rect id="SVGID_89_" x="327" y="1007.7" width="38.1" height="17.4"/>
			</defs>
			<clipPath id="SVGID_90_">
				<use xlink:href="#SVGID_89_"  overflow="visible"/>
			</clipPath>
			<polygon clip-path="url(#SVGID_90_)" fill="#FFA322" points="327,1014.3 365.2,1014.3 365.2,1014.3 			"/>
		</g>
		<g>
			<defs>
				<rect id="SVGID_91_" x="327" y="1007.7" width="38.1" height="17.4"/>
			</defs>
			<clipPath id="SVGID_92_">
				<use xlink:href="#SVGID_91_"  overflow="visible"/>
			</clipPath>
			<polygon clip-path="url(#SVGID_92_)" fill="#FFA422" points="327,1014.3 365.2,1014.3 365.2,1014.3 			"/>
		</g>
		<g>
			<defs>
				<rect id="SVGID_93_" x="327" y="1007.7" width="38.1" height="17.4"/>
			</defs>
			<clipPath id="SVGID_94_">
				<use xlink:href="#SVGID_93_"  overflow="visible"/>
			</clipPath>
			<polygon clip-path="url(#SVGID_94_)" fill="#FFA422" points="327,1014.6 365.2,1014.6 365.2,1014.6 			"/>
		</g>
		<g>
			<defs>
				<rect id="SVGID_95_" x="327" y="1007.7" width="38.1" height="17.4"/>
			</defs>
			<clipPath id="SVGID_96_">
				<use xlink:href="#SVGID_95_"  overflow="visible"/>
			</clipPath>
			<polygon clip-path="url(#SVGID_96_)" fill="#FFA522" points="327,1014.6 365.2,1014.6 365.2,1014.6 			"/>
		</g>
		<g>
			<defs>
				<rect id="SVGID_97_" x="327" y="1007.7" width="38.1" height="17.4"/>
			</defs>
			<clipPath id="SVGID_98_">
				<use xlink:href="#SVGID_97_"  overflow="visible"/>
			</clipPath>
			<polygon clip-path="url(#SVGID_98_)" fill="#FFA522" points="327,1014.9 365.2,1014.9 365.2,1014.9 			"/>
		</g>
		<g>
			<defs>
				<rect id="SVGID_99_" x="327" y="1007.7" width="38.1" height="17.4"/>
			</defs>
			<clipPath id="SVGID_100_">
				<use xlink:href="#SVGID_99_"  overflow="visible"/>
			</clipPath>
			<polygon clip-path="url(#SVGID_100_)" fill="#FFA622" points="327,1014.9 365.2,1014.9 365.2,1014.9 			"/>
		</g>
		<g>
			<defs>
				<rect id="SVGID_101_" x="327" y="1007.7" width="38.1" height="17.4"/>
			</defs>
			<clipPath id="SVGID_102_">
				<use xlink:href="#SVGID_101_"  overflow="visible"/>
			</clipPath>
			<polygon clip-path="url(#SVGID_102_)" fill="#FFA722" points="327,1015.2 365.2,1015.2 365.2,1015.2 			"/>
		</g>
		<g>
			<defs>
				<rect id="SVGID_103_" x="327" y="1007.7" width="38.1" height="17.4"/>
			</defs>
			<clipPath id="SVGID_104_">
				<use xlink:href="#SVGID_103_"  overflow="visible"/>
			</clipPath>
			<polygon clip-path="url(#SVGID_104_)" fill="#FFA722" points="327,1015.2 365.2,1015.2 365.2,1015.2 			"/>
		</g>
		<g>
			<defs>
				<rect id="SVGID_105_" x="327" y="1007.7" width="38.1" height="17.4"/>
			</defs>
			<clipPath id="SVGID_106_">
				<use xlink:href="#SVGID_105_"  overflow="visible"/>
			</clipPath>
			<polygon clip-path="url(#SVGID_106_)" fill="#FFA822" points="327,1015.6 365.2,1015.6 365.2,1015.6 			"/>
		</g>
		<g>
			<defs>
				<rect id="SVGID_107_" x="327" y="1007.7" width="38.1" height="17.4"/>
			</defs>
			<clipPath id="SVGID_108_">
				<use xlink:href="#SVGID_107_"  overflow="visible"/>
			</clipPath>
			<polygon clip-path="url(#SVGID_108_)" fill="#FFA822" points="327,1015.6 365.2,1015.6 365.2,1015.6 			"/>
		</g>
		<g>
			<defs>
				<rect id="SVGID_109_" x="327" y="1007.7" width="38.1" height="17.4"/>
			</defs>
			<clipPath id="SVGID_110_">
				<use xlink:href="#SVGID_109_"  overflow="visible"/>
			</clipPath>
			<polygon clip-path="url(#SVGID_110_)" fill="#FFA822" points="327,1015.9 365.2,1015.9 365.2,1015.9 			"/>
		</g>
		<g>
			<defs>
				<rect id="SVGID_111_" x="327" y="1007.7" width="38.1" height="17.4"/>
			</defs>
			<clipPath id="SVGID_112_">
				<use xlink:href="#SVGID_111_"  overflow="visible"/>
			</clipPath>
			<polygon clip-path="url(#SVGID_112_)" fill="#FFA922" points="327,1015.9 365.2,1015.9 365.2,1015.9 			"/>
		</g>
		<g>
			<defs>
				<rect id="SVGID_113_" x="327" y="1007.7" width="38.1" height="17.4"/>
			</defs>
			<clipPath id="SVGID_114_">
				<use xlink:href="#SVGID_113_"  overflow="visible"/>
			</clipPath>
			<polygon clip-path="url(#SVGID_114_)" fill="#FFA922" points="327,1015.9 365.2,1015.9 365.2,1015.9 			"/>
		</g>
		<g>
			<defs>
				<rect id="SVGID_115_" x="327" y="1007.7" width="38.1" height="17.4"/>
			</defs>
			<clipPath id="SVGID_116_">
				<use xlink:href="#SVGID_115_"  overflow="visible"/>
			</clipPath>
			<polygon clip-path="url(#SVGID_116_)" fill="#FFA922" points="327,1016.2 365.2,1016.2 365.2,1016.2 			"/>
		</g>
		<g>
			<defs>
				<rect id="SVGID_117_" x="327" y="1007.7" width="38.1" height="17.4"/>
			</defs>
			<clipPath id="SVGID_118_">
				<use xlink:href="#SVGID_117_"  overflow="visible"/>
			</clipPath>
			<polygon clip-path="url(#SVGID_118_)" fill="#FFAA22" points="327,1016.2 365.2,1016.2 365.2,1016.2 			"/>
		</g>
		<g>
			<defs>
				<rect id="SVGID_119_" x="327" y="1007.7" width="38.1" height="17.4"/>
			</defs>
			<clipPath id="SVGID_120_">
				<use xlink:href="#SVGID_119_"  overflow="visible"/>
			</clipPath>
			<polygon clip-path="url(#SVGID_120_)" fill="#FFAA22" points="327,1016.6 365.2,1016.6 365.2,1016.6 			"/>
		</g>
		<g>
			<defs>
				<rect id="SVGID_121_" x="327" y="1007.7" width="38.1" height="17.4"/>
			</defs>
			<clipPath id="SVGID_122_">
				<use xlink:href="#SVGID_121_"  overflow="visible"/>
			</clipPath>
			<polygon clip-path="url(#SVGID_122_)" fill="#FFAA22" points="327,1016.6 365.2,1016.6 365.2,1016.6 			"/>
		</g>
		<g>
			<defs>
				<rect id="SVGID_123_" x="327" y="1007.7" width="38.1" height="17.4"/>
			</defs>
			<clipPath id="SVGID_124_">
				<use xlink:href="#SVGID_123_"  overflow="visible"/>
			</clipPath>
			<polygon clip-path="url(#SVGID_124_)" fill="#FFAA22" points="327,1016.9 365.2,1016.9 365.2,1016.9 			"/>
		</g>
		<g>
			<defs>
				<rect id="SVGID_125_" x="327" y="1007.7" width="38.1" height="17.4"/>
			</defs>
			<clipPath id="SVGID_126_">
				<use xlink:href="#SVGID_125_"  overflow="visible"/>
			</clipPath>
			<rect x="327" y="1016.9" clip-path="url(#SVGID_126_)" fill="#FFAA22" width="38.1" height="7.9"/>
		</g>
	</g>
</g>
<g opacity="0.15">
	<polygon fill="#231F20" points="396.4,931.4 389.8,931.4 389.8,952.1 421.4,952.1 	"/>
</g>
<g opacity="0.15">
	<rect x="327" y="1123.7" fill="#231F20" width="40.4" height="6.2"/>
</g>
<g>
	<polygon fill="#FFCA22" points="469.7,951.8 406.2,951.8 413.8,932.4 462.1,932.4 	"/>
</g>
<g opacity="0.1">
	<path fill="#231F20" d="M409.5,943.3c9.2,2.3,19.1,3.3,28.9,3.3c9.5,0,18.7-1,27.9-3l-4.3-11.2h-48.3L409.5,943.3z"/>
</g>
<g>
	<path fill="#FFCA22" d="M513.4,1124v16.8c0,8.2,7.6,14.8,16.8,14.8h4.6c9.2,0,16.8-6.6,16.8-14.8V1124H513.4z"/>
</g>
<g>
	<path fill="#F7A123" d="M511.1,946.9c22.4,0,40.4,18.1,40.4,40.4V1124h-40.4v-115.7v-12.8V946.9z"/>
</g>
<g>
	<g>
		<g>
			<defs>
				<rect id="SVGID_127_" x="513.4" y="1007.7" width="38.1" height="17.4"/>
			</defs>
			<clipPath id="SVGID_128_">
				<use xlink:href="#SVGID_127_"  overflow="visible"/>
			</clipPath>
			<polygon clip-path="url(#SVGID_128_)" fill="#FF6D1F" points="513.4,1007.7 551.5,1007.7 551.5,1007.7 			"/>
		</g>
		<g>
			<defs>
				<rect id="SVGID_129_" x="513.4" y="1007.7" width="38.1" height="17.4"/>
			</defs>
			<clipPath id="SVGID_130_">
				<use xlink:href="#SVGID_129_"  overflow="visible"/>
			</clipPath>
			<polygon clip-path="url(#SVGID_130_)" fill="#FF6D1F" points="513.4,1008 551.5,1008 551.5,1008 			"/>
		</g>
		<g>
			<defs>
				<rect id="SVGID_131_" x="513.4" y="1007.7" width="38.1" height="17.4"/>
			</defs>
			<clipPath id="SVGID_132_">
				<use xlink:href="#SVGID_131_"  overflow="visible"/>
			</clipPath>
			<polygon clip-path="url(#SVGID_132_)" fill="#FF6F1F" points="513.4,1008 551.5,1008 551.5,1008 			"/>
		</g>
		<g>
			<defs>
				<rect id="SVGID_133_" x="513.4" y="1007.7" width="38.1" height="17.4"/>
			</defs>
			<clipPath id="SVGID_134_">
				<use xlink:href="#SVGID_133_"  overflow="visible"/>
			</clipPath>
			<polygon clip-path="url(#SVGID_134_)" fill="#FF701F" points="513.4,1008.3 551.5,1008.3 551.5,1008.3 			"/>
		</g>
		<g>
			<defs>
				<rect id="SVGID_135_" x="513.4" y="1007.7" width="38.1" height="17.4"/>
			</defs>
			<clipPath id="SVGID_136_">
				<use xlink:href="#SVGID_135_"  overflow="visible"/>
			</clipPath>
			<polygon clip-path="url(#SVGID_136_)" fill="#FF721F" points="513.4,1008.3 551.5,1008.3 551.5,1008.3 			"/>
		</g>
		<g>
			<defs>
				<rect id="SVGID_137_" x="513.4" y="1007.7" width="38.1" height="17.4"/>
			</defs>
			<clipPath id="SVGID_138_">
				<use xlink:href="#SVGID_137_"  overflow="visible"/>
			</clipPath>
			<polygon clip-path="url(#SVGID_138_)" fill="#FF741F" points="513.4,1008.7 551.5,1008.7 551.5,1008.7 			"/>
		</g>
		<g>
			<defs>
				<rect id="SVGID_139_" x="513.4" y="1007.7" width="38.1" height="17.4"/>
			</defs>
			<clipPath id="SVGID_140_">
				<use xlink:href="#SVGID_139_"  overflow="visible"/>
			</clipPath>
			<polygon clip-path="url(#SVGID_140_)" fill="#FF751F" points="513.4,1008.7 551.5,1008.7 551.5,1008.7 			"/>
		</g>
		<g>
			<defs>
				<rect id="SVGID_141_" x="513.4" y="1007.7" width="38.1" height="17.4"/>
			</defs>
			<clipPath id="SVGID_142_">
				<use xlink:href="#SVGID_141_"  overflow="visible"/>
			</clipPath>
			<polygon clip-path="url(#SVGID_142_)" fill="#FF771F" points="513.4,1009 551.5,1009 551.5,1009 			"/>
		</g>
		<g>
			<defs>
				<rect id="SVGID_143_" x="513.4" y="1007.7" width="38.1" height="17.4"/>
			</defs>
			<clipPath id="SVGID_144_">
				<use xlink:href="#SVGID_143_"  overflow="visible"/>
			</clipPath>
			<polygon clip-path="url(#SVGID_144_)" fill="#FF7920" points="513.4,1009 551.5,1009 551.5,1009 			"/>
		</g>
		<g>
			<defs>
				<rect id="SVGID_145_" x="513.4" y="1007.7" width="38.1" height="17.4"/>
			</defs>
			<clipPath id="SVGID_146_">
				<use xlink:href="#SVGID_145_"  overflow="visible"/>
			</clipPath>
			<polygon clip-path="url(#SVGID_146_)" fill="#FF7A20" points="513.4,1009.3 551.5,1009.3 551.5,1009.3 			"/>
		</g>
		<g>
			<defs>
				<rect id="SVGID_147_" x="513.4" y="1007.7" width="38.1" height="17.4"/>
			</defs>
			<clipPath id="SVGID_148_">
				<use xlink:href="#SVGID_147_"  overflow="visible"/>
			</clipPath>
			<polygon clip-path="url(#SVGID_148_)" fill="#FF7C20" points="513.4,1009.3 551.5,1009.3 551.5,1009.3 			"/>
		</g>
		<g>
			<defs>
				<rect id="SVGID_149_" x="513.4" y="1007.7" width="38.1" height="17.4"/>
			</defs>
			<clipPath id="SVGID_150_">
				<use xlink:href="#SVGID_149_"  overflow="visible"/>
			</clipPath>
			<polygon clip-path="url(#SVGID_150_)" fill="#FF7D20" points="513.4,1009.3 551.5,1009.3 551.5,1009.3 			"/>
		</g>
		<g>
			<defs>
				<rect id="SVGID_151_" x="513.4" y="1007.7" width="38.1" height="17.4"/>
			</defs>
			<clipPath id="SVGID_152_">
				<use xlink:href="#SVGID_151_"  overflow="visible"/>
			</clipPath>
			<polygon clip-path="url(#SVGID_152_)" fill="#FF7F20" points="513.4,1009.7 551.5,1009.7 551.5,1009.7 			"/>
		</g>
		<g>
			<defs>
				<rect id="SVGID_153_" x="513.4" y="1007.7" width="38.1" height="17.4"/>
			</defs>
			<clipPath id="SVGID_154_">
				<use xlink:href="#SVGID_153_"  overflow="visible"/>
			</clipPath>
			<polygon clip-path="url(#SVGID_154_)" fill="#FF8020" points="513.4,1009.7 551.5,1009.7 551.5,1009.7 			"/>
		</g>
		<g>
			<defs>
				<rect id="SVGID_155_" x="513.4" y="1007.7" width="38.1" height="17.4"/>
			</defs>
			<clipPath id="SVGID_156_">
				<use xlink:href="#SVGID_155_"  overflow="visible"/>
			</clipPath>
			<polygon clip-path="url(#SVGID_156_)" fill="#FF8220" points="513.4,1010 551.5,1010 551.5,1010 			"/>
		</g>
		<g>
			<defs>
				<rect id="SVGID_157_" x="513.4" y="1007.7" width="38.1" height="17.4"/>
			</defs>
			<clipPath id="SVGID_158_">
				<use xlink:href="#SVGID_157_"  overflow="visible"/>
			</clipPath>
			<polygon clip-path="url(#SVGID_158_)" fill="#FF8320" points="513.4,1010 551.5,1010 551.5,1010 			"/>
		</g>
		<g>
			<defs>
				<rect id="SVGID_159_" x="513.4" y="1007.7" width="38.1" height="17.4"/>
			</defs>
			<clipPath id="SVGID_160_">
				<use xlink:href="#SVGID_159_"  overflow="visible"/>
			</clipPath>
			<polygon clip-path="url(#SVGID_160_)" fill="#FF8520" points="513.4,1010.3 551.5,1010.3 551.5,1010.3 			"/>
		</g>
		<g>
			<defs>
				<rect id="SVGID_161_" x="513.4" y="1007.7" width="38.1" height="17.4"/>
			</defs>
			<clipPath id="SVGID_162_">
				<use xlink:href="#SVGID_161_"  overflow="visible"/>
			</clipPath>
			<polygon clip-path="url(#SVGID_162_)" fill="#FF8620" points="513.4,1010.3 551.5,1010.3 551.5,1010.3 			"/>
		</g>
		<g>
			<defs>
				<rect id="SVGID_163_" x="513.4" y="1007.7" width="38.1" height="17.4"/>
			</defs>
			<clipPath id="SVGID_164_">
				<use xlink:href="#SVGID_163_"  overflow="visible"/>
			</clipPath>
			<polygon clip-path="url(#SVGID_164_)" fill="#FF8720" points="513.4,1010.6 551.5,1010.6 551.5,1010.6 			"/>
		</g>
		<g>
			<defs>
				<rect id="SVGID_165_" x="513.4" y="1007.7" width="38.1" height="17.4"/>
			</defs>
			<clipPath id="SVGID_166_">
				<use xlink:href="#SVGID_165_"  overflow="visible"/>
			</clipPath>
			<polygon clip-path="url(#SVGID_166_)" fill="#FF8920" points="513.4,1010.6 551.5,1010.6 551.5,1010.6 			"/>
		</g>
		<g>
			<defs>
				<rect id="SVGID_167_" x="513.4" y="1007.7" width="38.1" height="17.4"/>
			</defs>
			<clipPath id="SVGID_168_">
				<use xlink:href="#SVGID_167_"  overflow="visible"/>
			</clipPath>
			<polygon clip-path="url(#SVGID_168_)" fill="#FF8A20" points="513.4,1011 551.5,1011 551.5,1011 			"/>
		</g>
		<g>
			<defs>
				<rect id="SVGID_169_" x="513.4" y="1007.7" width="38.1" height="17.4"/>
			</defs>
			<clipPath id="SVGID_170_">
				<use xlink:href="#SVGID_169_"  overflow="visible"/>
			</clipPath>
			<polygon clip-path="url(#SVGID_170_)" fill="#FF8B20" points="513.4,1011 551.5,1011 551.5,1011 			"/>
		</g>
		<g>
			<defs>
				<rect id="SVGID_171_" x="513.4" y="1007.7" width="38.1" height="17.4"/>
			</defs>
			<clipPath id="SVGID_172_">
				<use xlink:href="#SVGID_171_"  overflow="visible"/>
			</clipPath>
			<polygon clip-path="url(#SVGID_172_)" fill="#FF8D21" points="513.4,1011 551.5,1011 551.5,1011 			"/>
		</g>
		<g>
			<defs>
				<rect id="SVGID_173_" x="513.4" y="1007.7" width="38.1" height="17.4"/>
			</defs>
			<clipPath id="SVGID_174_">
				<use xlink:href="#SVGID_173_"  overflow="visible"/>
			</clipPath>
			<polygon clip-path="url(#SVGID_174_)" fill="#FF8E21" points="513.4,1011.3 551.5,1011.3 551.5,1011.3 			"/>
		</g>
		<g>
			<defs>
				<rect id="SVGID_175_" x="513.4" y="1007.7" width="38.1" height="17.4"/>
			</defs>
			<clipPath id="SVGID_176_">
				<use xlink:href="#SVGID_175_"  overflow="visible"/>
			</clipPath>
			<polygon clip-path="url(#SVGID_176_)" fill="#FF8F21" points="513.4,1011.3 551.5,1011.3 551.5,1011.3 			"/>
		</g>
		<g>
			<defs>
				<rect id="SVGID_177_" x="513.4" y="1007.7" width="38.1" height="17.4"/>
			</defs>
			<clipPath id="SVGID_178_">
				<use xlink:href="#SVGID_177_"  overflow="visible"/>
			</clipPath>
			<polygon clip-path="url(#SVGID_178_)" fill="#FF9021" points="513.4,1011.6 551.5,1011.6 551.5,1011.6 			"/>
		</g>
		<g>
			<defs>
				<rect id="SVGID_179_" x="513.4" y="1007.7" width="38.1" height="17.4"/>
			</defs>
			<clipPath id="SVGID_180_">
				<use xlink:href="#SVGID_179_"  overflow="visible"/>
			</clipPath>
			<polygon clip-path="url(#SVGID_180_)" fill="#FF9221" points="513.4,1011.6 551.5,1011.6 551.5,1011.6 			"/>
		</g>
		<g>
			<defs>
				<rect id="SVGID_181_" x="513.4" y="1007.7" width="38.1" height="17.4"/>
			</defs>
			<clipPath id="SVGID_182_">
				<use xlink:href="#SVGID_181_"  overflow="visible"/>
			</clipPath>
			<polygon clip-path="url(#SVGID_182_)" fill="#FF9321" points="513.4,1012 551.5,1012 551.5,1012 			"/>
		</g>
		<g>
			<defs>
				<rect id="SVGID_183_" x="513.4" y="1007.7" width="38.1" height="17.4"/>
			</defs>
			<clipPath id="SVGID_184_">
				<use xlink:href="#SVGID_183_"  overflow="visible"/>
			</clipPath>
			<polygon clip-path="url(#SVGID_184_)" fill="#FF9421" points="513.4,1012 551.5,1012 551.5,1012 			"/>
		</g>
		<g>
			<defs>
				<rect id="SVGID_185_" x="513.4" y="1007.7" width="38.1" height="17.4"/>
			</defs>
			<clipPath id="SVGID_186_">
				<use xlink:href="#SVGID_185_"  overflow="visible"/>
			</clipPath>
			<polygon clip-path="url(#SVGID_186_)" fill="#FF9521" points="513.4,1012.3 551.5,1012.3 551.5,1012.3 			"/>
		</g>
		<g>
			<defs>
				<rect id="SVGID_187_" x="513.4" y="1007.7" width="38.1" height="17.4"/>
			</defs>
			<clipPath id="SVGID_188_">
				<use xlink:href="#SVGID_187_"  overflow="visible"/>
			</clipPath>
			<polygon clip-path="url(#SVGID_188_)" fill="#FF9621" points="513.4,1012.3 551.5,1012.3 551.5,1012.3 			"/>
		</g>
		<g>
			<defs>
				<rect id="SVGID_189_" x="513.4" y="1007.7" width="38.1" height="17.4"/>
			</defs>
			<clipPath id="SVGID_190_">
				<use xlink:href="#SVGID_189_"  overflow="visible"/>
			</clipPath>
			<polygon clip-path="url(#SVGID_190_)" fill="#FF9721" points="513.4,1012.6 551.5,1012.6 551.5,1012.6 			"/>
		</g>
		<g>
			<defs>
				<rect id="SVGID_191_" x="513.4" y="1007.7" width="38.1" height="17.4"/>
			</defs>
			<clipPath id="SVGID_192_">
				<use xlink:href="#SVGID_191_"  overflow="visible"/>
			</clipPath>
			<polygon clip-path="url(#SVGID_192_)" fill="#FF9821" points="513.4,1012.6 551.5,1012.6 551.5,1012.6 			"/>
		</g>
		<g>
			<defs>
				<rect id="SVGID_193_" x="513.4" y="1007.7" width="38.1" height="17.4"/>
			</defs>
			<clipPath id="SVGID_194_">
				<use xlink:href="#SVGID_193_"  overflow="visible"/>
			</clipPath>
			<polygon clip-path="url(#SVGID_194_)" fill="#FF9921" points="513.4,1012.9 551.5,1012.9 551.5,1012.9 			"/>
		</g>
		<g>
			<defs>
				<rect id="SVGID_195_" x="513.4" y="1007.7" width="38.1" height="17.4"/>
			</defs>
			<clipPath id="SVGID_196_">
				<use xlink:href="#SVGID_195_"  overflow="visible"/>
			</clipPath>
			<polygon clip-path="url(#SVGID_196_)" fill="#FF9A21" points="513.4,1012.9 551.5,1012.9 551.5,1012.9 			"/>
		</g>
		<g>
			<defs>
				<rect id="SVGID_197_" x="513.4" y="1007.7" width="38.1" height="17.4"/>
			</defs>
			<clipPath id="SVGID_198_">
				<use xlink:href="#SVGID_197_"  overflow="visible"/>
			</clipPath>
			<polygon clip-path="url(#SVGID_198_)" fill="#FF9B21" points="513.4,1012.9 551.5,1012.9 551.5,1012.9 			"/>
		</g>
		<g>
			<defs>
				<rect id="SVGID_199_" x="513.4" y="1007.7" width="38.1" height="17.4"/>
			</defs>
			<clipPath id="SVGID_200_">
				<use xlink:href="#SVGID_199_"  overflow="visible"/>
			</clipPath>
			<polygon clip-path="url(#SVGID_200_)" fill="#FF9C21" points="513.4,1013.3 551.5,1013.3 551.5,1013.3 			"/>
		</g>
		<g>
			<defs>
				<rect id="SVGID_201_" x="513.4" y="1007.7" width="38.1" height="17.4"/>
			</defs>
			<clipPath id="SVGID_202_">
				<use xlink:href="#SVGID_201_"  overflow="visible"/>
			</clipPath>
			<polygon clip-path="url(#SVGID_202_)" fill="#FF9D21" points="513.4,1013.3 551.5,1013.3 551.5,1013.3 			"/>
		</g>
		<g>
			<defs>
				<rect id="SVGID_203_" x="513.4" y="1007.7" width="38.1" height="17.4"/>
			</defs>
			<clipPath id="SVGID_204_">
				<use xlink:href="#SVGID_203_"  overflow="visible"/>
			</clipPath>
			<polygon clip-path="url(#SVGID_204_)" fill="#FF9E21" points="513.4,1013.6 551.5,1013.6 551.5,1013.6 			"/>
		</g>
		<g>
			<defs>
				<rect id="SVGID_205_" x="513.4" y="1007.7" width="38.1" height="17.4"/>
			</defs>
			<clipPath id="SVGID_206_">
				<use xlink:href="#SVGID_205_"  overflow="visible"/>
			</clipPath>
			<polygon clip-path="url(#SVGID_206_)" fill="#FF9F21" points="513.4,1013.6 551.5,1013.6 551.5,1013.6 			"/>
		</g>
		<g>
			<defs>
				<rect id="SVGID_207_" x="513.4" y="1007.7" width="38.1" height="17.4"/>
			</defs>
			<clipPath id="SVGID_208_">
				<use xlink:href="#SVGID_207_"  overflow="visible"/>
			</clipPath>
			<polygon clip-path="url(#SVGID_208_)" fill="#FFA021" points="513.4,1013.9 551.5,1013.9 551.5,1013.9 			"/>
		</g>
		<g>
			<defs>
				<rect id="SVGID_209_" x="513.4" y="1007.7" width="38.1" height="17.4"/>
			</defs>
			<clipPath id="SVGID_210_">
				<use xlink:href="#SVGID_209_"  overflow="visible"/>
			</clipPath>
			<polygon clip-path="url(#SVGID_210_)" fill="#FFA122" points="513.4,1013.9 551.5,1013.9 551.5,1013.9 			"/>
		</g>
		<g>
			<defs>
				<rect id="SVGID_211_" x="513.4" y="1007.7" width="38.1" height="17.4"/>
			</defs>
			<clipPath id="SVGID_212_">
				<use xlink:href="#SVGID_211_"  overflow="visible"/>
			</clipPath>
			<polygon clip-path="url(#SVGID_212_)" fill="#FFA122" points="513.4,1014.3 551.5,1014.3 551.5,1014.3 			"/>
		</g>
		<g>
			<defs>
				<rect id="SVGID_213_" x="513.4" y="1007.7" width="38.1" height="17.4"/>
			</defs>
			<clipPath id="SVGID_214_">
				<use xlink:href="#SVGID_213_"  overflow="visible"/>
			</clipPath>
			<polygon clip-path="url(#SVGID_214_)" fill="#FFA222" points="513.4,1014.3 551.5,1014.3 551.5,1014.3 			"/>
		</g>
		<g>
			<defs>
				<rect id="SVGID_215_" x="513.4" y="1007.7" width="38.1" height="17.4"/>
			</defs>
			<clipPath id="SVGID_216_">
				<use xlink:href="#SVGID_215_"  overflow="visible"/>
			</clipPath>
			<polygon clip-path="url(#SVGID_216_)" fill="#FFA322" points="513.4,1014.6 551.5,1014.6 551.5,1014.6 			"/>
		</g>
		<g>
			<defs>
				<rect id="SVGID_217_" x="513.4" y="1007.7" width="38.1" height="17.4"/>
			</defs>
			<clipPath id="SVGID_218_">
				<use xlink:href="#SVGID_217_"  overflow="visible"/>
			</clipPath>
			<polygon clip-path="url(#SVGID_218_)" fill="#FFA422" points="513.4,1014.6 551.5,1014.6 551.5,1014.6 			"/>
		</g>
		<g>
			<defs>
				<rect id="SVGID_219_" x="513.4" y="1007.7" width="38.1" height="17.4"/>
			</defs>
			<clipPath id="SVGID_220_">
				<use xlink:href="#SVGID_219_"  overflow="visible"/>
			</clipPath>
			<polygon clip-path="url(#SVGID_220_)" fill="#FFA422" points="513.4,1014.6 551.5,1014.6 551.5,1014.6 			"/>
		</g>
		<g>
			<defs>
				<rect id="SVGID_221_" x="513.4" y="1007.7" width="38.1" height="17.4"/>
			</defs>
			<clipPath id="SVGID_222_">
				<use xlink:href="#SVGID_221_"  overflow="visible"/>
			</clipPath>
			<polygon clip-path="url(#SVGID_222_)" fill="#FFA522" points="513.4,1014.9 551.5,1014.9 551.5,1014.9 			"/>
		</g>
		<g>
			<defs>
				<rect id="SVGID_223_" x="513.4" y="1007.7" width="38.1" height="17.4"/>
			</defs>
			<clipPath id="SVGID_224_">
				<use xlink:href="#SVGID_223_"  overflow="visible"/>
			</clipPath>
			<polygon clip-path="url(#SVGID_224_)" fill="#FFA522" points="513.4,1014.9 551.5,1014.9 551.5,1014.9 			"/>
		</g>
		<g>
			<defs>
				<rect id="SVGID_225_" x="513.4" y="1007.7" width="38.1" height="17.4"/>
			</defs>
			<clipPath id="SVGID_226_">
				<use xlink:href="#SVGID_225_"  overflow="visible"/>
			</clipPath>
			<polygon clip-path="url(#SVGID_226_)" fill="#FFA622" points="513.4,1015.2 551.5,1015.2 551.5,1015.2 			"/>
		</g>
		<g>
			<defs>
				<rect id="SVGID_227_" x="513.4" y="1007.7" width="38.1" height="17.4"/>
			</defs>
			<clipPath id="SVGID_228_">
				<use xlink:href="#SVGID_227_"  overflow="visible"/>
			</clipPath>
			<polygon clip-path="url(#SVGID_228_)" fill="#FFA722" points="513.4,1015.2 551.5,1015.2 551.5,1015.2 			"/>
		</g>
		<g>
			<defs>
				<rect id="SVGID_229_" x="513.4" y="1007.7" width="38.1" height="17.4"/>
			</defs>
			<clipPath id="SVGID_230_">
				<use xlink:href="#SVGID_229_"  overflow="visible"/>
			</clipPath>
			<polygon clip-path="url(#SVGID_230_)" fill="#FFA722" points="513.4,1015.6 551.5,1015.6 551.5,1015.6 			"/>
		</g>
		<g>
			<defs>
				<rect id="SVGID_231_" x="513.4" y="1007.7" width="38.1" height="17.4"/>
			</defs>
			<clipPath id="SVGID_232_">
				<use xlink:href="#SVGID_231_"  overflow="visible"/>
			</clipPath>
			<polygon clip-path="url(#SVGID_232_)" fill="#FFA822" points="513.4,1015.6 551.5,1015.6 551.5,1015.6 			"/>
		</g>
		<g>
			<defs>
				<rect id="SVGID_233_" x="513.4" y="1007.7" width="38.1" height="17.4"/>
			</defs>
			<clipPath id="SVGID_234_">
				<use xlink:href="#SVGID_233_"  overflow="visible"/>
			</clipPath>
			<polygon clip-path="url(#SVGID_234_)" fill="#FFA822" points="513.4,1015.9 551.5,1015.9 551.5,1015.9 			"/>
		</g>
		<g>
			<defs>
				<rect id="SVGID_235_" x="513.4" y="1007.7" width="38.1" height="17.4"/>
			</defs>
			<clipPath id="SVGID_236_">
				<use xlink:href="#SVGID_235_"  overflow="visible"/>
			</clipPath>
			<polygon clip-path="url(#SVGID_236_)" fill="#FFA822" points="513.4,1015.9 551.5,1015.9 551.5,1015.9 			"/>
		</g>
		<g>
			<defs>
				<rect id="SVGID_237_" x="513.4" y="1007.7" width="38.1" height="17.4"/>
			</defs>
			<clipPath id="SVGID_238_">
				<use xlink:href="#SVGID_237_"  overflow="visible"/>
			</clipPath>
			<polygon clip-path="url(#SVGID_238_)" fill="#FFA922" points="513.4,1016.2 551.5,1016.2 551.5,1016.2 			"/>
		</g>
		<g>
			<defs>
				<rect id="SVGID_239_" x="513.4" y="1007.7" width="38.1" height="17.4"/>
			</defs>
			<clipPath id="SVGID_240_">
				<use xlink:href="#SVGID_239_"  overflow="visible"/>
			</clipPath>
			<polygon clip-path="url(#SVGID_240_)" fill="#FFA922" points="513.4,1016.2 551.5,1016.2 551.5,1016.2 			"/>
		</g>
		<g>
			<defs>
				<rect id="SVGID_241_" x="513.4" y="1007.7" width="38.1" height="17.4"/>
			</defs>
			<clipPath id="SVGID_242_">
				<use xlink:href="#SVGID_241_"  overflow="visible"/>
			</clipPath>
			<polygon clip-path="url(#SVGID_242_)" fill="#FFA922" points="513.4,1016.6 551.5,1016.6 551.5,1016.6 			"/>
		</g>
		<g>
			<defs>
				<rect id="SVGID_243_" x="513.4" y="1007.7" width="38.1" height="17.4"/>
			</defs>
			<clipPath id="SVGID_244_">
				<use xlink:href="#SVGID_243_"  overflow="visible"/>
			</clipPath>
			<polygon clip-path="url(#SVGID_244_)" fill="#FFAA22" points="513.4,1016.6 551.5,1016.6 551.5,1016.6 			"/>
		</g>
		<g>
			<defs>
				<rect id="SVGID_245_" x="513.4" y="1007.7" width="38.1" height="17.4"/>
			</defs>
			<clipPath id="SVGID_246_">
				<use xlink:href="#SVGID_245_"  overflow="visible"/>
			</clipPath>
			<polygon clip-path="url(#SVGID_246_)" fill="#FFAA22" points="513.4,1016.6 551.5,1016.6 551.5,1016.6 			"/>
		</g>
		<g>
			<defs>
				<rect id="SVGID_247_" x="513.4" y="1007.7" width="38.1" height="17.4"/>
			</defs>
			<clipPath id="SVGID_248_">
				<use xlink:href="#SVGID_247_"  overflow="visible"/>
			</clipPath>
			<polygon clip-path="url(#SVGID_248_)" fill="#FFAA22" points="513.4,1016.9 551.5,1016.9 551.5,1016.9 			"/>
		</g>
		<g>
			<defs>
				<rect id="SVGID_249_" x="513.4" y="1007.7" width="38.1" height="17.4"/>
			</defs>
			<clipPath id="SVGID_250_">
				<use xlink:href="#SVGID_249_"  overflow="visible"/>
			</clipPath>
			<polygon clip-path="url(#SVGID_250_)" fill="#FFAA22" points="513.4,1016.9 551.5,1016.9 551.5,1016.9 			"/>
		</g>
		<g>
			<defs>
				<rect id="SVGID_251_" x="513.4" y="1007.7" width="38.1" height="17.4"/>
			</defs>
			<clipPath id="SVGID_252_">
				<use xlink:href="#SVGID_251_"  overflow="visible"/>
			</clipPath>
			<rect x="513.4" y="1017.2" clip-path="url(#SVGID_252_)" fill="#FFAA22" width="38.1" height="7.9"/>
		</g>
	</g>
</g>
<g opacity="0.15">
	<rect x="511.1" y="1124" fill="#231F20" width="40.4" height="6.2"/>
</g>
<g>
	<polygon fill="#FFAA22" points="511.1,946.5 364.8,946.5 353.7,1117.8 522.3,1117.8 	"/>
</g>
<g>
	<circle fill="#FFD54E" cx="438.8" cy="826.6" r="113.7"/>
</g>
<g>
	<rect x="373" y="999.8" fill="#FFFFFF" width="58.2" height="5.6"/>
</g>
<g>
	<path fill="#FFCA22" d="M438.1,968.9c16.4,0,29.9-8.9,29.9-20c0-0.7,0-1.6-0.3-2.3h-59.5c0,0.7-0.3,1.6-0.3,2.3
		C408.2,960,421.4,968.9,438.1,968.9z"/>
</g>
<g>
	<path fill="#0F3B7A" d="M601.2,866c3.3-3.9,5.6-9.2,5.6-14.8c0-12.5-10.2-22.7-22.7-22.7c-0.3,0-0.3,0-0.7,0
		c0.3-2.3,0.7-4.9,0.7-7.2c0-20.7-16.4-37.5-36.8-38.5c-11.2-26.6-32.2-48.3-58.5-60.1c-15.8-8.2-33.9-13.1-52.9-13.1
		c-50.9,0-94,33.5-108.5,79.5c-2-0.3-3.6-0.3-5.6-0.3c-19.4,0-35.5,14.5-38.1,33.2h-0.3c-10.2,0-18.7,8.2-18.7,18.7
		c0,4.3,1.3,7.9,3.6,11.2c-7.6,2.3-13.1,9.5-13.1,17.7c0,9.2,6.6,16.8,15.4,18.4c-0.7,2.3-1.3,4.9-1.3,7.6c0,12.8,10.5,23,23,23
		c4.9,0,9.9-1.6,13.5-4.6c6.9,10.5,18.7,17.4,32.5,17.4c6.2,0,12.2-1.6,17.1-3.9c3.3,3,7.9,4.9,12.8,4.9c5.9,0,10.8-2.6,14.5-6.9
		c-22-12.5-39.4-32.2-49.3-55.9c11.2-2,20-11.2,20.7-22.7c2.3-3.9,3.9-8.2,4.9-12.5c52.6-8.9,90.7-41.4,115-70.7
		c16.4,9.9,60.5,39.4,77.6,75.6c-4.3,36.5-25.6,67.7-55.9,85.5c6.2,4.6,14.1,7.2,22.7,7.2c9.5,0,18.1-3.3,24.7-8.9
		c3.3,3.6,8.2,5.9,13.5,5.9c9.2,0,17.1-6.9,18.4-15.8c2,0.3,3.9,0.7,6.2,0.7c15.8,0,28.3-12.8,28.3-28.3
		C609.4,878.2,606.1,871.3,601.2,866z"/>
</g>
<g>
	<path fill="#081E3D" d="M511.1,1116.8v13.5c0,13.8-10.5,25.3-23.3,25.3h-99.6c-12.8,0-23.3-11.2-23.3-25.3v-13.5H511.1z"/>
</g>
<g>
	<polygon fill="#F1F1F2" points="435.5,968.9 389.8,968.9 389.8,931.4 	"/>
</g>
<g>
	<polygon fill="#F1F1F2" points="440.4,968.9 486.1,968.9 486.1,931.4 	"/>
</g>
<g>
	<polygon fill="#081E3D" points="416.8,1302.8 427.3,1146.4 384.9,1146.4 395.1,1302.8 	"/>
</g>
<g>
	<polygon fill="#081E3D" points="459.8,1302.8 449.3,1146.4 491.7,1146.4 481.5,1302.8 	"/>
</g>
<g>
	<path fill="#BFA75C" d="M427,1233.8h-40.1l3.6,53.2h-6.9c-2.3,0-4.3,0.7-6.2,2l-0.7,0.7c-7.9,5.9-3.6,18.4,6.2,18.4l0,0h8.9H422
		l0,0l1.3-21l0,0L427,1233.8z"/>
</g>
<g>
	<g>
		<path fill="#FFFFFF" d="M389.2,1276.2c-0.3,0-0.7,0-1-0.3c-0.7-0.7-0.7-1.6,0-2.3l7.9-8.5h-8.2c-1,0-1.6-0.7-1.6-1.6
			c0-1,0.7-1.6,1.6-1.6h11.5c0.7,0,1.3,0.3,1.6,1c0.3,0.7,0,1.3-0.3,1.6l-10.2,11.2C390.1,1275.9,389.5,1276.2,389.2,1276.2z"/>
	</g>
	<g>
		<path fill="#FFFFFF" d="M399.3,1277.5h-11.5c-1,0-1.6-0.7-1.6-1.6s0.7-1.6,1.6-1.6h11.5c1,0,1.6,0.7,1.6,1.6
			S400.3,1277.5,399.3,1277.5z"/>
	</g>
</g>
<g>
	<path fill="#8F8156" d="M373,1300.5c1.3,3.9,4.6,7.2,9.9,7.2l0,0h8.9H422l0,0l0.3-7.2H373z"/>
</g>
<g opacity="0.15">
	<path fill="#231F20" d="M418.1,1239.1c-1-1-2-1.6-3-2h-6.6c-1.3,0.3-2.3,1.3-3,2c-1-1-2-1.6-3-2h-6.6c-1.3,0.3-2.3,1.3-3,2
		c-1-1-2-1.6-3-2h-2.6l1,16.8c1.6-0.3,3.3-1.3,4.6-2.6c1.6,1.6,3.9,2.6,6.2,2.6c2.6,0,4.6-1,6.2-2.6c1.6,1.6,3.9,2.6,6.2,2.6
		c2.6,0,4.6-1,6.2-2.6c1.6,1.6,3.9,2.6,6.2,2.6c0.3,0,1,0,1.3,0l1-16.8h-5.9C420,1237.4,419.1,1238.1,418.1,1239.1z"/>
</g>
<g>
	<g>
		<circle fill="#FFFFFF" cx="386.2" cy="1238.7" r="8.9"/>
	</g>
	<g>
		<circle fill="#FFFFFF" cx="399" cy="1238.7" r="8.9"/>
	</g>
	<g>
		<circle fill="#FFFFFF" cx="411.8" cy="1238.7" r="8.9"/>
	</g>
	<g>
		<circle fill="#FFFFFF" cx="424.3" cy="1238.7" r="8.9"/>
	</g>
</g>
<g>
	<path fill="#BFA75C" d="M451.6,1233.8h40.1l-3.6,53.2h6.9c2.3,0,4.3,0.7,6.2,2l0.7,0.7c7.9,5.9,3.6,18.4-6.2,18.4l0,0h-9.2h-30.2
		l0,0l-1.3-21l0,0L451.6,1233.8z"/>
</g>
<g>
	<g>
		<path fill="#FFFFFF" d="M489.4,1276.2c-0.3,0-1-0.3-1.3-0.7l-10.2-11.2c-0.3-0.3-0.7-1.3-0.3-1.6c0.3-0.7,1-1,1.6-1h11.5
			c1,0,1.6,0.7,1.6,1.6c0,1-0.7,1.6-1.6,1.6h-7.9l7.9,8.5c0.7,0.7,0.7,1.6,0,2.3C490.1,1276.2,489.7,1276.2,489.4,1276.2z"/>
	</g>
	<g>
		<path fill="#FFFFFF" d="M490.4,1277.5h-11.5c-1,0-1.6-0.7-1.6-1.6s0.7-1.6,1.6-1.6h11.5c1,0,1.6,0.7,1.6,1.6
			S491.4,1277.5,490.4,1277.5z"/>
	</g>
</g>
<g>
	<path fill="#8F8156" d="M505.2,1300.5c-1.3,3.9-4.6,7.2-9.9,7.2l0,0h-8.9h-30.2l0,0l-0.3-7.2H505.2z"/>
</g>
<g opacity="0.15">
	<path fill="#231F20" d="M460.5,1239.1c1-1,2-1.6,3-2h6.6c1.3,0.3,2.3,1.3,3,2c1-1,2-1.6,3-2h6.6c1.3,0.3,2.3,1.3,3,2c1-1,2-1.6,3-2
		h2.6l-1,16.8c-1.6-0.3-3.3-1.3-4.6-2.6c-1.6,1.6-3.9,2.6-6.2,2.6c-2.6,0-4.6-1-6.2-2.6c-1.6,1.6-3.9,2.6-6.2,2.6
		c-2.6,0-4.6-1-6.2-2.6c-1.6,1.6-3.9,2.6-6.2,2.6c-0.3,0-1,0-1.3,0l-1-16.8h5.9C458.5,1237.4,459.5,1238.1,460.5,1239.1z"/>
</g>
<g>
	<g>
		<circle fill="#FFFFFF" cx="492" cy="1238.7" r="8.9"/>
	</g>
	<g>
		<circle fill="#FFFFFF" cx="479.5" cy="1238.7" r="8.9"/>
	</g>
	<g>
		<circle fill="#FFFFFF" cx="466.7" cy="1238.7" r="8.9"/>
	</g>
	<g>
		<circle fill="#FFFFFF" cx="453.9" cy="1238.7" r="8.9"/>
	</g>
</g>
<g>
	<path fill="#FFFFFF" d="M459.5,900.9c0,9.2-7.6,16.8-16.8,16.8s-16.8-7.6-16.8-16.8H459.5z"/>
</g>
<g>
	<path fill="#FF8A4C" d="M453.9,873.9c0,6.2-5.3,11.5-11.5,11.5s-11.5-5.3-11.5-11.5s5.3-23.3,11.5-23.3S453.9,867.3,453.9,873.9z"
		/>
</g>
<g>
	<g>
		<circle fill="#FFDF7A" cx="414.1" cy="868.3" r="3.9"/>
	</g>
	<g>
		<circle fill="#FFDF7A" cx="421.7" cy="850.6" r="3.9"/>
	</g>
	<g>
		<circle fill="#FFDF7A" cx="402.3" cy="852.5" r="3.9"/>
	</g>
	<g>
		<circle fill="#FFDF7A" cx="469.4" cy="868.3" r="3.9"/>
	</g>
	<g>
		<circle fill="#FFDF7A" cx="461.8" cy="850.6" r="3.9"/>
	</g>
	<g>
		<circle fill="#FFDF7A" cx="481.2" cy="852.5" r="3.9"/>
	</g>
</g>
<g>
	<g>
		<g>
			<path fill="#FF6D1F" d="M472,690.8c-5.9,21.4-29.3,34.2-52.3,28.6c-23-5.6-36.8-27.6-30.9-49c5.9-21.4,29.3-34.2,52.3-28.6
				C464.1,647.5,477.9,669.5,472,690.8z"/>
		</g>
		<g>
			<g>
				<path fill="#FF6D1F" d="M469.4,696.1c-3.9-1-5.9-4.6-5.3-8.2c0.7-3.6,4.9-5.6,8.5-4.6c3.6,1,5.9,4.6,5.3,8.2
					C477.2,694.8,473.3,696.8,469.4,696.1z"/>
			</g>
			<g>
				<path fill="#FF6D1F" d="M385.9,677.4c-3.9-1-5.9-4.6-5.3-8.2c0.7-3.6,4.9-5.6,8.5-4.6c3.6,1,5.9,4.6,5.3,8.2
					C393.8,676.4,389.8,678.3,385.9,677.4z"/>
			</g>
			<g>
				<g>
					<path fill="#FF6D1F" d="M413.1,717.5c1-3.6,4.9-5.6,8.5-4.6c3.9,1,5.9,4.6,5.3,8.2c-1,3.6-4.9,5.6-8.5,4.6
						C414.5,724.7,412.2,721.1,413.1,717.5z"/>
				</g>
				<g>
					<path fill="#FF6D1F" d="M432.2,639.6c1-3.6,4.9-5.6,8.5-4.6c3.9,1,5.9,4.6,5.3,8.2c-1,3.6-4.9,5.6-8.5,4.6
						C433.5,646.8,431.2,643.2,432.2,639.6z"/>
				</g>
			</g>
		</g>
		<g>
			<g>
				<path fill="#FF6D1F" d="M446,717.8c-2-3.3-1-7.2,2.6-9.2c3.3-2,7.6-0.7,9.9,2.3c2.3,3,1,7.2-2.6,9.2
					C452.6,722.1,448.3,720.7,446,717.8z"/>
			</g>
			<g>
				<path fill="#FF6D1F" d="M400.7,649.4c-2-3.3-1-7.2,2.6-9.2c3.3-2,7.6-0.7,9.9,2.3c2,3.3,1,7.2-2.6,9.2
					C406.9,653.7,402.6,652.7,400.7,649.4z"/>
			</g>
			<g>
				<g>
					<path fill="#FF6D1F" d="M389.5,695.4c3.3-2,7.6-0.7,9.9,2.3c2,3.3,1,7.2-2.6,9.2c-3.3,2-7.6,0.7-9.9-2.3
						C385.2,701.4,386.2,697.4,389.5,695.4z"/>
				</g>
				<g>
					<path fill="#FF6D1F" d="M462.1,653.7c3.3-2,7.6-0.7,9.9,2.3c2,3.3,1,7.2-2.6,9.2c-3.6,2-7.6,0.7-9.9-2.3
						C457.8,659.6,458.8,655.3,462.1,653.7z"/>
				</g>
			</g>
		</g>
		<g>
			<g>
				<path fill="#FF6D1F" d="M460.8,704c-3-1.6-4.3-5.6-2.3-8.5c2-3,5.9-3.9,8.9-2c3,1.6,4.3,5.6,2.3,8.5S463.8,706,460.8,704z"/>
			</g>
			<g>
				<path fill="#FF6D1F" d="M391.5,666.8c-3-1.6-4.3-5.6-2.3-8.5c2-3,5.9-3.9,8.9-2c3,1.6,4.3,5.6,2.3,8.5
					C398.7,667.8,394.4,668.8,391.5,666.8z"/>
			</g>
			<g>
				<g>
					<path fill="#FF6D1F" d="M404.3,709.2c2-3,5.9-3.9,8.9-2c3,1.6,4.3,5.6,2.3,8.5c-2,3-5.9,3.9-8.9,2
						C403.3,715.8,402.3,712.2,404.3,709.2z"/>
				</g>
				<g>
					<path fill="#FF6D1F" d="M443.4,644.8c2-3,5.9-3.9,8.9-2c3,1.6,4.3,5.6,2.3,8.5c-2,3-5.9,3.9-8.9,2
						C442.4,651.4,441.4,647.8,443.4,644.8z"/>
				</g>
			</g>
		</g>
		<g>
			<g>
				<path fill="#FF6D1F" d="M433.9,717.8c-1-3.3,1.3-6.6,4.9-7.6c3.6-0.7,7.2,1.3,7.9,4.6c1,3.3-1.3,6.6-4.9,7.6
					C438.1,723,434.5,721.1,433.9,717.8z"/>
			</g>
			<g>
				<path fill="#FF6D1F" d="M412.5,645.8c-1-3.3,1.3-6.6,4.9-7.6c3.6-0.7,7.2,1.3,7.9,4.6c1,3.3-1.3,6.6-4.9,7.6
					C416.8,651.1,413.1,649.1,412.5,645.8z"/>
			</g>
			<g>
				<g>
					<path fill="#FF6D1F" d="M389.5,683.9c3.6-0.7,7.2,1.3,7.9,4.6c1,3.3-1.3,6.6-4.9,7.6c-3.6,0.7-7.2-1.3-7.9-4.6
						C383.9,688.2,385.9,684.6,389.5,683.9z"/>
				</g>
				<g>
					<path fill="#FF6D1F" d="M466.1,664.5c3.6-0.7,7.2,1.3,7.9,4.6c0.7,3.3-1.3,6.6-4.9,7.6c-3.6,0.7-7.2-1.3-7.9-4.6
						C460.5,668.8,462.8,665.5,466.1,664.5z"/>
				</g>
			</g>
		</g>
		<g>
			<g>
				<path fill="#FF6D1F" d="M454.9,709.6c-2.6-2.3-3-6.2-0.3-8.5c2.3-2.6,6.6-2.6,9.2-0.3c2.6,2.3,3,6.2,0.3,8.5
					C461.8,711.5,457.5,711.9,454.9,709.6z"/>
			</g>
			<g>
				<path fill="#FF6D1F" d="M395.1,659.9c-2.6-2.3-3-6.2-0.3-8.5c2.3-2.6,6.6-2.6,9.2-0.3c2.6,2.3,3,6.2,0.3,8.5
					C401.6,661.9,397.7,662.2,395.1,659.9z"/>
			</g>
			<g>
				<g>
					<path fill="#FF6D1F" d="M398.4,704c2.3-2.6,6.6-2.6,9.2-0.3c2.6,2.3,3,6.2,0.3,8.5c-2.3,2.6-6.6,2.6-9.2,0.3
						C396.1,710.2,396.1,706.3,398.4,704z"/>
				</g>
				<g>
					<path fill="#FF6D1F" d="M450.9,648.4c2.3-2.6,6.6-2.6,9.2-0.3s3,6.2,0.3,8.5c-2.3,2.6-6.6,2.6-9.2,0.3
						C448.6,654.7,448.3,650.7,450.9,648.4z"/>
				</g>
			</g>
		</g>
		<g>
			<g>
				<path fill="#FF6D1F" d="M425.6,717.5c0-3.3,2.6-6.2,6.2-6.2c3.6,0,6.6,2.6,6.9,5.9c0,3.3-2.6,6.2-6.2,6.2
					C428.9,723.7,425.6,721.1,425.6,717.5z"/>
			</g>
			<g>
				<path fill="#FF6D1F" d="M420.4,643.5c0-3.3,2.6-6.2,6.2-6.2s6.6,2.6,6.9,5.9c0,3.3-2.6,6.2-6.2,6.2
					C423.3,649.4,420.4,646.8,420.4,643.5z"/>
			</g>
			<g>
				<g>
					<path fill="#FF6D1F" d="M389.5,676.4c3.6,0,6.6,2.6,6.9,5.9c0.3,3.3-2.6,6.2-6.2,6.2s-6.6-2.6-6.9-5.9S385.9,676.4,389.5,676.4
						z"/>
				</g>
				<g>
					<path fill="#FF6D1F" d="M469,672.1c3.6,0,6.6,2.6,6.9,5.9c0,3.3-2.6,6.2-6.2,6.2c-3.6,0-6.6-2.6-6.9-5.9
						C462.4,675.1,465.4,672.1,469,672.1z"/>
				</g>
			</g>
		</g>
	</g>
	<g>
		<path fill="#FF8A4C" d="M538.4,768.4l-211,5.3c-1.6-42.1,44.4-77.2,102.5-78.9C488.1,693.5,536.7,726.3,538.4,768.4z"/>
	</g>
	<g>
		<g>
			<path fill="#FF8A4C" d="M548.9,783.9l-230.7,5.6c-2.3,0-4.3-2-3.9-3.9c2-15.8,5.3-25.6,12.8-41.4c1.3-3,4.6-4.9,8.2-4.9
				l192.9-4.6c3.6,0,6.9,1.6,8.5,4.6c8.5,15.4,12.8,25,16.1,40.8C552.8,781.9,551.2,783.9,548.9,783.9z"/>
		</g>
	</g>
	<g>
		<path fill="#FFC5A5" d="M417.1,777c-0.7,0-1.3-0.7-1.3-1.3l-1.3-24.7c0-0.3,0-0.7,0.3-1c0.3-0.3,0.7-0.3,1-0.3l36.5-1.3
			c0.7,0,1.3,0.7,1.3,1.3l1.3,24.7c0,0.3,0,0.7-0.3,1c-0.3,0.3-0.7,0.3-1,0.3L417.1,777L417.1,777z M417.1,752.3l1,22l34.2-1.3
			l-1-22L417.1,752.3z"/>
	</g>
	<g>
		<polygon fill="#FFC5A5" points="444.4,767.4 425.6,768.1 425.3,757.9 443.7,757.2 		"/>
	</g>
</g>
</svg>
