<?xml version="1.0" encoding="utf-8"?>
<!-- Generator: Adobe Illustrator 18.1.1, SVG Export Plug-In . SVG Version: 6.00 Build 0)  -->
<svg version="1.1" id="Layer_1" xmlns="http://www.w3.org/2000/svg" xmlns:xlink="http://www.w3.org/1999/xlink" x="0px" y="0px"
	 viewBox="0 0 431.8 284" enable-background="new 0 0 431.8 284" xml:space="preserve">
<g>
	<g>
		<g>
			<path fill="#E6E7E8" d="M364.6,207H159c-4.3,0-7.8-3.5-7.8-7.8V61.5c0-4.3,3.5-7.8,7.8-7.8h205.5c4.3,0,7.8,3.5,7.8,7.8v137.6
				C372.4,203.5,368.9,207,364.6,207z"/>
		</g>
		<g>
			<rect x="161" y="63.5" fill="#0F3B7A" width="201.6" height="121.7"/>
		</g>
		<g>
			<rect x="161" y="63.5" fill="#3F6295" width="201.6" height="7.6"/>
		</g>
		<g>
			<circle fill="#6F89AF" cx="167.1" cy="67.3" r="1.4"/>
		</g>
		<g>
			<circle fill="#6F89AF" cx="173.2" cy="67.3" r="1.4"/>
		</g>
		<g>
			<circle fill="#6F89AF" cx="179.3" cy="67.3" r="1.4"/>
		</g>
		<g>
			<rect x="177.4" y="84.1" fill="#3F6295" width="13" height="1.9"/>
		</g>
		<g>
			<rect x="177.4" y="94.2" fill="#3F6295" width="13" height="1.9"/>
		</g>
		<g>
			<rect x="177.4" y="104.3" fill="#3F6295" width="13" height="1.9"/>
		</g>
		<g>
			<rect x="177.4" y="114.3" fill="#3F6295" width="13" height="1.9"/>
		</g>
		<g>
			<rect x="177.4" y="124.4" fill="#3F6295" width="13" height="1.9"/>
		</g>
		<g>
			<rect x="177.4" y="134.4" fill="#3F6295" width="13" height="1.9"/>
		</g>
		<g>
			<rect x="177.4" y="144.5" fill="#3F6295" width="13" height="1.9"/>
		</g>
		<g>
			<rect x="177.4" y="154.6" fill="#3F6295" width="13" height="1.9"/>
		</g>
		<g>
			<rect x="177.4" y="164.6" fill="#3F6295" width="13" height="1.9"/>
		</g>
		<g>
			<rect x="206.7" y="84.1" fill="#0095FF" width="26.5" height="1.9"/>
		</g>
		<g>
			<rect x="207" y="94.2" fill="#FFCA22" width="11" height="1.9"/>
		</g>
		<g>
			<rect x="206.7" y="104.3" fill="#FF6D1F" width="26.5" height="1.9"/>
		</g>
		<g>
			<rect x="206.7" y="114.3" fill="#FFCA22" width="26.5" height="1.9"/>
		</g>
		<g>
			<rect x="206.7" y="124.4" fill="#3F6295" width="26.5" height="1.9"/>
		</g>
		<g>
			<rect x="207" y="134.4" fill="#FF8A4C" width="13.8" height="1.9"/>
		</g>
		<g>
			<rect x="206.7" y="154.6" fill="#FFCA22" width="26.5" height="1.9"/>
		</g>
		<g>
			<rect x="206.7" y="164.6" fill="#3F6295" width="26.5" height="1.9"/>
		</g>
		<g>
			<rect x="231.8" y="84.1" fill="#FFBB4E" width="16.9" height="1.9"/>
		</g>
		<g>
			<rect x="261.4" y="84.1" fill="#3F6295" width="15.6" height="1.9"/>
		</g>
		<g>
			<rect x="276.8" y="84.1" fill="#FF6D1F" width="9.8" height="1.9"/>
		</g>
		<g>
			<rect x="286.6" y="84.1" fill="#FFAA22" width="9.8" height="1.9"/>
		</g>
		<g>
			<rect x="296.3" y="84.1" fill="#FFCA22" width="9.8" height="1.9"/>
		</g>
		<g>
			<rect x="320.4" y="84.1" fill="#FF6D1F" width="25.1" height="1.9"/>
		</g>
		<g>
			<rect x="229" y="94.2" fill="#FF8A4C" width="7" height="1.9"/>
		</g>
		<g>
			<rect x="240.1" y="94.2" fill="#FF6D1F" width="7" height="1.9"/>
		</g>
		<g>
			<rect x="246.6" y="94.2" fill="#0095FF" width="18.7" height="1.9"/>
		</g>
		<g>
			<rect x="269.8" y="94.2" fill="#FFCA22" width="26.5" height="1.9"/>
		</g>
		<g>
			<rect x="294.8" y="94.2" fill="#FF8A4C" width="16.9" height="1.9"/>
		</g>
		<g>
			<rect x="316.9" y="94.2" fill="#FFCA22" width="7" height="1.9"/>
		</g>
		<g>
			<rect x="327.5" y="94.2" fill="#FF6D1F" width="7" height="1.9"/>
		</g>
		<g>
			<rect x="219.9" y="104.3" fill="#FFCA22" width="26.5" height="1.9"/>
		</g>
		<g>
			<rect x="255.8" y="104.3" fill="#0095FF" width="15.6" height="1.9"/>
		</g>
		<g>
			<rect x="263.6" y="104.3" fill="#3F6295" width="15.6" height="1.9"/>
		</g>
		<g>
			<rect x="287.5" y="104.3" fill="#FF6D1F" width="13.5" height="1.9"/>
		</g>
		<g>
			<rect x="300.3" y="104.3" fill="#FFC5A5" width="8.6" height="1.9"/>
		</g>
		<g>
			<rect x="316.9" y="104.3" fill="#FFAA22" width="25.1" height="1.9"/>
		</g>
		<g>
			<rect x="227.6" y="114.3" fill="#0095FF" width="11.2" height="1.9"/>
		</g>
		<g>
			<rect x="238" y="114.3" fill="#3F6295" width="11.2" height="1.9"/>
		</g>
		<g>
			<rect x="259.6" y="114.3" fill="#FF6D1F" width="15.6" height="1.9"/>
		</g>
		<g>
			<rect x="267.4" y="114.3" fill="#3F6295" width="15.6" height="1.9"/>
		</g>
		<g>
			<rect x="291.1" y="114.3" fill="#0095FF" width="15.6" height="1.9"/>
		</g>
		<g>
			<rect x="306.5" y="114.3" fill="#FF6D1F" width="9.8" height="1.9"/>
		</g>
		<g>
			<rect x="316.2" y="114.3" fill="#FFAA22" width="9.8" height="1.9"/>
		</g>
		<g>
			<rect x="326" y="114.3" fill="#FFCA22" width="9.8" height="1.9"/>
		</g>
		<g>
			<rect x="231.2" y="124.4" fill="#FF6D1F" width="26.5" height="1.9"/>
		</g>
		<g>
			<rect x="256.2" y="124.4" fill="#FFBB4E" width="16.9" height="1.9"/>
		</g>
		<g>
			<rect x="281.6" y="124.4" fill="#FF8A4C" width="6.3" height="1.9"/>
		</g>
		<g>
			<rect x="287.9" y="124.4" fill="#FFCA22" width="6.3" height="1.9"/>
		</g>
		<g>
			<rect x="301.9" y="124.4" fill="#0095FF" width="23.4" height="1.9"/>
		</g>
		<g>
			<rect x="324.1" y="124.4" fill="#FFBB4E" width="15" height="1.9"/>
		</g>
		<g>
			<rect x="220.2" y="134.4" fill="#FF6D1F" width="7" height="1.9"/>
		</g>
		<g>
			<rect x="226.7" y="134.4" fill="#0095FF" width="18.7" height="1.9"/>
		</g>
		<g>
			<rect x="249.8" y="134.4" fill="#FFCA22" width="26.5" height="1.9"/>
		</g>
		<g>
			<rect x="274.9" y="134.4" fill="#FF8A4C" width="16.9" height="1.9"/>
		</g>
		<g>
			<rect x="290.7" y="134.4" fill="#3F6295" width="7" height="1.9"/>
		</g>
		<g>
			<rect x="305.4" y="134.4" fill="#FF6D1F" width="11.2" height="1.9"/>
		</g>
		<g>
			<rect x="320.3" y="134.4" fill="#0095FF" width="21.2" height="1.9"/>
		</g>
		<g>
			<rect x="207" y="144.5" fill="#FF6D1F" width="9" height="1.9"/>
		</g>
		<g>
			<rect x="224.8" y="144.5" fill="#FF8A4C" width="5.7" height="1.9"/>
		</g>
		<g>
			<rect x="233.9" y="144.5" fill="#FF6D1F" width="5.7" height="1.9"/>
		</g>
		<g>
			<rect x="239.2" y="144.5" fill="#0095FF" width="15.2" height="1.9"/>
		</g>
		<g>
			<rect x="258" y="144.5" fill="#FFCA22" width="21.5" height="1.9"/>
		</g>
		<g>
			<rect x="278.3" y="144.5" fill="#FF8A4C" width="13.7" height="1.9"/>
		</g>
		<g>
			<rect x="296.3" y="144.5" fill="#FFCA22" width="5.7" height="1.9"/>
		</g>
		<g>
			<rect x="304.8" y="144.5" fill="#FF6D1F" width="5.7" height="1.9"/>
		</g>
		<g>
			<rect x="310" y="144.5" fill="#0095FF" width="17.9" height="1.9"/>
		</g>
		<g>
			<rect x="326.9" y="144.5" fill="#FFBB4E" width="11.4" height="1.9"/>
		</g>
		<g>
			<rect x="243.6" y="154.6" fill="#3F6295" width="17.7" height="1.9"/>
		</g>
		<g>
			<rect x="261.1" y="154.6" fill="#FF6D1F" width="11.1" height="1.9"/>
		</g>
		<g>
			<rect x="272.3" y="154.6" fill="#FFAA22" width="11.1" height="1.9"/>
		</g>
		<g>
			<rect x="283.4" y="154.6" fill="#0095FF" width="11.1" height="1.9"/>
		</g>
		<g>
			<rect x="305.8" y="154.6" fill="#FF6D1F" width="7" height="1.9"/>
		</g>
		<g>
			<rect x="312.3" y="154.6" fill="#FFCA22" width="18.7" height="1.9"/>
		</g>
		<g>
			<rect x="241.6" y="164.6" fill="#0095FF" width="15.6" height="1.9"/>
		</g>
		<g>
			<rect x="249.4" y="164.6" fill="#FFAA22" width="15.6" height="1.9"/>
		</g>
		<g>
			<rect x="273.3" y="164.6" fill="#FF6D1F" width="13.5" height="1.9"/>
		</g>
		<g>
			<rect x="286.1" y="164.6" fill="#FFC5A5" width="8.6" height="1.9"/>
		</g>
		<g>
			<rect x="302.8" y="164.6" fill="#FF6D1F" width="25.1" height="1.9"/>
		</g>
		<g>
			<rect x="332.9" y="164.6" fill="#FFCA22" width="10.7" height="1.9"/>
		</g>
	</g>
	<g>
		<rect x="19.4" y="213.4" fill="#FFBB4E" width="125.2" height="62.1"/>
	</g>
	<g>
		<path fill="#FFAA22" d="M415.6,213.4H12.2c-1.7,0-3.1-1.4-3.1-3.1V209c0-1.7,1.4-3.1,3.1-3.1h403.4c1.7,0,3.1,1.4,3.1,3.1v1.3
			C418.7,212,417.3,213.4,415.6,213.4z"/>
	</g>
	<g>
		<rect x="137" y="213.4" fill="#FFBB4E" width="263.4" height="24.2"/>
	</g>
	<g>
		<polygon fill="#FFBB4E" points="405.4,275.5 392.8,275.5 389.9,213.4 408.3,213.4 		"/>
	</g>
	<g opacity="0.15">
		<rect x="19.4" y="213.1" fill="#231F20" width="388.8" height="1.8"/>
	</g>
	<g>
		<rect x="30.6" y="229.4" fill="#FFAA22" width="102.6" height="39.8"/>
	</g>
	<g>
		<rect x="35.6" y="234.2" fill="#FFBB4E" width="92.6" height="30.2"/>
	</g>
	<g>
		<g>
			<path fill="#F25F1D" d="M60.2,206.2h16.3c0-4.5-3.6-8.1-8.1-8.1S60.2,201.8,60.2,206.2z"/>
		</g>
		<g opacity="0.15">
			<path fill="#231F20" d="M70.7,204.6c-0.3,0-0.7,0-1,0c-3-0.2-5.7-1.4-7.9-3.2c1.5-1.9,3.8-3.2,6.5-3.2c3.9,0,7.2,2.8,7.9,6.4
				H70.7z"/>
		</g>
		<g>
			<path fill="#F25F1D" d="M108,206.2H91.8c0-4.5,3.6-8.1,8.1-8.1C104.4,198.1,108,201.8,108,206.2z"/>
		</g>
		<g opacity="0.15">
			<path fill="#231F20" d="M97.5,204.6c0.3,0,0.7,0,1,0c3-0.2,5.7-1.4,7.9-3.2c-1.5-1.9-3.8-3.2-6.5-3.2c-3.9,0-7.2,2.8-7.9,6.4
				H97.5z"/>
		</g>
		<g>
			<g>
				<path fill="#F25F1D" d="M57.6,169.5c0.7-2.8,3.7-4.4,6.7-3.7s4.9,3.6,4.2,6.4c-1.6,6.5-7.1,10.8,1.2,12.9l4.7,1.2
					c3,0.7,4.9,3.6,4.2,6.4c-0.7,2.8-3.7,4.4-6.7,3.7l-4.7-1.2C52.8,191.6,54.6,181.6,57.6,169.5z"/>
			</g>
		</g>
		<g opacity="0.15">
			<path fill="#231F20" d="M62,165.8v10.9h1.7v-11.1C63.1,165.6,62.5,165.7,62,165.8z"/>
		</g>
		<g>
			<g>
				<path fill="#F25F1D" d="M97.7,175.4c-2.8,0-5-2.4-5-5.4s2.3-5.4,5-5.4c6.5,0,11.8,4.2,11.8-4.2v-4.7c0-3,2.3-5.4,5-5.4
					c2.8,0,5,2.4,5,5.4v4.7C119.5,174.7,109.7,175.4,97.7,175.4z"/>
			</g>
		</g>
		<g opacity="0.15">
			<path fill="#231F20" d="M104.3,165.6v9.6c0.6,0,1.2-0.1,1.7-0.2v-9.4C105.5,165.7,104.9,165.6,104.3,165.6z"/>
		</g>
		<g>
			<g>
				<path fill="#FF6D1F" d="M97.2,203.6H70.9c-0.3,0-0.6,0-0.9,0c-7.1-0.4-12.2-7.2-11-14.2l4-23.8h42l4,23.8
					c1.2,7-3.9,13.8-11,14.2C97.8,203.6,97.5,203.6,97.2,203.6z"/>
			</g>
		</g>
		<g>
			<g>
				<g>
					<g>
						<path fill="#F25F1D" d="M101.1,148.4c3.8-3.4,5.4-6.5,5.2-12.8c-6.2-0.2-9.4,1.4-12.8,5.2C98.5,141.2,100.7,143.4,101.1,148.4
							z"/>
					</g>
				</g>
			</g>
			<g>
				<g>
					<path fill="#FF8A4C" d="M101.6,146.3c-0.2-1.8-0.6-3-1.5-3.8c1.5-1.9,3-3.3,5.1-4.8C105.3,141.9,104.2,144,101.6,146.3z"/>
				</g>
			</g>
		</g>
		<g opacity="0.15">
			<path fill="#231F20" d="M103.8,165.6H64.3c4.1,5.5,11.4,9.2,19.7,9.2C92.4,174.8,99.7,171.1,103.8,165.6z"/>
		</g>
		<g>
			<g>
				<g>
					<g>
						<path fill="#F25F1D" d="M67.3,148.4c-3.8-3.4-5.4-6.5-5.2-12.8c6.2-0.2,9.4,1.4,12.8,5.2C69.9,141.2,67.7,143.4,67.3,148.4z"
							/>
					</g>
				</g>
			</g>
			<g>
				<g>
					<path fill="#FF8A4C" d="M66.8,146.3c0.2-1.8,0.6-3,1.5-3.8c-1.5-1.9-3-3.3-5.1-4.8C63.1,141.9,64.2,144,66.8,146.3z"/>
				</g>
			</g>
		</g>
		<g>
			<g>
				<ellipse fill="#FF6D1F" cx="84.1" cy="155.1" rx="22" ry="18.5"/>
			</g>
		</g>
		<g opacity="0.15">
			<g>
				<ellipse fill="#231F20" cx="84.1" cy="158.9" rx="7.9" ry="7"/>
			</g>
		</g>
		<g>
			<g>
				<ellipse fill="#FFC5A5" cx="84.1" cy="158.1" rx="7.9" ry="7"/>
			</g>
		</g>
		<g>
			<g>
				<circle fill="#FF6D1F" cx="80.8" cy="158.1" r="1.4"/>
			</g>
		</g>
		<g>
			<path fill="#F25F1D" d="M80.8,157.5c-0.6,0-1.1,0.4-1.3,1c0.2,0.6,0.7,1,1.3,1s1.1-0.4,1.3-1C81.9,157.9,81.4,157.5,80.8,157.5z"
				/>
		</g>
		<g>
			<g>
				<g>
					<circle fill="#FF6D1F" cx="87.9" cy="158.1" r="1.4"/>
				</g>
			</g>
			<g>
				<path fill="#F25F1D" d="M87.9,157.5c-0.6,0-1.1,0.4-1.3,1c0.2,0.6,0.7,1,1.3,1s1.1-0.4,1.3-1C89.1,157.9,88.5,157.5,87.9,157.5z
					"/>
			</g>
		</g>
		<g>
			<path fill="#FF8A4C" d="M69.5,157h-2.8c-0.5,0-0.9-0.4-0.9-0.9v0c0-0.5,0.4-0.9,0.9-0.9h2.8c0.5,0,0.9,0.4,0.9,0.9v0
				C70.5,156.5,70.1,157,69.5,157z"/>
		</g>
		<g>
			<path fill="#FF8A4C" d="M101.3,157h-2.8c-0.5,0-0.9-0.4-0.9-0.9v0c0-0.5,0.4-0.9,0.9-0.9h2.8c0.5,0,0.9,0.4,0.9,0.9v0
				C102.3,156.5,101.9,157,101.3,157z"/>
		</g>
		<g>
			<path fill="#404041" d="M74.6,150.7h-4.1c0-1.1,0.9-2,2-2C73.7,148.7,74.6,149.6,74.6,150.7z"/>
		</g>
		<g>
			<path fill="#404041" d="M97,150.7h-4.1c0-1.1,0.9-2,2-2C96.1,148.7,97,149.6,97,150.7z"/>
		</g>
		<g>
			<g opacity="0.15">
				<ellipse fill="#231F20" cx="84.1" cy="182.1" rx="3.5" ry="5.1"/>
			</g>
			<g>
				<g>
					<defs>
						<ellipse id="SVGID_107_" cx="84.1" cy="180.6" rx="3.5" ry="5.1"/>
					</defs>
					<clipPath id="SVGID_1_">
						<use xlink:href="#SVGID_107_"  overflow="visible"/>
					</clipPath>
					<rect x="80.5" y="175.5" clip-path="url(#SVGID_1_)" fill="#FFD915" width="0" height="10.2"/>
					<rect x="80.5" y="175.5" clip-path="url(#SVGID_1_)" fill="#FFD915" width="0.2" height="10.2"/>
					<rect x="80.7" y="175.5" clip-path="url(#SVGID_1_)" fill="#FFD815" width="0.2" height="10.2"/>
					<rect x="80.8" y="175.5" clip-path="url(#SVGID_1_)" fill="#FFD716" width="0.2" height="10.2"/>
					<rect x="81" y="175.5" clip-path="url(#SVGID_1_)" fill="#FFD616" width="0.2" height="10.2"/>
					<rect x="81.1" y="175.5" clip-path="url(#SVGID_1_)" fill="#FFD516" width="0.2" height="10.2"/>
					<rect x="81.3" y="175.5" clip-path="url(#SVGID_1_)" fill="#FFD416" width="0.2" height="10.2"/>
					<rect x="81.4" y="175.5" clip-path="url(#SVGID_1_)" fill="#FFD317" width="0.2" height="10.2"/>
					<rect x="81.6" y="175.5" clip-path="url(#SVGID_1_)" fill="#FFD217" width="0.2" height="10.2"/>
					<rect x="81.7" y="175.5" clip-path="url(#SVGID_1_)" fill="#FFD117" width="0.2" height="10.2"/>
					<rect x="81.9" y="175.5" clip-path="url(#SVGID_1_)" fill="#FFD018" width="0.2" height="10.2"/>
					<rect x="82" y="175.5" clip-path="url(#SVGID_1_)" fill="#FFCF18" width="0.2" height="10.2"/>
					<rect x="82.2" y="175.5" clip-path="url(#SVGID_1_)" fill="#FFCE18" width="0.2" height="10.2"/>
					<rect x="82.3" y="175.5" clip-path="url(#SVGID_1_)" fill="#FFCD18" width="0.2" height="10.2"/>
					<rect x="82.5" y="175.5" clip-path="url(#SVGID_1_)" fill="#FFCC19" width="0.2" height="10.2"/>
					<rect x="82.6" y="175.5" clip-path="url(#SVGID_1_)" fill="#FFCB19" width="0.2" height="10.2"/>
					<rect x="82.8" y="175.5" clip-path="url(#SVGID_1_)" fill="#FFCA19" width="0.2" height="10.2"/>
					<rect x="82.9" y="175.5" clip-path="url(#SVGID_1_)" fill="#FFC91A" width="0.2" height="10.2"/>
					<rect x="83.1" y="175.5" clip-path="url(#SVGID_1_)" fill="#FFC81A" width="0.2" height="10.2"/>
					<rect x="83.2" y="175.5" clip-path="url(#SVGID_1_)" fill="#FFC71A" width="0.2" height="10.2"/>
					<rect x="83.4" y="175.5" clip-path="url(#SVGID_1_)" fill="#FFC61A" width="0.2" height="10.2"/>
					<rect x="83.5" y="175.5" clip-path="url(#SVGID_1_)" fill="#FFC51B" width="0.2" height="10.2"/>
					<rect x="83.7" y="175.5" clip-path="url(#SVGID_1_)" fill="#FFC41B" width="0.2" height="10.2"/>
					<rect x="83.8" y="175.5" clip-path="url(#SVGID_1_)" fill="#FFC31B" width="0.2" height="10.2"/>
					<rect x="84" y="175.5" clip-path="url(#SVGID_1_)" fill="#FFC21B" width="0.2" height="10.2"/>
					<rect x="84.1" y="175.5" clip-path="url(#SVGID_1_)" fill="#FFC01C" width="0.2" height="10.2"/>
					<rect x="84.3" y="175.5" clip-path="url(#SVGID_1_)" fill="#FFBF1C" width="0.2" height="10.2"/>
					<rect x="84.4" y="175.5" clip-path="url(#SVGID_1_)" fill="#FFBE1C" width="0.2" height="10.2"/>
					<rect x="84.6" y="175.5" clip-path="url(#SVGID_1_)" fill="#FFBD1D" width="0.2" height="10.2"/>
					<rect x="84.7" y="175.5" clip-path="url(#SVGID_1_)" fill="#FFBC1D" width="0.2" height="10.2"/>
					<rect x="84.9" y="175.5" clip-path="url(#SVGID_1_)" fill="#FFBB1D" width="0.2" height="10.2"/>
					<rect x="85" y="175.5" clip-path="url(#SVGID_1_)" fill="#FFBA1D" width="0.2" height="10.2"/>
					<rect x="85.2" y="175.5" clip-path="url(#SVGID_1_)" fill="#FFB91E" width="0.2" height="10.2"/>
					<rect x="85.3" y="175.5" clip-path="url(#SVGID_1_)" fill="#FFB81E" width="0.2" height="10.2"/>
					<rect x="85.5" y="175.5" clip-path="url(#SVGID_1_)" fill="#FFB71E" width="0.2" height="10.2"/>
					<rect x="85.6" y="175.5" clip-path="url(#SVGID_1_)" fill="#FFB61F" width="0.2" height="10.2"/>
					<rect x="85.8" y="175.5" clip-path="url(#SVGID_1_)" fill="#FFB51F" width="0.2" height="10.2"/>
					<rect x="85.9" y="175.5" clip-path="url(#SVGID_1_)" fill="#FFB41F" width="0.2" height="10.2"/>
					<rect x="86.1" y="175.5" clip-path="url(#SVGID_1_)" fill="#FFB31F" width="0.2" height="10.2"/>
					<rect x="86.2" y="175.5" clip-path="url(#SVGID_1_)" fill="#FFB220" width="0.2" height="10.2"/>
					<rect x="86.4" y="175.5" clip-path="url(#SVGID_1_)" fill="#FFB120" width="0.2" height="10.2"/>
					<rect x="86.5" y="175.5" clip-path="url(#SVGID_1_)" fill="#FFB020" width="0.2" height="10.2"/>
					<rect x="86.7" y="175.5" clip-path="url(#SVGID_1_)" fill="#FFAF21" width="0.2" height="10.2"/>
					<rect x="86.8" y="175.5" clip-path="url(#SVGID_1_)" fill="#FFAE21" width="0.2" height="10.2"/>
					<rect x="87" y="175.5" clip-path="url(#SVGID_1_)" fill="#FFAD21" width="0.2" height="10.2"/>
					<rect x="87.1" y="175.5" clip-path="url(#SVGID_1_)" fill="#FFAC21" width="0.2" height="10.2"/>
					<rect x="87.3" y="175.5" clip-path="url(#SVGID_1_)" fill="#FFAB22" width="0.2" height="10.2"/>
					<rect x="87.4" y="175.5" clip-path="url(#SVGID_1_)" fill="#FFAA22" width="0.2" height="10.2"/>
				</g>
			</g>
		</g>
	</g>
	<g opacity="0.15">
		<rect x="35.6" y="264.4" fill="#231F20" width="92.6" height="1.2"/>
	</g>
	<g>
		<rect x="69.8" y="244.5" fill="#FFAA22" width="24.2" height="4"/>
	</g>
	<g opacity="0.15">
		<rect x="69.8" y="247.5" fill="#231F20" width="24.2" height="1"/>
	</g>
	<g opacity="0.15">
		<rect x="144.6" y="235.1" fill="#231F20" width="246.4" height="2.4"/>
	</g>
	<g>
		<g>
			<rect x="402" y="149.9" fill="#FFAA22" width="1.5" height="6.9"/>
		</g>
		<g>
			<rect x="399.3" y="152.6" fill="#FFAA22" width="6.9" height="1.5"/>
		</g>
	</g>
	<g>
		<g>
			<rect x="100.1" y="98.6" fill="#FFAA22" width="1.5" height="6.9"/>
		</g>
		<g>
			<rect x="97.4" y="101.3" fill="#FFAA22" width="6.9" height="1.5"/>
		</g>
	</g>
	<g>
		<rect x="404.8" y="116.1" fill="#FF8A4C" width="6.9" height="1.5"/>
	</g>
	<g>
		<g>
			<rect x="94.5" y="49.6" fill="#FFCA22" width="1.5" height="3.2"/>
		</g>
		<g>
			<rect x="94.5" y="62.3" fill="#FFCA22" width="1.5" height="3.2"/>
		</g>
		<g>
			<rect x="100" y="56.8" fill="#FFCA22" width="3.2" height="1.5"/>
		</g>
		<g>
			<rect x="87.4" y="56.8" fill="#FFCA22" width="3.2" height="1.5"/>
		</g>
		<g>
			
				<rect x="99" y="51.5" transform="matrix(0.7071 0.7071 -0.7071 0.7071 66.7278 -55.0034)" fill="#FFCA22" width="1.5" height="3.2"/>
		</g>
		<g>
			
				<rect x="90.1" y="60.4" transform="matrix(0.7071 0.7071 -0.7071 0.7071 70.4384 -46.0454)" fill="#FFCA22" width="1.5" height="3.2"/>
		</g>
		<g>
			
				<rect x="98.2" y="61.3" transform="matrix(0.7071 0.7071 -0.7071 0.7071 73.0621 -52.3797)" fill="#FFCA22" width="3.2" height="1.5"/>
		</g>
		<g>
			
				<rect x="89.2" y="52.3" transform="matrix(0.7071 0.7071 -0.7071 0.7071 64.1041 -48.6692)" fill="#FFCA22" width="3.2" height="1.5"/>
		</g>
	</g>
	<g>
		<g>
			<rect x="410.9" y="64.6" fill="#FFCA22" width="1.5" height="3.2"/>
		</g>
		<g>
			<rect x="410.9" y="77.3" fill="#FFCA22" width="1.5" height="3.2"/>
		</g>
		<g>
			<rect x="416.4" y="71.8" fill="#FFCA22" width="3.2" height="1.5"/>
		</g>
		<g>
			<rect x="403.7" y="71.8" fill="#FFCA22" width="3.2" height="1.5"/>
		</g>
		<g>
			
				<rect x="415.4" y="66.5" transform="matrix(0.7071 0.7071 -0.7071 0.7071 170.0218 -274.3048)" fill="#FFCA22" width="1.5" height="3.2"/>
		</g>
		<g>
			
				<rect x="406.4" y="75.5" transform="matrix(0.7071 0.7071 -0.7071 0.7071 173.7323 -265.3468)" fill="#FFCA22" width="1.5" height="3.2"/>
		</g>
		<g>
			
				<rect x="414.5" y="76.3" transform="matrix(0.7071 0.7071 -0.7071 0.7071 176.3561 -271.6811)" fill="#FFCA22" width="3.2" height="1.5"/>
		</g>
		<g>
			
				<rect x="405.6" y="67.3" transform="matrix(0.7071 0.7071 -0.7071 0.7071 167.3981 -267.9706)" fill="#FFCA22" width="3.2" height="1.5"/>
		</g>
	</g>
	<g>
		<g>
			<rect x="253.7" y="11.6" fill="#FFCA22" width="1.5" height="3.2"/>
		</g>
		<g>
			<rect x="253.7" y="24.2" fill="#FFCA22" width="1.5" height="3.2"/>
		</g>
		<g>
			<rect x="259.2" y="18.7" fill="#FFCA22" width="3.2" height="1.5"/>
		</g>
		<g>
			<rect x="246.5" y="18.7" fill="#FFCA22" width="3.2" height="1.5"/>
		</g>
		<g>
			
				<rect x="258.2" y="13.4" transform="matrix(0.7071 0.7071 -0.7071 0.7071 86.4476 -178.6834)" fill="#FFCA22" width="1.5" height="3.2"/>
		</g>
		<g>
			
				<rect x="249.2" y="22.4" transform="matrix(0.7071 0.7071 -0.7071 0.7071 90.1583 -169.7249)" fill="#FFCA22" width="1.5" height="3.2"/>
		</g>
		<g>
			
				<rect x="257.3" y="23.2" transform="matrix(0.7071 0.7071 -0.7071 0.7071 92.7822 -176.0595)" fill="#FFCA22" width="3.2" height="1.5"/>
		</g>
		<g>
			
				<rect x="248.4" y="14.3" transform="matrix(0.7071 0.7071 -0.7071 0.7071 83.8237 -172.3488)" fill="#FFCA22" width="3.2" height="1.5"/>
		</g>
	</g>
	<linearGradient id="SVGID_3_" gradientUnits="userSpaceOnUse" x1="176.3735" y1="117.2999" x2="176.3735" y2="12.2792">
		<stop  offset="4.449659e-03" style="stop-color:#FF6D1F"/>
		<stop  offset="1" style="stop-color:#FFAA22"/>
	</linearGradient>
	<circle fill="url(#SVGID_3_)" cx="176.4" cy="64.8" r="52.5"/>
	<g>
		<defs>
			<circle id="SVGID_110_" cx="176.4" cy="64.8" r="45.3"/>
		</defs>
		<clipPath id="SVGID_5_">
			<use xlink:href="#SVGID_110_"  overflow="visible"/>
		</clipPath>
		<g clip-path="url(#SVGID_5_)">
			<g>
				<circle fill="#FFFFFF" cx="176.4" cy="64.8" r="45.3"/>
			</g>
			<g>
				<rect x="128.2" y="50.9" fill="#FFCA22" width="97.3" height="27.9"/>
			</g>
			<g>
				<path fill="#0F3B7A" d="M150.4,66.3c0,1.4,1,2,2.3,2c1.4,0,1.9-0.7,1.9-1.4c0-0.7-0.4-1-0.8-1.1c-0.6-0.2-1.5-0.4-2.7-0.8
					c-1.6-0.4-2-1.4-2-2.3c0-1.8,1.7-2.7,3.4-2.7c1.9,0,3.5,1,3.5,2.9h-1.6c-0.1-1.2-0.9-1.6-2-1.6c-0.7,0-1.7,0.3-1.7,1.2
					c0,0.6,0.4,1,1.1,1.2c0.1,0,2.2,0.6,2.7,0.7c1.2,0.4,1.8,1.4,1.8,2.3c0,2.1-1.8,2.9-3.7,2.9c-2.1,0-3.8-1-3.8-3.3H150.4z"/>
				<path fill="#0F3B7A" d="M157.8,62.7h1.4v0.9h0c0.4-0.8,1.2-1.1,2.1-1.1c2.1,0,3.1,1.6,3.1,3.5c0,1.8-0.9,3.5-2.9,3.5
					c-0.9,0-1.8-0.3-2.2-1h0v3.3h-1.5V62.7z M161,63.6c-1.2,0-1.9,0.9-1.9,2.4c0,1.3,0.7,2.3,1.9,2.3c1.3,0,1.8-1.2,1.8-2.3
					C162.9,64.8,162.3,63.6,161,63.6z"/>
				<path fill="#0F3B7A" d="M171.4,67.8c0,0.4,0.1,0.5,0.3,0.5c0.1,0,0.2,0,0.4,0v1c-0.2,0.1-0.7,0.2-0.9,0.2c-0.6,0-1-0.2-1.1-0.8
					c-0.6,0.6-1.5,0.8-2.3,0.8c-1.2,0-2.3-0.6-2.3-1.9c0-1.7,1.3-1.9,2.6-2.1c1.1-0.2,2-0.1,2-0.9c0-0.8-0.8-0.9-1.4-0.9
					c-0.8,0-1.4,0.3-1.5,1.1h-1.5c0.1-1.7,1.6-2.2,3-2.2c1.3,0,2.7,0.5,2.7,1.9V67.8z M170,66c-0.5,0.3-1.2,0.3-1.8,0.4
					c-0.6,0.1-1.2,0.3-1.2,1.1c0,0.7,0.8,0.9,1.4,0.9c0.6,0,1.7-0.3,1.7-1.3V66z"/>
				<path fill="#0F3B7A" d="M173.3,62.7h1.4v0.9h0c0.4-0.7,1-1.1,2-1.1c0.8,0,1.6,0.3,1.9,1.1c0.5-0.7,1.1-1.1,2.1-1.1
					c1.4,0,2.2,0.6,2.2,2.2v4.6h-1.5v-3.9c0-1.1-0.1-1.8-1.2-1.8c-1,0-1.4,0.7-1.4,1.8v3.9h-1.5v-4.3c0-0.9-0.3-1.4-1.2-1.4
					c-0.8,0-1.5,0.6-1.5,1.7v4h-1.5V62.7z"/>
				<path fill="#0F3B7A" d="M190.3,71.8c-1-1.6-1.9-3.5-1.9-5.9c0-2.1,0.7-4.1,1.9-5.9h1.2c-1,1.8-1.6,3.8-1.6,5.9
					c0,2.2,0.5,4.1,1.6,5.9H190.3z"/>
				<path fill="#0F3B7A" d="M198.4,64.8c0,2-0.5,4.7-3.1,4.7c-2.6,0-3.1-2.6-3.1-4.7c0-2.1,0.5-4.7,3.1-4.7
					C197.8,60.1,198.4,62.8,198.4,64.8z M196.9,64.8c0-1.9-0.4-3.5-1.7-3.5c-1.3,0-1.7,1.6-1.7,3.5s0.4,3.5,1.7,3.5
					C196.5,68.3,196.9,66.7,196.9,64.8z"/>
				<path fill="#0F3B7A" d="M200.2,59.9c1,1.7,1.9,3.5,1.9,6c0,2.1-0.7,4.1-1.9,5.9H199c1-1.8,1.6-3.8,1.6-5.9c0-2.2-0.5-4.1-1.6-6
					H200.2z"/>
			</g>
			<g>
				<rect x="128.2" y="39.5" fill="#FFD54E" width="97.3" height="12.4"/>
			</g>
			<g>
				<rect x="128.2" y="28" fill="#FFDF7A" width="97.3" height="12.4"/>
			</g>
			<g>
				<rect x="128.2" y="78.8" fill="#FFD54E" width="97.3" height="12.4"/>
			</g>
			<g>
				<rect x="128.2" y="90.3" fill="#FFDF7A" width="97.3" height="12.4"/>
			</g>
			<g>
				<rect x="128.2" y="16.1" fill="#FFEAA7" width="97.3" height="12.4"/>
			</g>
			<g>
				<rect x="128.2" y="101.4" fill="#FFEAA7" width="97.3" height="12.4"/>
			</g>
		</g>
	</g>
	<g>
		<g>
			<path fill="#D0D2D3" d="M382.3,205.8H141.3v-2.2c0-3.8,3.1-7,7-7h227c3.8,0,7,3.1,7,7V205.8z"/>
		</g>
		<g>
			<path fill="#FFFFFF" d="M286.2,201.1h-54.6c-0.9,0-1.8-0.3-2.5-0.9l-1-0.9l0.7-0.8l1,0.9c0.5,0.4,1.2,0.7,1.8,0.7h54.6
				c0.7,0,1.3-0.2,1.8-0.7l1-0.9l0.7,0.8l-1,0.9C288,200.8,287.1,201.1,286.2,201.1z"/>
		</g>
	</g>
	<g>
		<rect x="308.8" y="23.2" fill="#FF8A4C" width="6.9" height="1.5"/>
	</g>
	<g>
		<g>
			<rect x="363.7" y="16.7" fill="#FFAA22" width="1.5" height="6.9"/>
		</g>
		<g>
			<rect x="361" y="19.4" fill="#FFAA22" width="6.9" height="1.5"/>
		</g>
	</g>
</g>
</svg>
